<?xml version="1.0" standalone="no"?>
<!DOCTYPE svg PUBLIC "-//W3C//DTD SVG 20010904//EN"
 "http://www.w3.org/TR/2001/REC-SVG-20010904/DTD/svg10.dtd">
<svg version="1.0" xmlns="http://www.w3.org/2000/svg"
 width="1080.000000pt" height="2116.000000pt" viewBox="0 0 1080.000000 2116.000000"
 preserveAspectRatio="xMidYMid meet">

<g transform="translate(0.000000,2116.000000) scale(0.100000,-0.100000)"
fill="#000000" stroke="none">
<path d="M0 11540 l0 -9620 60 0 59 0 3 508 3 507 24 45 c32 61 76 107 136
138 l50 27 2365 0 2365 0 50 -27 c108 -57 157 -139 163 -274 l4 -90 -58 -13
c-339 -75 -596 -348 -655 -695 -14 -85 -7 -248 16 -330 41 -152 99 -257 205
-370 336 -356 884 -356 1220 0 144 154 215 319 227 530 23 408 -258 776 -661
865 l-58 13 4 90 c6 135 55 217 163 274 l50 27 2365 0 2365 0 50 -27 c60 -31
104 -77 136 -138 l24 -45 3 -507 3 -508 59 0 60 0 0 9620 0 9620 -5400 0
-5400 0 0 -9620z m1202 9410 l-4 -60 61 0 61 0 0 60 0 60 235 0 235 0 -2 -317
-3 -318 -5 310 -5 310 -200 0 -200 0 -3 -24 c-2 -13 1 -28 6 -33 5 -5 81 -10
168 -11 l159 -2 2 -340 c2 -331 2 -341 -20 -394 -23 -57 -401 -529 -424 -530
-17 -1 -389 453 -421 514 l-27 50 -3 344 c-2 274 0 346 10 353 7 4 78 8 158 8
80 -1 151 -1 158 0 9 0 12 11 10 33 l-3 32 -175 5 -175 6 205 2 205 2 -3 -60z
m9013 -373 c59 -30 104 -75 136 -137 20 -37 24 -60 24 -130 0 -73 -4 -92 -27
-135 -31 -60 -77 -104 -138 -136 -37 -20 -60 -24 -130 -24 -70 0 -93 4 -130
24 -61 32 -107 76 -138 136 -23 43 -27 62 -27 135 0 70 4 93 24 130 41 79 105
133 191 161 49 16 162 4 215 -24z m-7705 -73 c44 -9 110 -73 110 -107 0 -24
-4 -27 -34 -27 -28 0 -38 6 -53 30 -31 53 -101 53 -128 0 -19 -37 -19 -120 -1
-165 24 -57 87 -61 121 -8 17 27 26 32 58 33 45 0 49 -19 14 -71 -33 -49 -81
-71 -141 -65 -85 9 -139 66 -151 162 -19 141 77 243 205 218z m240 -70 l0 -75
22 15 c35 25 94 20 123 -9 23 -23 25 -31 25 -130 l0 -105 -40 0 -40 0 0 94 c0
76 -3 95 -16 100 -55 21 -74 -7 -74 -110 l0 -84 -40 0 -40 0 0 190 0 190 40 0
40 0 0 -76z m2620 -36 l0 -112 48 53 c44 49 50 53 87 49 l40 -3 -46 -49 -46
-50 41 -65 c23 -36 46 -72 50 -78 5 -10 -3 -13 -33 -13 -37 0 -42 3 -74 55
-32 52 -35 54 -51 37 -9 -10 -16 -35 -16 -55 0 -36 -1 -37 -40 -37 l-40 0 0
190 0 190 40 0 40 0 0 -112z m-720 -48 l0 -149 78 -3 77 -3 3 -32 3 -33 -120
0 -121 0 0 185 0 185 40 0 40 0 0 -150z m280 115 c0 -34 -1 -35 -40 -35 -39 0
-40 1 -40 35 0 34 1 35 40 35 39 0 40 -1 40 -35z m-1742 -100 c20 -24 22 -37
22 -131 l0 -104 -35 0 c-26 0 -35 4 -35 17 0 14 -2 15 -17 1 -28 -25 -60 -30
-98 -18 -41 13 -55 35 -55 83 0 50 36 79 105 85 45 4 55 8 53 21 -4 22 -61 27
-78 7 -18 -23 -70 -21 -70 2 0 68 157 95 208 37z m247 -5 c0 -32 -3 -35 -38
-41 -20 -3 -41 -9 -45 -13 -4 -4 -9 -46 -11 -92 l-3 -84 -39 0 -39 0 0 130 0
130 40 0 c34 0 40 -3 40 -21 0 -20 1 -20 31 6 42 35 64 30 64 -15z m245 28
c14 0 35 3 48 7 19 6 22 4 22 -20 0 -18 -6 -28 -20 -32 -11 -3 -20 -13 -20
-23 0 -51 -42 -80 -114 -80 -75 0 -60 -16 27 -27 64 -9 85 -16 99 -33 34 -42
17 -93 -37 -116 -41 -17 -139 -18 -184 -3 -54 19 -66 80 -20 94 19 6 19 8 5
24 -21 23 -20 34 4 56 19 17 19 18 0 43 -52 65 14 129 120 116 25 -3 56 -6 70
-6z m297 -13 c27 -18 53 -71 53 -110 0 -25 0 -25 -90 -25 -53 0 -90 -4 -90
-10 0 -17 39 -50 60 -50 11 0 28 9 37 20 16 18 83 30 83 15 0 -26 -36 -65 -72
-79 -107 -43 -209 49 -178 162 23 87 122 126 197 77z m273 -15 c0 -39 -1 -40
-33 -40 -50 0 -57 -14 -57 -107 l0 -83 -40 0 -40 0 0 130 0 130 40 0 c31 0 40
-4 40 -17 0 -14 2 -15 18 -1 45 40 72 36 72 -12z m205 26 c31 -13 55 -41 55
-65 0 -18 -67 -13 -74 5 -8 21 -70 15 -74 -7 -2 -13 10 -20 49 -29 29 -7 63
-23 76 -36 67 -67 -29 -158 -131 -124 -36 12 -76 52 -76 76 0 21 54 17 75 -6
22 -24 73 -27 82 -4 7 20 -8 30 -57 38 -54 9 -90 40 -90 80 0 68 85 105 165
72z m475 -126 l0 -130 -40 0 -40 0 0 130 0 130 40 0 40 0 0 -130z m140 120 c0
-7 6 -7 19 0 35 18 88 12 118 -14 27 -23 28 -28 31 -130 l4 -106 -41 0 -41 0
0 88 c0 93 -8 112 -45 112 -37 0 -45 -19 -45 -112 l0 -88 -40 0 -40 0 0 130 0
130 40 0 c22 0 40 -5 40 -10z m40 -1059 c61 -32 107 -76 138 -136 l27 -50 0
-2365 0 -2365 -24 -45 c-32 -61 -76 -107 -136 -138 l-50 -27 -2365 0 -2365 0
-50 27 c-60 31 -104 77 -136 138 l-24 45 0 2365 0 2365 24 45 c41 79 108 135
191 161 14 4 1083 7 2375 6 l2350 -2 45 -24z m5400 0 c61 -32 107 -76 138
-136 l27 -50 0 -2365 0 -2365 -24 -45 c-32 -61 -76 -107 -136 -138 l-50 -27
-2365 0 -2365 0 -50 27 c-60 31 -104 77 -136 138 l-24 45 0 2365 0 2365 24 45
c41 79 108 135 191 161 14 4 1083 7 2375 6 l2350 -2 45 -24z m-5400 -5400 c61
-32 107 -76 138 -136 l27 -50 0 -2365 0 -2365 -24 -45 c-32 -61 -76 -107 -136
-138 l-50 -27 -2365 0 -2365 0 -50 27 c-60 31 -104 77 -136 138 l-24 45 0
2365 0 2365 24 45 c41 79 108 135 191 161 14 4 1083 7 2375 6 l2350 -2 45 -24z
m5400 0 c61 -32 107 -76 138 -136 l27 -50 0 -2365 0 -2365 -24 -45 c-32 -61
-76 -107 -136 -138 l-50 -27 -2365 0 -2365 0 -50 27 c-60 31 -104 77 -136 138
l-24 45 0 2365 0 2365 24 45 c41 79 108 135 191 161 14 4 1083 7 2375 6 l2350
-2 45 -24z m-5400 -5400 c61 -32 107 -76 138 -136 l27 -50 0 -2365 0 -2365
-24 -45 c-32 -61 -76 -107 -136 -138 l-50 -27 -2365 0 -2365 0 -50 27 c-60 31
-104 77 -136 138 l-24 45 0 2365 0 2365 24 45 c41 79 108 135 191 161 14 4
1083 7 2375 6 l2350 -2 45 -24z m5400 0 c61 -32 107 -76 138 -136 l27 -50 0
-2365 0 -2365 -24 -45 c-32 -61 -76 -107 -136 -138 l-50 -27 -2365 0 -2365 0
-50 27 c-60 31 -104 77 -136 138 l-24 45 0 2365 0 2365 24 45 c41 79 108 135
191 161 14 4 1083 7 2375 6 l2350 -2 45 -24z m-5260 -6301 l0 -30 150 0 150 0
0 30 c0 27 3 30 30 30 27 0 30 -3 30 -30 0 -27 3 -30 29 -30 58 0 61 -16 61
-300 0 -215 -2 -259 -16 -278 -15 -22 -17 -22 -284 -22 -267 0 -269 0 -284 22
-14 19 -16 63 -16 278 0 284 3 300 61 300 26 0 29 3 29 30 0 27 3 30 30 30 27
0 30 -3 30 -30z"/>
<path d="M920 20793 c0 -10 0 -132 0 -272 1 -227 3 -259 19 -295 15 -33 199
-266 257 -326 12 -12 14 4 14 122 l0 136 -45 22 c-144 70 -182 261 -75 383 22
24 58 52 80 61 l40 16 0 85 0 85 -145 0 c-131 0 -145 -2 -145 -17z"/>
<path d="M1317 20803 c-4 -3 -7 -41 -7 -84 l0 -77 53 -30 c165 -93 166 -330 0
-424 l-53 -30 0 -134 c0 -126 7 -155 27 -120 4 7 24 33 45 57 145 175 192 235
209 272 17 38 19 68 19 310 l0 267 -143 0 c-79 0 -147 -3 -150 -7z"/>
<path d="M1163 20503 c-45 -46 -53 -76 -41 -148 4 -28 17 -49 45 -75 l38 -35
3 78 c2 43 2 110 0 150 l-3 72 -42 -42z"/>
<path d="M1310 20396 c0 -80 4 -146 9 -146 18 0 59 41 75 74 34 71 10 163 -53
199 l-31 19 0 -146z"/>
<path d="M10000 20530 c-215 -74 -204 -382 16 -446 127 -37 252 34 290 162 36
125 -33 252 -158 289 -65 19 -81 19 -148 -5z m140 -55 c35 -18 60 -62 60 -104
0 -22 -13 -45 -45 -81 -25 -28 -45 -55 -45 -60 0 -6 -13 -10 -30 -10 -44 0
-39 29 15 90 25 28 45 55 45 61 0 14 -46 59 -61 59 -6 0 -24 -13 -39 -30 -17
-18 -38 -30 -54 -30 -30 0 -33 17 -11 60 29 55 105 76 165 45z m-30 -315 c0
-27 -3 -30 -30 -30 -27 0 -30 3 -30 30 0 27 3 30 30 30 27 0 30 -3 30 -30z"/>
<path d="M3059 20241 c-20 -16 -22 -23 -13 -38 14 -22 50 -29 70 -13 7 7 14
25 14 41 0 24 -4 29 -24 29 -13 0 -34 -9 -47 -19z"/>
<path d="M3557 20343 c-14 -13 -6 -43 14 -54 42 -22 88 18 57 49 -13 13 -60
16 -71 5z"/>
<path d="M3541 20141 c-38 -24 29 -56 92 -44 30 6 38 37 11 47 -23 9 -87 7
-103 -3z"/>
<path d="M3867 20322 c-26 -28 -21 -32 33 -32 34 0 50 4 50 13 0 37 -56 49
-83 19z"/>
<path d="M2561 17754 c-168 -45 -315 -201 -352 -374 -16 -77 -6 -223 20 -288
52 -130 166 -243 290 -288 29 -11 70 -41 114 -83 l67 -65 68 65 c43 42 84 72
113 83 126 46 239 160 294 296 22 57 31 208 16 280 -38 175 -185 330 -356 375
-73 19 -202 18 -274 -1z m204 -103 c95 -44 131 -141 85 -231 -31 -61 -73 -85
-150 -85 -52 0 -72 5 -98 23 -81 58 -95 178 -29 251 27 29 93 61 127 61 14 0
43 -9 65 -19z m28 -446 c130 -27 247 -100 247 -153 0 -19 -86 -107 -131 -135
-49 -30 -148 -57 -207 -57 -66 0 -150 22 -202 52 -50 30 -140 119 -140 140 0
28 58 85 113 112 54 25 169 54 222 55 17 0 60 -6 98 -14z"/>
<path d="M2200 16064 l0 -75 -22 15 c-26 18 -80 21 -110 5 -44 -24 -62 -131
-33 -194 29 -60 117 -76 160 -29 l25 27 0 -27 c0 -21 5 -26 25 -26 l25 0 0
190 0 190 -35 0 -35 0 0 -76z m-16 -110 c18 -18 22 -95 6 -125 -13 -24 -57
-25 -82 -2 -24 21 -25 99 -1 125 20 22 56 23 77 2z"/>
<path d="M1762 16073 c-11 -32 -40 -116 -66 -186 l-46 -128 37 3 c33 3 38 7
52 46 l15 42 67 0 67 0 14 -42 c13 -39 18 -43 51 -46 l37 -3 -51 143 c-28 79
-58 162 -66 186 -14 39 -17 42 -53 42 -37 0 -39 -1 -58 -57z m82 -80 c10 -32
21 -64 23 -70 4 -10 -9 -13 -47 -13 -38 0 -51 3 -47 13 2 6 13 38 23 70 10 31
21 57 24 57 3 0 14 -26 24 -57z"/>
<path d="M2610 16095 c0 -32 2 -35 30 -35 28 0 30 3 30 35 0 32 -2 35 -30 35
-28 0 -30 -3 -30 -35z"/>
<path d="M3010 16095 c0 -33 2 -35 35 -35 33 0 35 2 35 35 0 33 -2 35 -35 35
-33 0 -35 -2 -35 -35z"/>
<path d="M3682 16015 c-24 -10 -39 -12 -52 -5 -28 15 -107 12 -139 -5 -46 -24
-54 -65 -19 -102 l22 -23 -22 -16 c-26 -18 -28 -31 -6 -55 14 -16 14 -18 -5
-24 -22 -7 -35 -34 -26 -58 17 -42 183 -58 238 -23 46 31 48 94 4 118 -12 6
-53 14 -92 17 -38 3 -70 11 -70 16 0 6 26 13 57 16 75 8 108 30 108 70 0 22 5
32 20 36 13 3 20 14 20 29 0 13 -1 24 -2 24 -2 -1 -18 -7 -36 -15z m-78 -41
c30 -30 12 -64 -34 -64 -28 0 -50 16 -50 36 0 19 29 44 50 44 10 0 26 -7 34
-16z m34 -218 c5 -25 -14 -36 -64 -36 -48 0 -80 20 -71 44 10 26 130 19 135
-8z"/>
<path d="M2322 16008 c3 -7 24 -66 49 -130 40 -108 46 -118 69 -118 23 0 29
10 70 118 24 64 46 123 48 130 3 8 -6 12 -26 12 -28 0 -32 -5 -51 -55 -11 -30
-23 -66 -27 -80 -8 -32 -20 -32 -28 0 -4 14 -16 50 -27 80 -19 50 -23 55 -51
55 -20 0 -29 -4 -26 -12z"/>
<path d="M2610 15890 l0 -130 30 0 30 0 0 130 0 130 -30 0 -30 0 0 -130z"/>
<path d="M2782 16010 c-28 -12 -46 -51 -38 -84 7 -28 42 -50 97 -60 44 -8 68
-31 51 -48 -17 -17 -69 -14 -90 5 -10 10 -30 17 -44 17 -22 0 -25 -4 -21 -21
13 -48 115 -76 176 -48 35 16 51 55 37 89 -12 30 -38 45 -94 55 -48 10 -67 32
-41 51 24 18 36 18 61 -1 25 -19 74 -20 74 -1 0 8 -12 24 -26 35 -29 23 -99
28 -142 11z"/>
<path d="M3010 15890 l0 -130 35 0 35 0 0 130 0 130 -35 0 -35 0 0 -130z"/>
<path d="M3150 15890 l0 -130 35 0 35 0 0 89 c0 82 2 91 22 105 29 20 34 20
58 -4 17 -17 20 -33 20 -105 l0 -85 36 0 36 0 -4 104 c-2 85 -6 108 -22 125
-26 29 -77 36 -115 17 -27 -15 -31 -15 -31 -1 0 11 -10 15 -35 15 l-35 0 0
-130z"/>
<path d="M8330 17720 l0 -110 -140 0 -140 0 0 -24 c0 -13 3 -38 6 -55 l7 -31
268 0 269 0 -5 -37 c-5 -35 -75 -732 -75 -746 0 -4 -18 -7 -40 -7 l-40 0 0
-55 0 -55 65 0 c85 0 110 23 120 108 26 232 90 893 86 897 -2 3 -64 5 -138 5
l-133 0 0 110 0 110 -55 0 -55 0 0 -110z"/>
<path d="M7768 17364 c-97 -23 -178 -73 -228 -141 -25 -34 -60 -127 -60 -160
0 -11 79 -13 421 -13 l422 0 -6 45 c-9 61 -48 135 -92 173 -109 97 -295 136
-457 96z m261 -111 c55 -15 141 -66 141 -83 0 -6 -106 -10 -272 -10 l-272 0
28 29 c36 37 110 70 184 80 67 9 117 5 191 -16z"/>
<path d="M7480 16875 l0 -55 420 0 420 0 0 55 0 55 -420 0 -420 0 0 -55z"/>
<path d="M7480 16675 c0 -22 8 -43 20 -55 19 -19 33 -20 401 -20 243 0 387 4
400 10 14 8 19 21 19 55 l0 45 -420 0 -420 0 0 -35z"/>
<path d="M6270 15946 l0 -186 35 0 35 0 1 138 1 137 45 -137 c43 -133 45 -138
72 -138 26 0 29 5 72 138 l44 137 3 -137 3 -138 34 0 35 0 0 185 0 185 -52 0
-53 0 -32 -104 c-57 -183 -49 -180 -97 -31 l-42 130 -52 3 -52 3 0 -185z"/>
<path d="M7620 15945 l0 -185 88 0 c144 0 192 24 192 98 0 43 -14 68 -48 86
-15 9 -21 15 -14 16 24 0 52 40 52 73 0 72 -48 97 -187 97 l-83 0 0 -185z
m188 113 c7 -7 12 -21 12 -33 0 -33 -20 -45 -77 -45 l-53 0 0 45 0 45 53 0
c29 0 58 -5 65 -12z m4 -155 c45 -40 10 -83 -68 -83 l-54 0 0 50 0 50 52 0
c34 0 58 -6 70 -17z"/>
<path d="M8940 16107 c-54 -36 -75 -81 -75 -162 0 -81 21 -126 76 -163 29 -20
44 -23 97 -20 53 3 67 8 92 33 16 17 32 45 36 63 6 31 5 32 -27 32 -27 0 -37
-6 -51 -30 -21 -37 -54 -51 -92 -37 -78 27 -74 237 6 249 36 6 74 -10 88 -37
17 -32 80 -37 80 -6 0 25 -35 68 -70 86 -44 23 -121 19 -160 -8z"/>
<path d="M9565 16105 c-16 -15 -25 -36 -25 -55 0 -25 -4 -30 -25 -30 -20 0
-25 -5 -25 -25 0 -20 5 -25 25 -25 l25 0 0 -105 0 -105 35 0 35 0 0 105 0 105
30 0 c25 0 30 4 30 25 0 21 -5 25 -30 25 -19 0 -30 5 -30 14 0 30 13 46 36 46
19 0 24 5 24 25 0 23 -4 25 -40 25 -30 0 -47 -7 -65 -25z"/>
<path d="M8294 16060 c-6 -34 -10 -40 -30 -40 -19 0 -24 -5 -24 -25 0 -18 5
-25 20 -25 18 0 20 -7 20 -85 0 -104 14 -125 85 -125 41 0 45 2 45 24 0 19 -6
25 -27 28 -28 3 -28 4 -31 81 l-3 77 31 0 c25 0 30 4 30 25 0 21 -5 25 -30 25
-28 0 -30 2 -30 40 0 36 -3 40 -25 40 -21 0 -26 -6 -31 -40z"/>
<path d="M7242 16015 c-24 -10 -39 -12 -52 -5 -28 15 -107 12 -139 -5 -46 -24
-54 -65 -19 -102 l22 -23 -22 -16 c-26 -18 -28 -31 -6 -55 14 -16 14 -18 -5
-24 -22 -7 -35 -34 -26 -58 17 -42 183 -58 238 -23 46 31 48 94 4 118 -12 6
-53 14 -92 17 -38 3 -70 11 -70 16 0 6 26 13 57 16 75 8 108 30 108 70 0 22 5
32 20 36 13 3 20 14 20 29 0 13 -1 24 -2 24 -2 -1 -18 -7 -36 -15z m-78 -41
c30 -30 12 -64 -34 -64 -28 0 -50 16 -50 36 0 19 29 44 50 44 10 0 26 -7 34
-16z m34 -218 c5 -25 -14 -36 -64 -36 -48 0 -80 20 -71 44 10 26 130 19 135
-8z"/>
<path d="M6768 16004 c-78 -42 -77 -188 2 -229 43 -22 101 -19 141 8 45 30 51
57 11 57 -16 0 -35 -7 -42 -15 -28 -34 -100 -8 -100 36 0 17 8 19 89 19 l88 0
-7 38 c-4 20 -11 45 -15 55 -18 43 -113 61 -167 31z m112 -53 c15 -30 14 -31
-45 -31 -38 0 -55 4 -55 13 0 39 81 53 100 18z"/>
<path d="M7356 15999 c-14 -11 -26 -27 -26 -35 0 -19 45 -18 76 2 20 14 30 15
49 6 42 -19 30 -39 -25 -46 -28 -4 -62 -12 -75 -18 -49 -22 -56 -102 -12 -133
31 -22 93 -19 117 5 11 11 22 20 25 20 3 0 5 -9 5 -20 0 -16 7 -20 30 -20 l30
0 0 105 c0 99 -2 107 -25 130 -33 34 -128 36 -169 4z m124 -139 c0 -40 -40
-68 -75 -52 -50 23 -20 82 41 82 31 0 34 -3 34 -30z"/>
<path d="M7940 16016 c0 -2 23 -59 51 -127 l51 -123 -22 -18 c-12 -10 -33 -18
-46 -18 -28 0 -34 -34 -8 -44 69 -26 108 14 178 183 31 74 56 138 56 143 0 5
-15 8 -32 6 -31 -3 -35 -7 -62 -80 -16 -43 -32 -78 -35 -78 -4 0 -19 36 -35
80 -28 79 -29 80 -62 80 -19 0 -34 -2 -34 -4z"/>
<path d="M8509 16005 c-53 -29 -74 -116 -43 -181 21 -43 59 -64 120 -64 40 0
51 5 83 38 l36 37 -33 3 c-21 2 -41 -3 -51 -12 -25 -23 -67 -20 -85 6 -30 43
-22 48 74 48 65 0 90 3 90 13 0 35 -24 88 -47 107 -31 24 -104 27 -144 5z
m109 -47 c26 -26 13 -38 -43 -38 -59 0 -60 1 -45 31 12 22 68 27 88 7z"/>
<path d="M9273 16010 c-19 -8 -43 -38 -43 -54 0 -12 48 -6 76 9 37 19 49 19
68 -1 26 -25 19 -31 -45 -38 -74 -9 -109 -37 -109 -89 0 -46 34 -77 85 -77 26
0 46 7 62 22 l23 21 0 -21 c0 -18 6 -22 30 -22 l30 0 0 108 c0 59 -4 112 -8
118 -21 32 -116 45 -169 24z m117 -145 c0 -27 -35 -65 -60 -65 -38 0 -56 60
-22 79 9 6 32 11 50 11 27 0 32 -3 32 -25z"/>
<path d="M9751 15994 c-63 -52 -63 -156 0 -208 54 -46 161 -29 188 31 10 21 8
23 -20 23 -17 0 -37 -7 -46 -16 -23 -23 -75 -14 -90 15 -6 14 -10 29 -7 33 3
4 43 8 90 8 83 0 84 0 84 25 0 34 -24 80 -52 99 -36 26 -111 21 -147 -10z
m123 -46 c15 -24 5 -30 -53 -26 l-52 3 17 23 c19 27 71 27 88 0z"/>
<path d="M2635 12136 c-33 -14 -80 -65 -89 -93 -8 -29 -26 -135 -26 -155 0
-11 11 -30 25 -43 23 -24 30 -25 150 -25 180 0 193 11 174 141 -12 84 -34 127
-81 162 -34 25 -113 32 -153 13z m99 -109 c9 -7 20 -32 23 -55 l6 -42 -63 0
-63 0 6 42 c6 43 27 68 57 68 9 0 24 -6 34 -13z"/>
<path d="M2257 12034 c-3 -4 -21 -8 -39 -9 -18 -2 -39 -3 -45 -4 -7 -1 -24
-19 -38 -41 -21 -34 -24 -49 -22 -110 4 -99 12 -105 136 -105 84 0 102 3 121
20 19 17 21 27 16 85 -3 36 -5 74 -6 85 -1 27 -17 43 -66 65 -48 22 -48 22
-57 14z"/>
<path d="M3013 11994 c-3 -9 5 -26 20 -42 19 -20 24 -31 17 -42 -35 -55 28
-150 100 -150 34 0 78 28 95 60 32 62 11 146 -45 175 -41 21 -178 21 -187 -1z"/>
<path d="M2550 11750 c-135 -37 -180 -86 -183 -203 l-2 -62 338 -3 337 -2 0
34 c0 71 -21 136 -54 170 -74 74 -287 106 -436 66z m292 -109 c20 -6 47 -20
60 -31 23 -19 22 -19 -199 -20 -123 0 -223 2 -223 5 0 10 52 38 97 51 55 15
207 13 265 -5z"/>
<path d="M2148 11686 c-94 -25 -118 -57 -118 -152 l0 -54 124 0 125 0 4 83 c2
45 8 94 12 110 l7 27 -53 -1 c-30 0 -75 -6 -101 -13z"/>
<path d="M3104 11674 c4 -16 10 -66 13 -111 l5 -83 124 0 124 0 0 58 c0 31 -6
68 -13 82 -19 39 -94 71 -183 77 l-77 6 7 -29z"/>
<path d="M1400 10712 c-108 -54 -108 -275 0 -333 78 -42 186 -14 216 56 20 49
18 55 -20 55 -28 0 -38 -6 -55 -35 -18 -30 -25 -35 -59 -35 -49 0 -71 23 -83
85 -17 93 20 169 81 167 34 -1 70 -26 70 -49 0 -9 13 -13 41 -13 37 0 40 2 33
23 -27 86 -135 124 -224 79z"/>
<path d="M3510 10695 c0 -32 2 -35 30 -35 28 0 30 3 30 35 0 32 -2 35 -30 35
-28 0 -30 -3 -30 -35z"/>
<path d="M3686 10688 c-3 -7 -7 -25 -10 -40 -5 -21 -12 -28 -31 -28 -20 0 -25
-5 -25 -25 0 -20 5 -25 25 -25 25 0 25 -1 25 -88 0 -106 11 -122 83 -122 43 0
47 2 47 25 0 21 -5 25 -30 25 l-30 0 0 80 0 80 30 0 c25 0 30 4 30 25 0 21 -5
25 -30 25 -28 0 -30 2 -30 40 0 36 -2 40 -25 40 -14 0 -27 -6 -29 -12z"/>
<path d="M1734 10601 c-54 -33 -71 -128 -34 -189 47 -76 182 -68 216 13 29 69
8 152 -45 179 -41 21 -99 20 -137 -3z m110 -53 c35 -49 9 -138 -39 -138 -31 0
-55 35 -55 80 0 45 24 80 55 80 13 0 31 -10 39 -22z"/>
<path d="M1980 10490 l0 -130 35 0 35 0 0 81 c0 44 4 88 10 98 13 25 37 33 61
21 17 -9 19 -22 19 -105 l0 -95 35 0 35 0 0 85 c0 72 3 88 20 105 11 11 25 20
30 20 6 0 19 -9 30 -20 17 -17 20 -33 20 -105 l0 -85 35 0 35 0 0 89 c0 97
-12 146 -40 161 -31 17 -85 12 -105 -10 -17 -19 -18 -19 -43 0 -29 24 -80 26
-108 5 -25 -19 -34 -19 -34 0 0 10 -11 15 -35 15 l-35 0 0 -130z"/>
<path d="M2440 10490 l0 -130 35 0 35 0 0 90 c0 84 2 91 24 105 19 13 29 14
45 5 19 -10 21 -20 21 -105 l0 -95 35 0 35 0 0 90 c0 84 2 91 24 105 19 13 29
14 45 5 19 -10 21 -20 21 -105 l0 -95 35 0 35 0 0 108 c0 100 -2 110 -23 130
-28 26 -77 29 -112 6 -22 -14 -26 -14 -47 0 -28 20 -92 21 -108 1 -7 -8 -16
-15 -21 -15 -5 0 -9 7 -9 15 0 10 -11 15 -35 15 l-35 0 0 -130z"/>
<path d="M2900 10511 c0 -106 1 -110 26 -130 35 -28 97 -28 124 -1 11 11 22
20 25 20 3 0 5 -9 5 -20 0 -15 7 -20 25 -20 l25 0 0 130 0 130 -35 0 -35 0 0
-99 c0 -92 -2 -100 -21 -106 -11 -4 -31 -4 -45 -1 -23 6 -24 9 -24 106 l0 100
-35 0 -35 0 0 -109z"/>
<path d="M3200 10490 l0 -130 35 0 35 0 0 83 c0 104 22 137 78 116 21 -8 22
-14 22 -104 l0 -95 35 0 35 0 0 99 c0 116 -3 127 -41 146 -35 19 -57 19 -93 0
-35 -18 -36 -18 -36 0 0 10 -11 15 -35 15 l-35 0 0 -130z"/>
<path d="M3510 10490 l0 -130 30 0 30 0 0 130 0 130 -30 0 -30 0 0 -130z"/>
<path d="M3849 10573 c11 -27 33 -81 50 -122 17 -41 29 -82 26 -92 -4 -11 -20
-21 -41 -25 -28 -5 -35 -10 -32 -28 7 -46 97 -26 125 28 9 17 40 89 69 159
l53 128 -36 -3 c-35 -3 -37 -5 -66 -81 -16 -43 -33 -75 -37 -70 -4 4 -20 41
-35 81 -26 70 -28 72 -61 72 l-34 0 19 -47z"/>
<path d="M7763 12262 l-163 -57 0 -442 c0 -271 4 -444 10 -448 5 -3 79 21 165
54 l156 60 170 -59 170 -59 164 57 165 56 0 443 c0 271 -4 444 -10 448 -5 3
-80 -21 -166 -55 l-156 -60 -170 60 c-93 33 -170 60 -171 59 -1 0 -75 -26
-164 -57z m117 -411 l0 -328 -83 -32 c-46 -17 -86 -31 -90 -31 -4 0 -6 150 -5
332 l3 332 70 28 c116 45 105 76 105 -301z m230 290 l105 -38 3 -326 c2 -259
0 -327 -10 -326 -7 0 -60 17 -118 37 l-105 38 -3 327 c-2 258 0 327 10 326 7
0 60 -17 118 -38z m388 -312 l-3 -324 -57 -23 c-32 -12 -71 -25 -88 -28 l-30
-6 0 329 0 330 83 31 c45 16 85 27 90 23 4 -4 6 -153 5 -332z"/>
<path d="M6620 10712 c-108 -54 -108 -275 0 -333 78 -42 186 -14 216 56 20 49
18 55 -20 55 -28 0 -38 -6 -55 -35 -18 -30 -25 -35 -59 -35 -49 0 -71 23 -83
85 -17 93 20 169 81 167 34 -1 70 -26 70 -49 0 -9 13 -13 41 -13 37 0 40 2 33
23 -27 86 -135 124 -224 79z"/>
<path d="M8650 10545 l0 -185 35 0 34 0 3 138 3 137 44 -137 c43 -133 46 -138
72 -138 27 0 29 5 72 138 l45 137 1 -137 1 -138 35 0 35 0 0 186 0 185 -52 -3
-52 -3 -42 -130 c-47 -149 -40 -151 -95 29 l-32 106 -54 0 -53 0 0 -185z"/>
<path d="M6936 10599 c-14 -11 -26 -27 -26 -35 0 -19 45 -18 76 2 20 14 30 15
49 6 42 -19 30 -39 -25 -46 -28 -4 -62 -12 -75 -18 -49 -22 -56 -102 -12 -133
31 -22 93 -19 117 5 11 11 22 20 25 20 3 0 5 -9 5 -20 0 -16 7 -20 30 -20 l30
0 0 105 c0 99 -2 107 -25 130 -33 34 -128 36 -169 4z m124 -139 c0 -40 -40
-68 -75 -52 -50 23 -20 82 41 82 31 0 34 -3 34 -30z"/>
<path d="M7190 10490 l0 -130 35 0 35 0 0 90 c0 84 2 91 24 105 19 13 29 14
45 5 19 -10 21 -20 21 -105 l0 -95 35 0 35 0 0 90 c0 84 2 91 24 105 19 13 29
14 45 5 19 -10 21 -20 21 -105 l0 -95 35 0 35 0 0 108 c0 100 -2 110 -23 130
-28 26 -77 29 -112 6 -22 -14 -26 -14 -47 0 -28 20 -92 21 -108 1 -7 -8 -16
-15 -21 -15 -5 0 -9 7 -9 15 0 10 -11 15 -35 15 l-35 0 0 -130z"/>
<path d="M7650 10450 l0 -170 35 0 35 0 0 60 0 61 22 -21 c24 -22 77 -27 109
-10 35 19 51 67 47 138 -4 55 -8 68 -32 88 -32 28 -85 32 -121 8 -23 -15 -25
-15 -25 0 0 12 -9 16 -35 16 l-35 0 0 -170z m175 90 c18 -35 19 -64 4 -93 -36
-68 -109 -39 -109 43 0 48 24 80 60 80 23 0 33 -7 45 -30z"/>
<path d="M7950 10519 c0 -98 1 -101 29 -130 37 -37 99 -41 132 -8 l20 20 6
-20 c3 -14 13 -21 29 -21 l24 0 0 130 0 130 -35 0 -35 0 0 -93 c0 -101 -7
-117 -52 -117 -38 0 -48 25 -48 124 l0 86 -35 0 -35 0 0 -101z"/>
<path d="M8286 10598 c-34 -29 -38 -71 -10 -98 11 -10 44 -25 74 -32 64 -16
78 -42 34 -58 -23 -9 -33 -7 -55 10 -33 23 -79 27 -79 6 0 -8 14 -26 31 -40
24 -21 41 -26 83 -26 69 0 106 26 106 75 0 24 -7 39 -26 54 -15 12 -32 21 -38
21 -6 0 -28 5 -48 11 -27 7 -38 16 -38 28 0 26 46 36 76 16 25 -16 74 -21 74
-6 0 5 -8 19 -19 32 -14 18 -31 23 -78 27 -52 4 -63 1 -87 -20z"/>
<path d="M9160 10613 c-24 -9 -50 -35 -50 -50 0 -18 45 -17 76 3 20 14 30 15
49 6 43 -20 30 -39 -29 -47 -74 -9 -106 -35 -106 -86 0 -52 27 -79 79 -79 24
0 48 8 65 21 l26 20 0 -20 c0 -17 6 -21 30 -21 l30 0 0 109 c0 106 -1 110 -26
130 -20 15 -40 21 -78 20 -28 0 -58 -3 -66 -6z m100 -153 c0 -55 -79 -79 -95
-29 -10 30 21 59 62 59 30 0 33 -3 33 -30z"/>
<path d="M9400 10450 l0 -170 35 0 35 0 0 56 c0 55 0 55 22 40 51 -36 125 -10
149 51 22 60 1 161 -39 182 -30 16 -84 13 -110 -5 -20 -14 -22 -14 -22 0 0 12
-10 16 -35 16 l-35 0 0 -170z m162 103 c24 -21 25 -99 1 -125 -39 -44 -93 -6
-93 66 0 66 49 98 92 59z"/>
<path d="M2546 6948 c-12 -17 -16 -49 -16 -130 0 -60 -2 -108 -4 -108 -3 0
-43 22 -89 49 -97 56 -118 64 -140 55 -9 -3 -47 -58 -83 -121 -58 -100 -65
-117 -56 -138 7 -14 51 -47 107 -80 52 -31 95 -58 95 -60 0 -2 -43 -29 -95
-60 -56 -33 -100 -66 -107 -80 -9 -21 -2 -38 56 -138 36 -63 74 -118 83 -121
22 -9 43 -1 140 55 46 27 86 49 89 49 2 0 4 -48 4 -108 0 -156 -4 -152 170
-152 174 0 170 -4 170 152 0 60 2 108 4 108 3 0 48 -25 101 -56 70 -40 103
-54 120 -50 17 4 42 38 91 122 58 101 65 118 56 139 -7 14 -51 47 -107 80 -52
31 -95 58 -95 60 0 2 43 29 95 60 56 33 100 66 107 80 9 21 2 38 -56 139 -37
63 -75 118 -85 121 -24 7 -39 1 -139 -57 -46 -26 -85 -48 -88 -48 -2 0 -4 48
-4 108 0 156 4 152 -170 152 -132 0 -140 -1 -154 -22z m214 -243 c0 -159 1
-165 20 -165 11 0 79 34 151 76 72 42 132 74 133 72 2 -1 15 -24 30 -50 l27
-47 -128 -75 c-70 -41 -133 -79 -140 -85 -18 -17 -7 -33 40 -60 23 -13 84 -48
135 -78 l93 -54 -27 -47 c-15 -26 -28 -49 -30 -50 -1 -2 -61 30 -133 72 -72
42 -140 76 -151 76 -19 0 -20 -6 -20 -165 l0 -165 -60 0 -60 0 0 165 c0 159
-1 165 -20 165 -11 0 -79 -34 -151 -76 -72 -42 -132 -74 -133 -72 -2 1 -15 24
-30 50 l-27 47 93 54 c51 30 112 65 135 78 47 27 58 43 40 60 -7 6 -70 44
-140 85 l-128 75 27 47 c15 26 28 49 30 50 1 2 61 -30 133 -72 72 -42 140 -76
151 -76 19 0 20 6 20 165 l0 165 60 0 60 0 0 -165z"/>
<path d="M210 5145 l0 -185 125 0 125 0 0 30 0 30 -90 0 -90 0 0 50 0 50 75 0
75 0 0 30 0 30 -75 0 -75 0 0 45 0 45 90 0 90 0 0 30 0 30 -125 0 -125 0 0
-185z"/>
<path d="M3130 5311 c-106 -56 -106 -259 -1 -328 45 -30 122 -31 169 -3 29 18
62 71 62 100 0 18 -70 12 -77 -7 -12 -36 -36 -53 -73 -53 -60 0 -75 26 -75
126 0 71 3 86 21 104 33 33 82 30 114 -8 20 -24 35 -32 58 -32 36 0 39 8 17
51 -34 66 -140 91 -215 50z"/>
<path d="M4056 5288 c-3 -7 -7 -25 -10 -40 -5 -21 -12 -28 -31 -28 -20 0 -25
-5 -25 -25 0 -20 5 -25 25 -25 25 0 25 -1 25 -88 0 -106 11 -122 83 -122 43 0
47 2 47 25 0 21 -5 25 -30 25 l-30 0 0 80 0 80 30 0 c25 0 30 4 30 25 0 21 -5
25 -30 25 -28 0 -30 2 -30 40 0 36 -2 40 -25 40 -14 0 -27 -6 -29 -12z"/>
<path d="M4826 5288 c-3 -7 -7 -25 -10 -40 -5 -21 -12 -28 -31 -28 -20 0 -25
-5 -25 -25 0 -20 5 -25 25 -25 25 0 25 -1 25 -88 0 -107 11 -122 84 -122 43 0
47 2 44 23 -2 16 -11 23 -30 25 -28 3 -28 4 -28 83 l0 79 30 0 c25 0 30 4 30
25 0 21 -5 25 -30 25 -28 0 -30 2 -30 40 0 36 -2 40 -25 40 -14 0 -27 -6 -29
-12z"/>
<path d="M1705 5215 c-21 -9 -36 -10 -49 -3 -29 16 -132 5 -156 -17 -26 -23
-26 -69 0 -95 24 -24 25 -30 5 -30 -24 0 -36 -34 -21 -56 12 -16 12 -20 -5
-32 -26 -18 -24 -58 4 -76 32 -21 124 -30 173 -17 49 13 77 41 77 77 0 45 -32
65 -113 72 -92 9 -104 28 -21 34 71 5 111 34 111 80 0 21 5 28 20 28 15 0 20
7 20 25 0 28 -3 29 -45 10z m-84 -35 c28 -16 25 -58 -5 -66 -38 -9 -66 4 -66
31 0 13 8 29 18 34 22 13 29 13 53 1z m39 -215 c21 -25 -5 -45 -61 -45 -55 0
-88 22 -68 46 16 20 113 19 129 -1z"/>
<path d="M520 5090 l0 -130 35 0 35 0 0 88 c0 48 4 93 9 101 5 7 21 14 36 14
15 0 31 -7 36 -14 5 -8 9 -53 9 -101 l0 -88 35 0 35 0 0 88 c0 94 4 106 36
116 41 13 54 -16 54 -115 l0 -89 35 0 35 0 0 105 c0 99 -2 107 -25 130 -29 30
-83 33 -115 7 -23 -18 -24 -18 -42 0 -22 22 -85 24 -116 2 -20 -14 -22 -14
-22 0 0 12 -10 16 -35 16 l-35 0 0 -130z"/>
<path d="M1022 5204 c-33 -23 -52 -67 -52 -123 0 -72 36 -112 106 -118 35 -4
60 0 82 11 27 14 52 43 52 60 0 13 -58 5 -70 -9 -18 -22 -77 -19 -90 4 -24 45
-16 51 75 51 l85 0 0 36 c0 28 -8 44 -34 70 -29 29 -41 34 -83 34 -28 0 -58
-7 -71 -16z m104 -42 c6 -4 13 -15 17 -24 6 -16 0 -18 -48 -18 -56 0 -69 12
-43 38 13 13 57 16 74 4z"/>
<path d="M1270 5090 l0 -130 35 0 35 0 0 80 c0 89 17 120 65 120 21 0 25 5 25
30 0 39 -31 41 -65 4 l-25 -27 0 27 c0 23 -4 26 -35 26 l-35 0 0 -130z"/>
<path d="M1838 5204 c-78 -42 -77 -188 2 -229 43 -22 101 -19 141 8 45 30 51
57 11 57 -16 0 -35 -7 -42 -15 -28 -34 -100 -8 -100 36 0 17 8 19 89 19 l88 0
-7 38 c-4 20 -11 45 -15 55 -18 43 -113 61 -167 31z m112 -53 c15 -30 14 -31
-45 -31 -38 0 -55 4 -55 13 0 39 81 53 100 18z"/>
<path d="M2080 5090 l0 -130 35 0 35 0 0 83 c0 104 22 137 78 116 21 -8 22
-14 22 -104 l0 -95 35 0 35 0 0 99 c0 116 -3 127 -41 146 -35 19 -57 19 -93 0
-35 -18 -36 -18 -36 0 0 10 -11 15 -35 15 l-35 0 0 -130z"/>
<path d="M2421 5194 c-89 -75 -41 -234 70 -234 51 0 92 21 107 55 16 35 16 35
-18 35 -19 0 -33 -7 -40 -20 -15 -28 -64 -27 -84 2 -36 51 -8 138 44 138 11 0
28 -9 37 -20 10 -11 30 -20 45 -20 26 0 26 1 16 30 -21 62 -121 81 -177 34z"/>
<path d="M2643 5203 c2 -10 25 -67 50 -126 46 -107 46 -108 27 -127 -11 -11
-32 -20 -46 -20 -21 0 -25 -4 -22 -22 3 -20 9 -23 47 -22 34 1 49 7 66 26 17
20 83 168 131 293 5 12 -2 15 -29 15 -35 0 -35 -1 -63 -80 -16 -44 -32 -80
-35 -80 -4 0 -20 36 -35 80 -28 79 -29 80 -62 80 -28 0 -33 -3 -29 -17z"/>
<path d="M3472 5207 c-76 -43 -81 -183 -8 -228 38 -23 113 -25 144 -3 32 22
52 67 52 114 0 47 -20 92 -52 114 -27 19 -104 20 -136 3z m100 -54 c24 -21 25
-99 1 -125 -38 -42 -93 -6 -93 62 0 68 49 102 92 63z"/>
<path d="M3720 5090 l0 -130 35 0 35 0 0 89 c0 82 2 91 22 105 29 20 34 20 58
-4 17 -17 20 -33 20 -105 l0 -85 36 0 36 0 -4 104 c-2 85 -6 108 -22 125 -26
29 -77 36 -115 17 -27 -15 -31 -15 -31 -1 0 11 -10 15 -35 15 l-35 0 0 -130z"/>
<path d="M4256 5199 c-14 -11 -26 -27 -26 -35 0 -19 45 -18 76 2 20 14 30 15
49 6 42 -19 30 -39 -25 -46 -28 -4 -62 -12 -75 -18 -49 -22 -56 -102 -12 -133
31 -22 93 -19 117 5 11 11 22 20 25 20 3 0 5 -9 5 -20 0 -16 7 -20 30 -20 l30
0 0 105 c0 99 -2 107 -25 130 -33 34 -128 36 -169 4z m124 -139 c0 -40 -40
-68 -75 -52 -50 23 -20 82 41 82 31 0 34 -3 34 -30z"/>
<path d="M4554 5201 c-75 -45 -71 -186 6 -226 49 -25 107 -20 141 14 16 16 29
37 29 45 0 24 -52 21 -68 -4 -24 -39 -90 -16 -94 33 -4 68 17 107 58 107 13 0
29 -9 36 -20 16 -25 68 -28 68 -4 0 8 -13 29 -29 45 -36 35 -98 40 -147 10z"/>
<path d="M5032 5210 c-28 -12 -46 -51 -38 -84 7 -28 42 -50 97 -60 44 -8 68
-31 51 -48 -17 -17 -69 -14 -90 5 -10 10 -30 17 -44 17 -22 0 -25 -4 -21 -21
13 -48 115 -76 176 -48 35 16 51 55 37 89 -12 30 -38 45 -94 55 -48 10 -67 32
-41 51 24 18 36 18 61 -1 25 -19 74 -20 74 -1 0 8 -12 24 -26 35 -29 23 -99
28 -142 11z"/>
<path d="M7810 6762 c-157 -87 -293 -162 -304 -168 -16 -10 -4 -19 90 -71
l109 -60 5 -171 5 -172 192 -104 193 -105 195 106 195 106 0 168 0 169 53 30
c28 16 55 30 60 30 4 0 7 -85 7 -190 l0 -190 55 0 55 0 -2 222 -3 222 -300
164 c-165 90 -304 165 -310 167 -5 2 -138 -67 -295 -153z m485 -73 c102 -56
182 -105 178 -110 -17 -16 -360 -199 -374 -199 -17 0 -371 193 -373 203 -1 8
352 205 371 206 6 1 95 -45 198 -100z m-272 -399 l77 -42 78 42 c42 24 105 58
140 77 l62 35 0 -109 0 -108 -132 -70 c-73 -38 -139 -70 -148 -70 -9 0 -75 32
-148 70 l-132 70 0 108 0 109 63 -35 c34 -19 97 -53 140 -77z"/>
<path d="M8130 5150 l0 -190 25 0 c18 0 25 5 25 18 0 31 11 33 32 7 15 -19 29
-25 59 -25 81 0 114 45 107 148 -4 55 -8 68 -32 88 -32 28 -90 32 -124 8 l-22
-15 0 75 0 76 -35 0 -35 0 0 -190z m158 11 c31 -19 31 -123 0 -142 -43 -28
-88 9 -88 71 0 62 45 99 88 71z"/>
<path d="M7560 5145 l0 -185 115 0 115 0 0 30 0 30 -80 0 -80 0 0 155 0 155
-35 0 -35 0 0 -185z"/>
<path d="M7883 5210 c-19 -8 -43 -38 -43 -54 0 -12 48 -6 76 9 37 19 49 19 68
-1 26 -25 19 -31 -45 -38 -74 -9 -109 -37 -109 -89 0 -46 34 -77 85 -77 26 0
46 7 62 22 l23 21 0 -21 c0 -18 6 -22 30 -22 l30 0 0 108 c0 59 -4 112 -8 118
-21 32 -116 45 -169 24z m117 -145 c0 -27 -35 -65 -60 -65 -38 0 -56 60 -22
79 9 6 32 11 50 11 27 0 32 -3 32 -25z"/>
<path d="M8466 5198 c-34 -29 -38 -71 -10 -98 11 -10 44 -25 74 -32 64 -16 78
-42 34 -58 -23 -9 -33 -7 -55 10 -33 23 -79 27 -79 6 0 -8 14 -26 31 -40 24
-21 41 -26 83 -26 69 0 106 26 106 75 0 24 -7 39 -26 54 -15 12 -32 21 -38 21
-6 0 -28 5 -48 11 -27 7 -38 16 -38 28 0 26 46 36 76 16 25 -16 74 -21 74 -6
0 5 -8 19 -19 32 -14 18 -31 23 -78 27 -52 4 -63 1 -87 -20z"/>
<path d="M5160 1845 l0 -195 240 0 240 0 0 195 0 195 -240 0 -240 0 0 -195z"/>
<path d="M2830 1487 c-52 -27 -62 -104 -19 -143 30 -27 93 -25 121 4 30 29 31
94 3 122 -26 26 -74 34 -105 17z"/>
<path d="M7475 1491 c-88 -23 -159 -81 -202 -165 -38 -73 -38 -179 0 -252 33
-65 76 -108 141 -141 73 -38 179 -38 252 0 65 33 108 76 141 141 22 42 27 64
27 126 0 85 -27 152 -85 209 -66 67 -191 104 -274 82z m95 -171 c0 -27 -3 -30
-30 -30 -27 0 -30 3 -30 30 0 27 3 30 30 30 27 0 30 -3 30 -30z m0 -180 l0
-90 -30 0 -30 0 0 90 0 90 30 0 30 0 0 -90z"/>
<path d="M2600 1156 l0 -166 35 0 c48 0 134 -31 189 -69 l46 -32 46 32 c55 38
141 69 189 69 l35 0 0 166 0 166 -42 -7 c-70 -11 -134 -34 -177 -66 -23 -16
-45 -29 -51 -29 -6 0 -28 13 -51 29 -43 32 -107 55 -176 66 l-43 7 0 -166z"/>
<path d="M2680 255 c0 -132 2 -145 19 -155 28 -15 51 -12 51 5 0 8 -6 15 -14
15 -22 0 -26 24 -26 156 0 104 -2 124 -15 124 -13 0 -15 -23 -15 -145z"/>
<path d="M3260 245 c0 -142 9 -190 24 -133 5 21 6 22 18 5 7 -10 30 -20 50
-23 32 -6 41 -2 68 24 26 26 30 38 30 82 0 44 -4 56 -29 81 -32 32 -67 37 -97
14 -31 -23 -34 -19 -34 45 0 47 -3 60 -15 60 -13 0 -15 -24 -15 -155z m124 29
c25 -10 39 -68 26 -109 -18 -54 -82 -63 -108 -15 -14 28 -10 93 8 115 13 15
47 19 74 9z"/>
<path d="M9250 255 c0 -136 1 -145 21 -155 22 -12 49 -7 49 9 0 5 -9 11 -20
14 -19 5 -20 14 -20 141 0 114 -2 136 -15 136 -13 0 -15 -23 -15 -145z"/>
<path d="M1507 293 c19 -54 43 -120 53 -148 14 -41 21 -50 41 -50 21 0 28 14
76 145 29 80 53 146 53 148 0 1 -8 2 -17 2 -14 0 -29 -30 -62 -125 -25 -69
-47 -125 -50 -125 -3 0 -26 56 -50 125 -34 98 -47 125 -61 125 -16 0 -15 -10
17 -97z"/>
<path d="M1780 370 c0 -11 7 -20 15 -20 8 0 15 9 15 20 0 11 -7 20 -15 20 -8
0 -15 -9 -15 -20z"/>
<path d="M2920 240 l0 -150 90 0 c72 0 90 3 90 15 0 11 -17 15 -72 17 l-73 3
-3 133 c-2 108 -5 132 -17 132 -13 0 -15 -25 -15 -150z"/>
<path d="M3150 370 c0 -13 7 -20 20 -20 13 0 20 7 20 20 0 13 -7 20 -20 20
-13 0 -20 -7 -20 -20z"/>
<path d="M5861 368 c-5 -13 -26 -72 -49 -133 -22 -60 -43 -118 -47 -127 -5
-13 -2 -18 12 -18 13 0 23 13 33 42 l15 43 64 0 64 0 15 -42 c10 -31 19 -43
33 -43 17 0 16 6 -12 83 -17 45 -39 105 -49 132 -29 82 -31 85 -51 85 -11 0
-23 -10 -28 -22z m58 -91 c11 -32 21 -60 21 -62 0 -3 -23 -5 -51 -5 -35 0 -49
4 -47 13 16 60 43 126 49 120 3 -5 16 -34 28 -66z"/>
<path d="M7290 240 c0 -143 1 -150 20 -150 19 0 20 7 21 118 l0 117 42 -117
c31 -87 46 -118 59 -118 16 0 19 6 79 170 l24 65 3 -117 c2 -110 4 -118 22
-118 19 0 20 7 20 151 l0 150 -27 -3 c-25 -3 -31 -13 -72 -121 -24 -65 -47
-114 -51 -110 -4 4 -17 34 -29 66 -63 170 -61 167 -87 167 l-24 0 0 -150z"/>
<path d="M8040 372 c-63 -31 -89 -128 -56 -207 29 -67 116 -94 175 -53 39 26
60 68 35 68 -9 0 -29 -13 -44 -30 -34 -37 -69 -39 -107 -6 -26 22 -28 30 -28
96 0 66 2 74 28 96 38 32 72 31 109 -6 28 -28 58 -40 58 -22 0 16 -33 53 -60
67 -38 20 -67 19 -110 -3z"/>
<path d="M8750 370 c0 -11 7 -20 15 -20 8 0 15 9 15 20 0 11 -7 20 -15 20 -8
0 -15 -9 -15 -20z"/>
<path d="M2070 340 c0 -23 -4 -30 -20 -30 -11 0 -20 -7 -20 -15 0 -8 7 -15 15
-15 12 0 15 -15 15 -73 0 -86 16 -117 61 -117 19 0 29 5 29 15 0 9 -9 15 -25
15 -25 0 -25 1 -25 80 0 79 0 80 25 80 16 0 25 6 25 15 0 9 -9 15 -25 15 -21
0 -25 5 -25 30 0 20 -5 30 -15 30 -10 0 -15 -10 -15 -30z"/>
<path d="M8880 340 c0 -23 -4 -30 -20 -30 -11 0 -20 -7 -20 -15 0 -8 7 -15 15
-15 12 0 15 -15 15 -73 0 -86 16 -117 61 -117 19 0 29 5 29 15 0 9 -9 15 -25
15 -25 0 -25 1 -25 80 0 79 0 80 25 80 16 0 25 6 25 15 0 9 -9 15 -25 15 -21
0 -25 5 -25 30 0 20 -5 30 -15 30 -10 0 -15 -10 -15 -30z"/>
<path d="M1780 200 c0 -91 3 -110 15 -110 12 0 15 19 15 110 0 91 -3 110 -15
110 -12 0 -15 -19 -15 -110z"/>
<path d="M1880 200 c0 -103 1 -110 20 -110 18 0 20 7 20 78 0 86 8 102 52 102
21 0 28 5 28 20 0 13 -7 20 -20 20 -11 0 -29 -9 -40 -20 l-20 -20 0 20 c0 13
-7 20 -20 20 -19 0 -20 -7 -20 -110z"/>
<path d="M2200 221 c0 -85 1 -91 26 -110 34 -27 64 -27 98 0 l26 20 0 -20 c0
-12 6 -21 15 -21 12 0 15 19 15 110 0 103 -1 110 -20 110 -18 0 -20 -7 -20
-83 0 -91 -8 -107 -51 -107 -47 0 -59 22 -59 111 0 64 -3 79 -15 79 -12 0 -15
-17 -15 -89z"/>
<path d="M2478 295 c-29 -16 -38 -45 -14 -45 7 0 19 7 26 15 15 18 61 20 78 3
7 -7 12 -20 12 -30 0 -14 -8 -18 -42 -18 -68 0 -93 -18 -93 -65 0 -32 5 -42
26 -54 29 -16 69 -10 93 15 15 14 16 14 16 -5 0 -12 6 -21 15 -21 22 0 22 182
0 200 -23 19 -87 22 -117 5z m102 -117 c0 -46 -66 -78 -98 -46 -33 33 -2 67
61 68 31 0 37 -3 37 -22z"/>
<path d="M3150 200 c0 -103 1 -110 20 -110 19 0 20 7 20 110 0 103 -1 110 -20
110 -19 0 -20 -7 -20 -110z"/>
<path d="M3510 200 c0 -91 3 -110 15 -110 12 0 15 15 15 71 0 86 11 109 50
109 23 0 30 4 30 20 0 26 -20 25 -54 -1 l-26 -20 0 20 c0 12 -6 21 -15 21 -12
0 -15 -19 -15 -110z"/>
<path d="M3700 297 c-28 -14 -40 -47 -17 -47 8 0 17 7 21 15 7 18 67 20 84 3
7 -7 12 -20 12 -30 0 -15 -9 -18 -50 -18 -41 0 -56 -5 -75 -25 -31 -31 -31
-49 0 -80 30 -30 64 -32 99 -4 l26 20 0 -20 c0 -12 6 -21 15 -21 12 0 15 16
15 88 0 93 -3 103 -37 121 -28 14 -62 14 -93 -2z m100 -120 c0 -35 -32 -59
-72 -55 -26 2 -34 8 -36 27 -5 32 21 51 70 51 33 0 38 -3 38 -23z"/>
<path d="M3900 200 c0 -91 3 -110 15 -110 12 0 15 15 15 71 0 86 11 109 50
109 23 0 30 4 30 20 0 26 -20 25 -54 -1 l-26 -20 0 20 c0 12 -6 21 -15 21 -12
0 -15 -19 -15 -110z"/>
<path d="M4050 302 c0 -5 18 -53 40 -108 47 -114 45 -144 -11 -144 -20 0 -29
-4 -27 -12 7 -21 55 -21 76 0 16 16 112 243 112 265 0 4 -6 7 -14 7 -9 0 -27
-33 -47 -85 -17 -47 -33 -84 -35 -82 -2 1 -16 38 -32 82 -18 50 -36 81 -46 83
-9 2 -16 -1 -16 -6z"/>
<path d="M6115 301 c-40 -17 -59 -49 -59 -102 0 -60 30 -96 87 -106 31 -5 40
-1 69 27 37 38 22 57 -16 21 -49 -46 -106 -13 -106 61 0 67 70 105 104 57 8
-12 22 -19 33 -17 16 3 14 8 -14 36 -32 32 -59 38 -98 23z"/>
<path d="M6328 295 c-62 -35 -60 -158 4 -191 48 -25 128 2 128 43 0 20 -23 16
-38 -7 -16 -26 -63 -26 -87 0 -23 25 -22 95 1 121 23 25 70 25 86 -1 15 -23
38 -27 38 -7 0 41 -85 68 -132 42z"/>
<path d="M6560 298 c-68 -36 -67 -158 1 -193 49 -26 129 0 129 42 0 19 -14 16
-35 -7 -35 -38 -98 -17 -107 35 -3 18 3 20 76 23 l78 3 -6 32 c-4 18 -15 40
-24 50 -24 23 -81 31 -112 15z m87 -30 c31 -41 25 -48 -42 -48 -57 0 -64 2
-58 18 9 26 33 42 64 42 14 0 31 -6 36 -12z"/>
<path d="M6778 290 c-50 -39 -35 -74 43 -100 45 -14 54 -21 54 -41 0 -20 -6
-24 -36 -27 -23 -2 -40 2 -49 12 -14 17 -40 22 -40 7 0 -18 31 -40 64 -47 48
-8 90 13 94 49 5 38 -12 55 -64 68 -53 14 -72 32 -54 54 7 8 25 15 40 15 15 0
33 -7 40 -15 13 -16 40 -21 40 -7 0 45 -89 67 -132 32z"/>
<path d="M7001 298 c-58 -31 -40 -90 34 -109 25 -6 50 -17 56 -25 17 -21 -7
-44 -46 -44 -18 0 -38 7 -45 15 -13 16 -40 20 -40 7 0 -23 44 -47 87 -47 52 0
88 32 77 69 -9 31 -17 36 -70 50 -42 10 -49 16 -49 37 0 21 5 24 38 27 26 2
39 -1 43 -12 8 -20 34 -21 34 -2 0 34 -77 56 -119 34z"/>
<path d="M7675 203 c37 -92 41 -111 30 -128 -7 -11 -24 -21 -39 -23 -31 -4
-30 -25 2 -30 43 -6 59 16 111 149 28 72 51 133 51 135 0 3 -7 4 -16 2 -11 -2
-29 -35 -49 -88 l-32 -84 -33 87 c-24 64 -37 87 -50 87 -16 0 -12 -14 25 -107z"/>
<path d="M8300 297 c-28 -14 -40 -47 -17 -47 8 0 17 7 21 15 7 18 67 20 84 3
7 -7 12 -20 12 -30 0 -15 -9 -18 -50 -18 -41 0 -56 -5 -75 -25 -14 -13 -25
-31 -25 -40 0 -24 46 -65 73 -65 13 0 36 9 51 21 l26 20 0 -20 c0 -12 6 -21
15 -21 12 0 15 16 15 88 0 93 -3 103 -37 121 -28 14 -62 14 -93 -2z m100 -120
c0 -35 -32 -59 -72 -55 -26 2 -34 8 -36 27 -5 32 21 51 70 51 33 0 38 -3 38
-23z"/>
<path d="M8500 165 c0 -122 2 -145 15 -145 12 0 15 13 15 56 l0 55 26 -20 c35
-27 66 -27 99 2 51 43 44 161 -11 186 -36 16 -58 14 -88 -10 l-26 -20 0 20 c0
12 -6 21 -15 21 -13 0 -15 -23 -15 -145z m126 107 c16 -10 34 -48 34 -71 0
-81 -91 -112 -120 -41 -15 37 -5 96 18 109 20 12 53 14 68 3z"/>
<path d="M8750 200 c0 -91 3 -110 15 -110 12 0 15 19 15 110 0 91 -3 110 -15
110 -12 0 -15 -19 -15 -110z"/>
<path d="M9054 301 c-58 -25 -74 -126 -30 -178 32 -37 103 -40 138 -5 32 31
33 131 2 162 -23 24 -79 34 -110 21z m82 -42 c40 -44 12 -139 -41 -139 -42 0
-60 24 -60 80 0 40 5 55 19 66 28 20 60 17 82 -7z"/>
</g>
</svg>
