<?xml version="1.0" standalone="no"?>
<!DOCTYPE svg PUBLIC "-//W3C//DTD SVG 20010904//EN"
 "http://www.w3.org/TR/2001/REC-SVG-20010904/DTD/svg10.dtd">
<svg version="1.0" xmlns="http://www.w3.org/2000/svg"
 width="717.000000pt" height="998.000000pt" viewBox="0 0 717.000000 998.000000"
 preserveAspectRatio="xMidYMid meet">

<g transform="translate(0.000000,998.000000) scale(0.100000,-0.100000)"
fill="#000000" stroke="none">
<path d="M2407 9517 c-121 -86 -169 -125 -107 -90 210 121 230 135 230 153 0
11 -1 20 -2 20 -2 -1 -56 -38 -121 -83z"/>
<path d="M2515 9526 c-11 -8 -66 -41 -123 -74 -57 -33 -98 -63 -93 -67 6 -3
11 -15 11 -27 0 -18 2 -19 20 -7 10 8 73 51 139 96 79 54 114 83 104 87 -22 9
-36 7 -58 -8z"/>
<path d="M2732 9419 c-11 -17 -7 -30 29 -95 41 -76 62 -95 80 -77 7 7 -5 38
-36 94 -56 102 -57 103 -73 78z"/>
<path d="M3897 9423 c-22 -26 -24 -113 -2 -113 8 0 15 -6 15 -12 0 -7 5 -5 11
5 12 21 35 22 55 2 9 -8 21 -15 27 -15 8 0 7 3 -2 9 -11 7 -11 15 -1 45 13 40
26 50 16 13 -12 -50 71 -101 103 -63 10 12 6 13 -28 9 l-40 -6 2 57 c3 53 -4
69 -18 46 -4 -6 -13 -2 -23 10 -25 31 -92 38 -115 13z m63 -34 c0 -5 -4 -9
-10 -9 -5 0 -10 7 -10 16 0 8 5 12 10 9 6 -3 10 -10 10 -16z"/>
<path d="M3781 9414 c-1 -17 -9 -23 -38 -29 l-38 -7 28 -14 c31 -17 35 -39 10
-66 -15 -17 -14 -18 24 -18 28 0 43 5 47 16 11 29 6 93 -8 101 -7 4 -16 15
-19 23 -4 10 -6 8 -6 -6z"/>
<path d="M3650 9391 c0 -12 5 -21 10 -21 6 0 10 6 10 14 0 8 -4 18 -10 21 -5
3 -10 -3 -10 -14z"/>
<path d="M2670 9396 c0 -4 90 -169 96 -175 2 -2 7 -1 11 2 9 10 -80 177 -94
177 -7 0 -13 -2 -13 -4z"/>
<path d="M3402 9388 c-7 -7 -12 -27 -12 -45 0 -26 -4 -33 -20 -33 -11 0 -20 5
-20 10 0 6 -7 10 -15 10 -9 0 -12 -6 -9 -15 4 -8 2 -15 -4 -15 -5 0 -7 -11 -4
-25 2 -14 0 -25 -6 -25 -5 0 -13 16 -16 35 -8 41 -12 42 -35 14 -14 -18 -21
-20 -39 -10 -29 16 -53 13 -81 -8 l-24 -19 23 -12 c19 -10 21 -18 17 -47 -4
-24 -2 -33 6 -30 15 5 17 89 2 99 -6 5 -3 8 7 8 11 0 20 -10 23 -27 4 -16 10
-35 14 -43 9 -16 51 -27 51 -13 0 4 20 8 45 8 29 0 45 -4 45 -12 0 -8 -13 -13
-30 -13 -16 0 -30 -4 -30 -10 0 -14 42 -12 61 3 21 17 32 46 30 82 -1 23 0 27
8 15 6 -8 11 -23 11 -33 0 -12 6 -17 18 -15 13 2 18 15 20 51 2 31 -1 47 -9
47 -6 0 -9 6 -6 14 3 7 0 19 -6 26 -9 10 -9 14 1 17 13 5 17 23 4 23 -4 0 -13
-5 -20 -12z"/>
<path d="M4375 9388 c-5 -13 -14 -16 -34 -11 -25 6 -26 6 -8 -14 24 -28 14
-69 -19 -77 -33 -9 -21 -26 17 -26 52 0 69 16 68 63 0 23 -4 51 -9 62 -7 18
-8 19 -15 3z"/>
<path d="M3566 9371 c-3 -5 3 -11 15 -14 16 -4 18 -3 8 9 -13 16 -16 17 -23 5z"/>
<path d="M3530 9350 c0 -5 5 -10 10 -10 6 0 10 5 10 10 0 6 -4 10 -10 10 -5 0
-10 -4 -10 -10z"/>
<path d="M3466 9334 c-4 -10 -1 -14 6 -12 15 5 23 28 10 28 -5 0 -13 -7 -16
-16z"/>
<path d="M4165 9290 c3 -5 10 -10 16 -10 5 0 9 5 9 10 0 6 -7 10 -16 10 -8 0
-12 -4 -9 -10z"/>
<path d="M4228 9283 c7 -3 16 -2 19 1 4 3 -2 6 -13 5 -11 0 -14 -3 -6 -6z"/>
<path d="M3465 9240 c3 -5 8 -10 11 -10 2 0 4 5 4 10 0 6 -5 10 -11 10 -5 0
-7 -4 -4 -10z"/>
<path d="M1976 9177 c-126 -109 -158 -143 -155 -161 3 -14 30 1 137 76 73 51
127 94 120 96 -7 3 -20 12 -28 22 -14 17 -19 15 -74 -33z"/>
<path d="M1877 9145 c-59 -42 -107 -78 -107 -80 0 -28 94 36 215 146 27 26
-13 1 -108 -66z"/>
<path d="M2758 9167 c-37 -46 -24 -67 42 -67 37 0 50 -4 50 -14 0 -25 -12 -46
-26 -46 -8 0 -14 -4 -14 -10 0 -17 15 -11 40 15 14 15 21 31 17 45 -9 35 18
23 33 -15 8 -19 18 -35 22 -35 16 0 2 48 -25 87 -15 21 -27 47 -27 56 0 9 -5
17 -10 17 -16 0 -24 -31 -13 -49 8 -13 3 -18 -26 -28 -36 -12 -71 -9 -71 6 0
15 28 32 47 29 12 -2 18 3 18 17 0 31 -27 27 -57 -8z"/>
<path d="M4519 9161 c21 -39 39 -58 27 -25 -3 8 -1 24 4 35 8 15 7 19 -4 19
-8 0 -22 3 -31 6 -15 6 -14 1 4 -35z"/>
<path d="M2950 9115 c0 -8 5 -15 10 -15 6 0 10 7 10 15 0 8 -4 15 -10 15 -5 0
-10 -7 -10 -15z"/>
<path d="M4809 9023 c-1 -5 0 -12 1 -18 1 -5 2 -36 1 -68 -2 -55 0 -58 19 -52
17 5 20 2 20 -19 0 -20 -5 -26 -21 -26 -16 0 -20 -5 -17 -27 2 -16 8 -27 15
-26 7 2 24 -2 38 -7 24 -9 25 -8 25 23 -1 49 -18 116 -45 175 -23 49 -33 62
-36 45z"/>
<path d="M1510 8742 c-119 -169 -116 -162 -92 -162 15 0 42 32 99 118 82 123
89 137 76 145 -5 3 -42 -42 -83 -101z"/>
<path d="M1535 8685 c-41 -64 -75 -122 -75 -129 0 -35 20 -16 100 97 112 160
106 147 76 147 -22 0 -38 -18 -101 -115z"/>
<path d="M3570 8642 c0 -64 -2 -70 -26 -80 -17 -8 -24 -18 -20 -30 2 -9 7 -47
11 -83 l6 -67 -115 -1 -115 -2 2 25 c1 14 -2 24 -8 23 -5 -1 -8 -10 -6 -21 5
-30 -17 -36 -132 -36 -60 0 -117 -5 -128 -10 -17 -10 -19 -23 -19 -160 0 -165
2 -170 69 -170 30 0 31 -2 31 -41 0 -78 5 -81 137 -73 93 6 117 4 124 -7 6
-10 9 -11 9 -1 0 7 11 12 28 11 15 -1 276 2 580 6 458 7 556 10 568 22 26 26
14 116 -16 119 -5 1 -14 2 -20 3 -5 0 -10 15 -10 32 0 62 -11 69 -110 69 l-90
0 0 91 c0 132 3 129 -140 129 l-120 0 0 71 c0 108 -1 109 -129 109 l-108 0 4
24 c3 13 0 32 -6 43 -9 15 -10 11 -11 -24 l0 -43 -110 0 -110 0 0 70 c0 40 -4
70 -10 70 -6 0 -10 -29 -10 -68z m431 -179 c1 -27 1 -52 0 -57 -1 -5 5 -6 14
-2 9 3 13 2 10 -4 -3 -6 -1 -10 4 -10 6 0 11 -13 11 -28 0 -16 7 -37 16 -48
13 -16 15 -16 10 -1 -5 15 4 17 94 17 l100 0 0 -100 c0 -119 1 -120 119 -120
l81 0 0 -41 c0 -36 3 -42 30 -52 76 -29 10 -37 -331 -40 l-256 -2 51 28 c28
15 55 33 61 39 5 6 -10 -1 -35 -15 -25 -14 -73 -35 -107 -47 l-63 -23 -62 23
c-35 12 -83 33 -108 47 -25 14 -40 21 -35 15 6 -6 35 -25 65 -41 l55 -31 -272
0 -273 0 0 41 c0 61 -14 79 -60 79 l-40 0 0 113 0 112 45 3 c29 2 45 -1 45 -9
0 -9 3 -9 14 0 8 6 40 11 73 10 32 -1 69 2 82 6 15 5 21 4 17 -3 -3 -6 -2 -13
4 -17 6 -3 13 1 16 9 5 13 24 16 95 16 l89 0 1 28 1 27 8 -25 8 -25 1 28 c1
17 7 27 16 27 8 0 15 5 15 11 0 5 -4 7 -10 4 -5 -3 -10 2 -10 12 0 10 -3 35
-6 56 l-7 37 212 0 211 0 1 -47z m56 -115 c-3 -7 -5 -2 -5 12 0 14 2 19 5 13
2 -7 2 -19 0 -25z"/>
<path d="M3705 8406 c-65 -20 -100 -37 -101 -46 -1 -9 1 -10 3 -2 10 27 18 9
15 -30 -4 -43 -21 -66 -33 -46 -16 25 -29 -7 -29 -71 0 -72 14 -103 35 -74 17
23 35 7 35 -31 0 -39 14 -51 113 -90 l67 -27 68 27 c98 40 112 50 112 90 0 27
4 34 20 34 11 0 20 -5 20 -11 0 -8 5 -8 15 1 11 9 15 32 15 81 0 64 -13 96
-29 71 -13 -22 -34 5 -27 34 13 55 12 59 -11 58 -12 0 -20 3 -18 6 2 4 -29 17
-70 29 -40 11 -80 23 -87 25 -7 2 -58 -10 -113 -28z m-15 -160 c0 -3 -4 -8
-10 -11 -5 -3 -10 -1 -10 4 0 6 5 11 10 11 6 0 10 -2 10 -4z m100 -6 c0 -5 -7
-10 -15 -10 -8 0 -15 5 -15 10 0 6 7 10 15 10 8 0 15 -4 15 -10z m40 0 c0 -5
-4 -10 -10 -10 -5 0 -10 5 -10 10 0 6 5 10 10 10 6 0 10 -4 10 -10z m60 0 c0
-5 -4 -10 -10 -10 -5 0 -10 5 -10 10 0 6 5 10 10 10 6 0 10 -4 10 -10z m-200
-44 c0 -7 3 -7 8 2 5 6 28 14 51 16 41 4 43 3 38 -20 -2 -13 -1 -24 4 -24 4 0
9 10 11 23 5 33 32 28 36 -7 3 -26 2 -28 -12 -17 -9 8 -16 9 -16 3 0 -6 -20
-10 -45 -10 -34 1 -45 5 -45 17 -1 14 -3 13 -14 -2 -14 -18 -14 -17 -21 2 -4
12 -15 21 -27 21 -11 0 -18 -5 -15 -12 2 -7 10 -12 16 -10 7 1 10 -2 6 -7 -7
-13 -35 -3 -35 13 0 20 20 34 41 29 10 -3 19 -10 19 -17z m190 -6 c0 -26 16
-25 31 2 11 21 12 21 25 3 12 -17 14 -17 14 -2 0 11 8 17 21 17 15 0 20 -5 17
-22 -3 -19 -9 -22 -63 -22 -55 -1 -60 1 -63 22 -2 12 1 22 7 22 6 0 11 -9 11
-20z"/>
<path d="M3236 8172 c-3 -5 1 -15 9 -22 16 -14 20 -3 6 19 -5 8 -11 9 -15 3z"/>
<path d="M3337 8113 c-10 -9 -8 -51 2 -57 5 -3 9 10 8 29 -1 38 -1 38 -10 28z"/>
<path d="M4028 8087 c-3 -19 -2 -25 4 -19 6 6 8 18 6 28 -3 14 -5 12 -10 -9z"/>
<path d="M3200 8080 c-12 -23 -5 -26 16 -6 16 17 18 26 4 26 -5 0 -14 -9 -20
-20z"/>
<path d="M3262 8089 c2 -7 10 -15 17 -17 8 -3 12 1 9 9 -2 7 -10 15 -17 17 -8
3 -12 -1 -9 -9z"/>
<path d="M3501 8093 c0 -5 4 -17 9 -28 8 -18 9 -17 9 8 1 15 -3 27 -9 27 -5 0
-10 -3 -9 -7z"/>
<path d="M3430 8061 c0 -6 5 -13 10 -16 6 -3 10 1 10 9 0 9 -4 16 -10 16 -5 0
-10 -4 -10 -9z"/>
<path d="M3385 8687 c-4 -10 -5 -21 -1 -24 10 -10 18 4 13 24 -4 17 -4 17 -12
0z"/>
<path d="M3940 8650 c0 -5 5 -10 11 -10 5 0 7 5 4 10 -3 6 -8 10 -11 10 -2 0
-4 -4 -4 -10z"/>
<path d="M3870 8639 c0 -5 5 -7 10 -4 6 3 10 8 10 11 0 2 -4 4 -10 4 -5 0 -10
-5 -10 -11z"/>
<path d="M3450 8615 c0 -8 2 -15 4 -15 2 0 6 7 10 15 3 8 1 15 -4 15 -6 0 -10
-7 -10 -15z"/>
<path d="M3342 8595 c-7 -14 -8 -27 -2 -30 5 -3 12 6 16 20 9 35 0 41 -14 10z"/>
<path d="M3430 8575 c0 -8 5 -15 10 -15 6 0 10 7 10 15 0 8 -4 15 -10 15 -5 0
-10 -7 -10 -15z"/>
<path d="M4893 8482 c-16 -10 -5 -286 13 -310 11 -14 12 11 7 148 -3 91 -6
166 -7 167 -1 1 -7 -1 -13 -5z"/>
<path d="M3416 8431 c-3 -5 1 -14 9 -21 12 -10 15 -10 15 3 0 19 -16 31 -24
18z"/>
<path d="M4823 8424 c-3 -8 -1 -20 5 -26 16 -16 42 -2 42 22 0 24 -38 28 -47
4z"/>
<path d="M5217 8423 c-11 -10 -8 -93 3 -93 6 0 10 23 10 50 0 51 -1 55 -13 43z"/>
<path d="M5390 8380 c0 -27 5 -50 10 -50 6 0 10 23 10 50 0 28 -4 50 -10 50
-5 0 -10 -22 -10 -50z"/>
<path d="M5650 8370 c0 -38 4 -59 10 -55 6 3 10 28 10 55 0 27 -4 52 -10 55
-6 4 -10 -17 -10 -55z"/>
<path d="M5150 8375 c0 -28 4 -44 10 -40 6 3 10 21 10 40 0 19 -4 37 -10 40
-6 4 -10 -12 -10 -40z"/>
<path d="M5310 8409 c0 -5 5 -7 10 -4 6 3 10 8 10 11 0 2 -4 4 -10 4 -5 0 -10
-5 -10 -11z"/>
<path d="M5510 8390 c0 -5 5 -10 10 -10 6 0 10 5 10 10 0 6 -4 10 -10 10 -5 0
-10 -4 -10 -10z"/>
<path d="M5710 8390 c0 -5 5 -10 10 -10 6 0 10 5 10 10 0 6 -4 10 -10 10 -5 0
-10 -4 -10 -10z"/>
<path d="M4950 8371 c0 -5 5 -13 10 -16 6 -3 10 -2 10 4 0 5 -4 13 -10 16 -5
3 -10 2 -10 -4z"/>
<path d="M4828 8348 c-9 -24 4 -90 19 -95 22 -8 29 9 25 61 -3 36 -8 46 -22
46 -10 0 -20 -6 -22 -12z"/>
<path d="M5510 8350 c0 -5 5 -10 10 -10 6 0 10 5 10 10 0 6 -4 10 -10 10 -5 0
-10 -4 -10 -10z"/>
<path d="M1202 8307 c-19 -27 -41 -80 -57 -138 -14 -52 -28 -101 -31 -110 -3
-13 1 -15 20 -12 20 4 33 26 80 135 47 110 54 132 43 149 -6 10 -14 19 -18 19
-3 0 -20 -19 -37 -43z"/>
<path d="M4980 8336 c0 -2 7 -6 15 -10 8 -3 15 -1 15 4 0 6 -7 10 -15 10 -8 0
-15 -2 -15 -4z"/>
<path d="M1304 8312 c-12 -8 -34 -46 -34 -58 0 -4 11 7 25 26 31 41 32 48 9
32z"/>
<path d="M4823 8215 c8 -47 12 -51 39 -37 l23 11 -22 7 c-13 3 -23 14 -23 25
0 10 -5 21 -12 25 -8 5 -9 -3 -5 -31z"/>
<path d="M340 8123 c-50 -171 -156 -610 -150 -617 14 -14 358 -94 371 -85 15
9 160 641 149 652 -9 10 -306 86 -337 87 -17 0 -25 -9 -33 -37z m195 -49 c61
-15 113 -30 117 -33 6 -5 -114 -556 -123 -565 -3 -4 -135 26 -265 58 l-22 6
69 272 c84 327 75 301 96 294 10 -3 68 -17 128 -32z"/>
<path d="M401 7854 c-12 -15 -21 -34 -22 -43 0 -12 -3 -11 -10 4 -7 16 -9 14
-6 -12 2 -18 0 -30 -5 -27 -4 3 -8 1 -8 -5 0 -5 5 -13 10 -16 6 -4 8 -10 5
-14 -2 -5 7 -19 21 -32 60 -56 159 -12 159 70 0 36 -25 81 -45 81 -4 0 -27
-13 -51 -30 -24 -16 -47 -30 -51 -30 -12 0 3 33 25 58 11 12 16 22 9 22 -6 0
-20 -12 -31 -26z m102 -31 c-3 -10 -10 -23 -15 -30 -5 -7 -4 -13 4 -16 7 -3
-14 -6 -47 -6 l-59 -1 54 35 c61 40 72 42 63 18z m-40 -80 c-13 -2 -35 -2 -50
0 -16 2 -5 4 22 4 28 0 40 -2 28 -4z"/>
<path d="M1203 8098 c-17 -45 -21 -89 -6 -74 7 7 35 118 30 122 -2 3 -13 -19
-24 -48z"/>
<path d="M5361 8134 c0 -11 3 -14 6 -6 3 7 2 16 -1 19 -3 4 -6 -2 -5 -13z"/>
<path d="M5595 8138 c-4 -10 -4 -26 0 -35 8 -17 8 -17 12 0 3 9 3 25 0 35 -4
16 -4 16 -12 0z"/>
<path d="M5436 8112 c-4 -18 -5 -36 -2 -39 11 -12 17 5 14 39 l-3 33 -9 -33z"/>
<path d="M4842 7872 c2 -9 11 -17 21 -17 24 0 23 18 -3 27 -17 6 -21 4 -18
-10z"/>
<path d="M3750 7870 c0 -5 5 -10 10 -10 6 0 10 5 10 10 0 6 -4 10 -10 10 -5 0
-10 -4 -10 -10z"/>
<path d="M3610 7849 c0 -11 5 -17 10 -14 6 3 10 13 10 21 0 8 -4 14 -10 14 -5
0 -10 -9 -10 -21z"/>
<path d="M3957 7864 c-4 -4 -7 -14 -7 -23 0 -11 3 -12 11 -4 6 6 10 16 7 23
-2 6 -7 8 -11 4z"/>
<path d="M3550 7840 c0 -5 5 -10 10 -10 6 0 10 5 10 10 0 6 -4 10 -10 10 -5 0
-10 -4 -10 -10z"/>
<path d="M3890 7840 c0 -5 5 -10 10 -10 6 0 10 5 10 10 0 6 -4 10 -10 10 -5 0
-10 -4 -10 -10z"/>
<path d="M4922 7825 c0 -16 2 -22 5 -12 2 9 2 23 0 30 -3 6 -5 -1 -5 -18z"/>
<path d="M3485 7830 c-3 -5 1 -10 9 -10 9 0 16 5 16 10 0 6 -4 10 -9 10 -6 0
-13 -4 -16 -10z"/>
<path d="M3820 7830 c0 -5 4 -10 9 -10 6 0 13 5 16 10 3 6 -1 10 -9 10 -9 0
-16 -4 -16 -10z"/>
<path d="M4847 7779 c-8 -29 2 -49 23 -49 21 0 33 25 25 51 -8 26 -41 24 -48
-2z"/>
<path d="M1036 7769 c-8 -23 -56 -200 -70 -255 -12 -50 -12 -51 11 -46 19 4
24 13 29 53 4 27 11 52 15 55 5 3 9 17 9 31 0 15 5 43 11 62 6 20 14 48 19 63
6 19 4 31 -6 39 -11 9 -15 8 -18 -2z"/>
<path d="M1096 7745 c-20 -21 -32 -83 -17 -98 14 -14 14 -13 33 56 16 58 11
69 -16 42z"/>
<path d="M1540 7694 c0 -14 3 -14 15 -4 8 7 15 14 15 16 0 2 -7 4 -15 4 -8 0
-15 -7 -15 -16z"/>
<path d="M4852 7678 c2 -15 10 -23 23 -23 30 0 27 39 -3 43 -20 3 -23 0 -20
-20z"/>
<path d="M1678 7662 c2 -18 8 -29 13 -26 12 7 11 17 -4 39 -13 16 -14 15 -9
-13z"/>
<path d="M3247 7671 c-3 -14 -1 -18 9 -14 8 3 14 11 14 19 0 21 -17 17 -23 -5z"/>
<path d="M2998 7663 c-7 -25 1 -43 18 -43 15 0 35 39 27 53 -8 14 -41 7 -45
-10z"/>
<path d="M3313 7654 c-4 -11 1 -22 12 -30 22 -17 35 -17 55 -4 13 9 12 13 -9
30 -28 24 -50 26 -58 4z"/>
<path d="M3405 7620 c-8 -13 13 -40 30 -40 18 0 28 32 13 42 -18 11 -36 10
-43 -2z"/>
<path d="M1057 7613 c-4 -3 -7 -18 -7 -32 0 -14 -6 -47 -14 -72 -8 -27 -11
-52 -6 -60 11 -16 12 -13 35 78 8 34 18 69 21 78 6 15 -16 22 -29 8z"/>
<path d="M1540 7594 c0 -22 2 -25 15 -14 12 10 13 16 4 26 -16 20 -19 18 -19
-12z"/>
<path d="M2980 7585 c-11 -13 -11 -19 4 -33 15 -15 18 -15 26 -2 22 33 -6 64
-30 35z"/>
<path d="M4856 7584 c-5 -12 -2 -15 10 -10 8 3 20 6 25 6 6 0 7 5 4 10 -10 15
-32 12 -39 -6z"/>
<path d="M3501 7581 c-12 -8 -12 -12 -2 -25 12 -15 15 -15 27 1 7 10 14 21 14
26 0 10 -22 9 -39 -2z"/>
<path d="M5380 7548 c0 -17 3 -19 9 -9 5 7 15 17 22 22 10 6 8 9 -8 9 -17 0
-23 -6 -23 -22z"/>
<path d="M5520 7510 c0 -19 3 -21 12 -12 9 9 9 15 0 24 -9 9 -12 7 -12 -12z"/>
<path d="M2946 7475 c-8 -30 -1 -45 19 -45 19 0 37 34 29 54 -10 25 -41 19
-48 -9z"/>
<path d="M5380 7462 c0 -29 2 -31 20 -20 12 8 15 15 8 19 -6 4 -14 13 -19 20
-6 10 -9 4 -9 -19z"/>
<path d="M3776 7407 c-14 -10 -16 -16 -7 -22 15 -9 35 8 30 24 -3 8 -10 7 -23
-2z"/>
<path d="M2931 7396 c-9 -10 -6 -12 14 -8 29 5 31 8 11 15 -8 3 -19 0 -25 -7z"/>
<path d="M3823 7355 c-6 -18 23 -55 43 -55 23 0 24 17 3 44 -23 30 -37 33 -46
11z"/>
<path d="M3892 7268 c2 -15 10 -23 23 -23 30 0 27 39 -3 43 -20 3 -23 0 -20
-20z"/>
<path d="M2610 7271 c0 -6 5 -13 10 -16 17 -10 11 -25 -10 -25 -12 0 -17 5
-14 14 10 27 -23 24 -48 -4 -28 -32 -26 -40 8 -40 13 0 26 -5 29 -11 4 -6 13
-8 21 -5 8 3 24 2 37 -3 48 -19 131 -34 134 -24 2 5 17 7 33 5 41 -6 38 7 -14
51 -49 40 -64 45 -72 22 -4 -8 -15 -15 -25 -15 -27 0 -24 30 4 31 15 1 10 5
-18 14 -49 16 -75 18 -75 6z"/>
<path d="M4867 7265 c6 -18 34 -16 41 3 2 7 -6 12 -22 12 -19 0 -24 -4 -19
-15z"/>
<path d="M3950 7190 c0 -17 3 -18 25 -8 27 12 24 28 -6 28 -12 0 -19 -7 -19
-20z"/>
<path d="M986 7185 c-5 -11 -11 -81 -14 -155 -4 -128 -3 -136 17 -154 l21 -19
-1 89 c-2 148 -13 262 -23 239z"/>
<path d="M4872 7168 c3 -36 31 -50 42 -22 10 26 -3 54 -25 54 -17 0 -20 -6
-17 -32z"/>
<path d="M915 7028 c4 -89 9 -165 10 -167 2 -1 8 0 14 4 7 4 11 60 11 155 0
142 -1 150 -21 161 l-21 11 7 -164z"/>
<path d="M1950 7174 c0 -8 5 -12 10 -9 6 4 8 11 5 16 -9 14 -15 11 -15 -7z"/>
<path d="M1874 7169 c-3 -6 -1 -16 5 -22 8 -8 11 -5 11 11 0 24 -5 28 -16 11z"/>
<path d="M2190 7143 c0 -5 5 -15 10 -23 8 -12 10 -11 10 8 0 12 -4 22 -10 22
-5 0 -10 -3 -10 -7z"/>
<path d="M2401 7114 c0 -11 3 -14 6 -6 3 7 2 16 -1 19 -3 4 -6 -2 -5 -13z"/>
<path d="M4872 7078 c2 -15 10 -23 23 -23 30 0 27 39 -3 43 -20 3 -23 0 -20
-20z"/>
<path d="M2430 7050 c0 -16 5 -30 11 -30 8 0 8 -4 2 -12 -5 -7 -11 -47 -12
-89 -2 -59 1 -78 14 -89 11 -9 19 -10 27 -2 6 6 17 8 24 5 11 -4 14 6 14 40 0
27 5 47 12 49 9 3 8 10 -5 23 -14 14 -21 15 -27 6 -9 -16 -22 12 -14 33 3 8 1
17 -5 20 -7 5 -7 13 1 25 15 24 4 51 -22 51 -16 0 -20 -7 -20 -30z"/>
<path d="M2403 6994 c-16 -16 -18 -144 -3 -144 17 0 21 23 18 92 -2 53 -5 63
-15 52z"/>
<path d="M4880 6990 c0 -5 9 -10 20 -10 11 0 20 5 20 10 0 6 -9 10 -20 10 -11
0 -20 -4 -20 -10z"/>
<path d="M2270 6920 c0 -38 4 -70 9 -70 12 0 17 33 13 93 -6 73 -22 56 -22
-23z"/>
<path d="M1930 6919 c0 -11 5 -17 10 -14 6 3 10 13 10 21 0 8 -4 14 -10 14 -5
0 -10 -9 -10 -21z"/>
<path d="M4136 6931 c-12 -5 -16 -10 -9 -14 13 -8 43 2 43 14 0 10 -8 10 -34
0z"/>
<path d="M1820 6910 c0 -19 3 -21 12 -12 9 9 9 15 0 24 -9 9 -12 7 -12 -12z"/>
<path d="M2311 6894 c0 -11 3 -14 6 -6 3 7 2 16 -1 19 -3 4 -6 -2 -5 -13z"/>
<path d="M4166 6864 c-8 -21 47 -76 68 -68 22 8 20 31 -4 46 -11 7 -20 18 -20
25 0 19 -37 16 -44 -3z"/>
<path d="M4290 6801 c0 -22 30 -35 60 -26 25 8 26 21 1 35 -32 17 -61 12 -61
-9z"/>
<path d="M2310 6660 c0 -40 4 -70 10 -70 6 0 10 30 10 70 0 40 -4 70 -10 70
-6 0 -10 -30 -10 -70z"/>
<path d="M2372 6683 c-1 -29 -7 -63 -13 -77 -7 -14 -8 -33 -4 -43 4 -10 7 -28
6 -40 -3 -25 11 -36 33 -27 13 5 14 17 9 67 -3 34 -10 64 -14 67 -4 3 -9 28
-12 55 l-3 50 -2 -52z"/>
<path d="M3900 6694 c-135 -36 -126 -30 -220 -146 -29 -36 -39 -59 -44 -101
-6 -44 -12 -56 -32 -65 -36 -17 -32 -56 12 -96 l36 -33 -26 -39 c-24 -35 -26
-47 -26 -141 l0 -102 -60 -41 -60 -40 21 -58 c25 -67 41 -82 86 -82 30 0 33
-3 33 -29 0 -50 11 -62 84 -97 l70 -34 52 51 52 52 178 -20 177 -19 131 28
c173 38 162 33 192 84 31 53 27 85 -16 110 -35 21 -69 93 -101 219 -22 86 -28
96 -142 249 -98 130 -122 170 -132 214 -11 45 -23 65 -71 113 -32 33 -61 58
-64 58 -3 -1 -61 -17 -130 -35z m167 -66 c30 -32 43 -55 48 -86 6 -35 32 -77
128 -205 l121 -162 33 -119 c39 -137 62 -186 97 -210 28 -18 33 -42 13 -67
-13 -18 -234 -69 -298 -69 l-38 0 -7 60 c-7 68 -27 90 -78 90 -28 0 -29 1 -12
19 10 11 15 25 11 30 -8 14 -42 14 -50 1 -3 -5 -15 -10 -26 -10 -11 0 -18 4
-15 9 5 7 -14 21 -29 21 -11 0 -53 -102 -49 -115 4 -8 1 -21 -5 -29 -6 -7 -8
-16 -4 -19 11 -12 23 -8 23 8 0 8 5 15 10 15 6 0 10 -4 10 -9 0 -5 9 -13 20
-16 11 -3 20 -13 20 -21 0 -10 -6 -13 -17 -10 -10 3 -40 6 -66 8 -45 2 -51 -1
-94 -44 l-46 -46 -44 21 c-40 19 -43 24 -43 60 0 62 -13 77 -68 77 -44 0 -49
2 -59 30 -11 29 -10 31 35 61 71 48 72 50 72 172 0 108 0 110 32 149 l32 41
-35 28 c-19 16 -38 29 -43 29 -6 0 0 9 11 20 15 14 23 37 28 83 6 58 12 69 61
128 54 64 54 64 152 91 53 14 104 27 112 27 9 1 34 -18 57 -41z m73 -802 c0
-3 -4 -8 -10 -11 -5 -3 -10 -1 -10 4 0 6 5 11 10 11 6 0 10 -2 10 -4z m-122
-24 c2 -7 -2 -10 -12 -6 -9 3 -16 11 -16 16 0 13 23 5 28 -10z m110 -65 c4
-18 -30 -23 -75 -11 -35 9 -27 22 15 27 50 5 56 3 60 -16z"/>
<path d="M4010 5950 c-11 -7 -11 -10 -2 -10 7 0 10 -5 6 -11 -4 -7 -1 -10 7
-7 15 5 26 38 12 38 -4 0 -15 -5 -23 -10z"/>
<path d="M4097 5905 c5 -25 33 -57 33 -37 0 20 -19 62 -28 62 -5 0 -7 -11 -5
-25z"/>
<path d="M4686 6704 c-9 -23 2 -34 35 -34 52 0 31 49 -22 50 -4 0 -10 -7 -13
-16z"/>
<path d="M2030 6650 c0 -33 4 -60 10 -60 6 0 10 27 10 60 0 33 -4 60 -10 60
-6 0 -10 -27 -10 -60z"/>
<path d="M2130 6650 c0 -33 4 -60 10 -60 6 0 10 27 10 60 0 33 -4 60 -10 60
-6 0 -10 -27 -10 -60z"/>
<path d="M4775 6681 c-10 -17 4 -31 31 -31 19 0 25 5 22 18 -4 19 -43 29 -53
13z"/>
<path d="M4876 6664 c-9 -23 11 -44 41 -44 21 0 24 4 21 28 -2 21 -9 28 -29
30 -18 2 -29 -3 -33 -14z"/>
<path d="M2252 6630 c4 -52 18 -52 18 0 0 22 -5 40 -10 40 -6 0 -9 -18 -8 -40z"/>
<path d="M937 6503 c7 -176 14 -246 25 -235 6 6 9 68 9 154 -2 124 -4 145 -20
161 -18 18 -18 16 -14 -80z"/>
<path d="M1001 6581 c-22 -14 -5 -274 19 -304 18 -21 19 -18 13 138 -3 88 -8
163 -12 167 -3 4 -12 3 -20 -1z"/>
<path d="M5318 6518 c-14 -11 -15 -32 -7 -163 4 -82 8 -167 8 -187 1 -36 2
-37 26 -26 21 9 25 18 25 54 0 23 5 44 11 46 6 2 5 14 -5 33 -11 20 -16 57
-16 113 l0 82 203 -2 202 -3 6 -195 c4 -107 7 -205 8 -216 1 -17 6 -20 26 -16
l25 4 -6 227 c-4 124 -11 234 -16 244 -8 15 -30 17 -241 17 -172 0 -237 -3
-249 -12z"/>
<path d="M2197 6453 c-4 -3 -7 -34 -7 -67 1 -59 1 -60 14 -31 8 17 10 37 5 46
-4 9 -5 25 -2 37 5 22 2 28 -10 15z"/>
<path d="M2353 6370 c0 -67 2 -80 14 -76 8 3 21 6 29 6 8 0 14 10 15 23 l1 22
6 -23 c12 -40 27 -29 30 22 5 83 -16 124 -31 61 -4 -15 -5 -13 -6 8 -1 16 -7
27 -15 27 -8 0 -21 3 -29 6 -12 4 -14 -9 -14 -76z"/>
<path d="M2750 6385 c0 -30 4 -55 8 -55 4 0 9 25 10 55 1 32 -2 55 -8 55 -5 0
-10 -24 -10 -55z"/>
<path d="M2012 6390 c0 -14 2 -19 5 -12 2 6 2 18 0 25 -3 6 -5 1 -5 -13z"/>
<path d="M2130 6390 c0 -19 3 -21 12 -12 9 9 9 15 0 24 -9 9 -12 7 -12 -12z"/>
<path d="M5643 6403 c9 -2 23 -2 30 0 6 3 -1 5 -18 5 -16 0 -22 -2 -12 -5z"/>
<path d="M1790 6384 c0 -8 5 -12 10 -9 6 4 8 11 5 16 -9 14 -15 11 -15 -7z"/>
<path d="M2590 6384 c0 -8 5 -12 10 -9 6 4 8 11 5 16 -9 14 -15 11 -15 -7z"/>
<path d="M5670 6368 c-25 -18 -50 -39 -57 -48 -9 -11 -12 -11 -13 -2 0 7 -4
11 -9 8 -4 -3 -25 4 -47 14 -21 11 -44 20 -51 20 -18 0 -16 -39 2 -46 8 -4 15
-13 15 -21 0 -19 48 -65 52 -51 3 7 14 4 31 -7 27 -17 27 -17 27 9 0 33 35 70
61 63 13 -4 19 0 19 12 0 10 9 26 20 36 22 20 27 45 8 45 -7 -1 -33 -15 -58
-32z"/>
<path d="M1590 6371 c0 -11 5 -23 10 -26 6 -4 10 5 10 19 0 14 -4 26 -10 26
-5 0 -10 -9 -10 -19z"/>
<path d="M1720 6370 c0 -19 3 -21 12 -12 9 9 9 15 0 24 -9 9 -12 7 -12 -12z"/>
<path d="M2515 6380 c-4 -6 -3 -16 3 -22 6 -6 12 -6 17 2 4 6 3 16 -3 22 -6 6
-12 6 -17 -2z"/>
<path d="M2060 6364 c0 -14 3 -14 15 -4 8 7 15 14 15 16 0 2 -7 4 -15 4 -8 0
-15 -7 -15 -16z"/>
<path d="M5485 6259 c-4 -6 -2 -29 4 -52 6 -23 12 -51 15 -62 2 -11 4 13 5 53
1 66 -8 88 -24 61z"/>
<path d="M5680 6256 c0 -8 5 -18 10 -21 6 -3 10 1 10 9 0 8 -4 18 -10 21 -5 3
-10 -1 -10 -9z"/>
<path d="M5643 6180 c-14 -36 -1 -40 15 -5 14 31 15 35 4 35 -4 0 -13 -13 -19
-30z"/>
<path d="M5710 6180 c0 -19 3 -21 12 -12 9 9 9 15 0 24 -9 9 -12 7 -12 -12z"/>
<path d="M5420 6160 c0 -5 5 -10 11 -10 5 0 7 5 4 10 -3 6 -8 10 -11 10 -2 0
-4 -4 -4 -10z"/>
<path d="M2038 6142 c-16 -2 -28 -7 -28 -11 0 -9 52 -22 58 -16 13 12 -7 30
-30 27z"/>
<path d="M1960 6130 c0 -5 9 -10 20 -10 11 0 20 5 20 10 0 6 -9 10 -20 10 -11
0 -20 -4 -20 -10z"/>
<path d="M5364 6121 c-31 -13 -36 -27 -18 -42 20 -16 102 -17 133 0 21 12 22
15 8 28 -18 18 -93 26 -123 14z"/>
<path d="M2170 6110 c0 -5 5 -10 10 -10 6 0 10 5 10 10 0 6 -4 10 -10 10 -5 0
-10 -4 -10 -10z"/>
<path d="M2110 6081 c0 -6 5 -13 10 -16 6 -3 10 1 10 9 0 9 -4 16 -10 16 -5 0
-10 -4 -10 -9z"/>
<path d="M5667 6004 c-4 -4 -7 -14 -7 -23 0 -11 3 -12 11 -4 6 6 10 16 7 23
-2 6 -7 8 -11 4z"/>
<path d="M5367 5989 c7 -7 15 -10 18 -7 3 3 -2 9 -12 12 -14 6 -15 5 -6 -5z"/>
<path d="M5427 5986 l-28 -12 26 -14 c28 -15 30 -14 39 18 8 25 3 26 -37 8z"/>
<path d="M5584 5985 c-8 -19 13 -160 26 -186 6 -10 15 -19 19 -19 21 0 78 167
63 182 -7 7 -18 -3 -34 -33 l-23 -44 -3 35 c-4 59 -12 80 -28 80 -8 0 -17 -7
-20 -15z"/>
<path d="M5740 5981 c-19 -37 -12 -71 18 -82 15 -5 34 -12 42 -15 12 -5 12 -8
-4 -20 -26 -19 -55 -18 -78 2 -16 16 -18 16 -24 0 -8 -22 2 -45 23 -52 10 -3
28 -11 40 -16 27 -13 83 7 83 29 0 11 -6 10 -26 -6 -15 -12 -34 -21 -43 -21
-9 1 1 10 22 21 42 22 53 40 42 67 -4 9 -7 38 -7 63 l0 46 -39 1 c-29 1 -41
-3 -49 -17z m52 -3 c-21 -21 -13 -32 11 -12 22 19 22 19 -1 -7 l-23 -26 23 -8
c20 -6 21 -8 5 -12 -44 -12 -62 24 -30 59 9 10 19 18 22 18 3 0 0 -5 -7 -12z"/>
<path d="M963 5893 c4 -54 7 -131 7 -170 0 -69 1 -72 18 -58 15 14 17 25 10
88 -4 40 -7 106 -7 148 -1 62 -4 78 -18 83 -14 6 -15 -3 -10 -91z"/>
<path d="M1028 5979 c-12 -7 -15 -18 -12 -42 3 -17 8 -83 12 -146 5 -77 11
-116 20 -119 13 -4 15 138 3 255 -5 54 -8 61 -23 52z"/>
<path d="M2387 5963 c-10 -9 -8 -45 1 -61 5 -7 16 -10 25 -6 22 8 23 60 1 68
-19 7 -19 7 -27 -1z"/>
<path d="M5335 5777 c8 -173 12 -201 37 -203 7 0 23 -2 36 -2 14 -1 26 -11 32
-26 5 -13 15 -26 22 -28 22 -8 140 19 149 33 5 8 9 37 10 64 1 29 4 39 6 23 6
-36 21 -36 25 -1 2 22 10 29 37 34 18 4 37 13 42 21 13 20 11 78 -3 78 -10 0
-10 2 -1 8 8 5 2 13 -18 24 l-29 17 0 -49 0 -49 -45 -7 c-61 -9 -75 -25 -75
-83 0 -46 -1 -49 -31 -55 -44 -9 -49 -8 -49 8 0 24 -29 46 -61 46 l-29 0 -1
108 c0 98 -2 121 -12 176 -2 11 -14 23 -26 28 l-23 8 7 -173z"/>
<path d="M5468 5939 c-9 -5 -15 -16 -12 -24 7 -17 74 -58 74 -45 0 6 -4 10
-10 10 -5 0 -10 7 -10 15 0 8 5 15 10 15 6 0 10 7 10 15 0 8 -4 15 -9 15 -5 0
-15 2 -23 5 -7 2 -21 0 -30 -6z"/>
<path d="M2287 5913 c-13 -13 -7 -32 14 -43 27 -15 66 15 48 37 -12 14 -51 18
-62 6z"/>
<path d="M5720 5891 c0 -5 5 -13 10 -16 6 -3 10 -2 10 4 0 5 -4 13 -10 16 -5
3 -10 2 -10 -4z"/>
<path d="M2307 5804 c-16 -16 -6 -34 19 -34 19 0 25 5 22 17 -3 19 -29 29 -41
17z"/>
<path d="M5410 5675 c0 -8 5 -15 10 -15 6 0 10 7 10 15 0 8 -4 15 -10 15 -5 0
-10 -7 -10 -15z"/>
<path d="M5495 5670 c3 -5 10 -10 16 -10 5 0 9 5 9 10 0 6 -7 10 -16 10 -8 0
-12 -4 -9 -10z"/>
<path d="M4910 5616 c0 -8 4 -17 10 -21 5 -3 7 -11 5 -18 -9 -23 11 -40 39
-33 30 7 35 33 9 44 -10 4 -18 14 -18 22 0 8 -10 16 -22 18 -15 2 -23 -2 -23
-12z"/>
<path d="M4817 5583 c-4 -3 -7 -15 -7 -25 0 -24 58 -26 67 -2 9 24 -41 47 -60
27z"/>
<path d="M4727 5566 c-3 -8 0 -19 7 -25 18 -15 48 -3 44 18 -4 21 -44 27 -51
7z"/>
<path d="M4333 5559 c-16 -16 -5 -39 18 -39 24 0 37 29 18 41 -18 11 -23 11
-36 -2z"/>
<path d="M4126 5544 c-8 -21 1 -34 24 -34 10 0 21 4 24 9 10 16 -5 41 -24 41
-10 0 -21 -7 -24 -16z"/>
<path d="M4207 5546 c-7 -17 11 -36 34 -36 21 0 43 26 34 40 -9 15 -62 12 -68
-4z"/>
<path d="M4400 5555 c0 -15 18 -40 24 -34 3 3 -1 14 -9 25 -8 10 -14 15 -15 9z"/>
<path d="M5270 5405 c0 -128 2 -145 16 -145 15 0 16 9 10 61 -3 34 -6 100 -6
145 0 49 -4 84 -10 84 -6 0 -10 -55 -10 -145z"/>
<path d="M3536 5527 c-22 -16 -14 -37 14 -37 26 0 35 19 18 36 -12 12 -17 12
-32 1z"/>
<path d="M3606 5524 c-8 -22 1 -34 27 -34 31 0 51 15 44 34 -8 21 -63 21 -71
0z"/>
<path d="M3730 5520 c0 -16 5 -21 23 -18 12 2 22 10 22 18 0 8 -10 16 -22 18
-18 3 -23 -2 -23 -18z"/>
<path d="M3806 5515 c4 -8 8 -15 10 -15 2 0 4 7 4 15 0 8 -4 15 -10 15 -5 0
-7 -7 -4 -15z"/>
<path d="M3015 5507 c-24 -18 -11 -37 25 -37 32 0 43 11 34 34 -8 20 -34 21
-59 3z"/>
<path d="M3127 5506 c-3 -8 0 -19 7 -25 18 -15 48 -3 44 18 -4 21 -44 27 -51
7z"/>
<path d="M2925 5500 c-4 -7 -3 -16 3 -22 14 -14 47 -6 47 12 0 18 -40 26 -50
10z"/>
<path d="M4845 5500 c-13 -6 -15 -9 -5 -9 8 0 22 4 30 9 18 12 2 12 -25 0z"/>
<path d="M2530 5485 c-15 -18 -5 -35 20 -35 23 0 32 13 24 34 -8 20 -28 21
-44 1z"/>
<path d="M2607 5485 c-4 -8 -2 -17 3 -20 6 -4 10 3 10 14 0 25 -6 27 -13 6z"/>
<path d="M5017 5477 c4 -21 0 -26 -27 -32 -19 -4 -36 -3 -43 4 -17 17 -24 13
-31 -15 -6 -22 -11 -25 -36 -22 -17 3 -30 1 -30 -4 0 -4 4 -8 9 -8 5 0 11 -10
15 -22 4 -15 9 -19 13 -12 12 19 73 11 89 -11 12 -16 14 -16 14 -3 0 9 -6 19
-12 21 -10 4 -10 6 0 6 23 2 12 20 -15 23 -14 2 -28 9 -31 16 -3 11 8 13 52
10 l57 -3 -7 30 c-7 36 -23 57 -17 22z m-77 -87 c0 -5 -4 -10 -10 -10 -5 0
-10 5 -10 10 0 6 5 10 10 10 6 0 10 -4 10 -10z"/>
<path d="M2405 5480 c-11 -18 10 -32 41 -28 40 4 38 32 -3 36 -17 2 -34 -2
-38 -8z"/>
<path d="M4870 5481 c0 -5 5 -13 10 -16 6 -3 10 -2 10 4 0 5 -4 13 -10 16 -5
3 -10 2 -10 -4z"/>
<path d="M1650 5435 c0 -32 4 -45 14 -45 19 0 27 24 19 60 -9 48 -33 38 -33
-15z"/>
<path d="M2335 5471 c-19 -8 -19 -8 4 -20 19 -11 25 -11 32 0 18 29 5 36 -36
20z"/>
<path d="M1733 5459 c-15 -15 -5 -39 17 -39 22 0 35 30 18 42 -17 10 -22 10
-35 -3z"/>
<path d="M1813 5459 c-18 -18 -3 -39 27 -39 27 0 46 22 34 41 -7 13 -48 11
-61 -2z"/>
<path d="M1927 5463 c-12 -11 -8 -23 8 -23 8 0 15 7 15 15 0 16 -12 20 -23 8z"/>
<path d="M4770 5436 c0 -23 2 -23 38 -15 20 5 41 9 46 9 5 0 6 3 2 7 -4 4 -23
6 -43 4 -23 -2 -33 1 -29 8 4 6 2 11 -3 11 -6 0 -11 -11 -11 -24z"/>
<path d="M1126 5424 c-8 -21 1 -34 24 -34 10 0 21 4 24 9 10 16 -5 41 -24 41
-10 0 -21 -7 -24 -16z"/>
<path d="M1207 5433 c-13 -12 -7 -32 12 -38 26 -8 51 4 51 26 0 14 -7 19 -28
19 -16 0 -32 -3 -35 -7z"/>
<path d="M1322 5423 c5 -25 28 -28 28 -4 0 12 -6 21 -16 21 -9 0 -14 -7 -12
-17z"/>
<path d="M1054 5377 c-8 -21 2 -35 16 -21 5 5 6 15 0 24 -8 12 -10 12 -16 -3z"/>
<path d="M3330 5365 c0 -14 -5 -25 -12 -25 -9 0 -9 -3 0 -12 7 -7 12 -29 12
-50 0 -21 5 -38 10 -38 6 0 10 32 10 75 0 43 -4 75 -10 75 -5 0 -10 -11 -10
-25z"/>
<path d="M3457 5383 c-11 -10 -8 -131 3 -138 6 -4 10 7 10 24 0 42 30 41 55
-1 11 -19 20 -27 23 -19 2 7 -1 18 -7 24 -14 14 -15 47 -1 47 6 0 10 11 10 25
0 18 -7 28 -26 35 -29 12 -58 13 -67 3z m61 -15 c7 -7 12 -20 12 -30 0 -13 -8
-18 -30 -18 -27 0 -30 3 -30 30 0 22 5 30 18 30 10 0 23 -5 30 -12z"/>
<path d="M995 5370 c3 -5 11 -10 16 -10 6 0 7 5 4 10 -3 6 -11 10 -16 10 -6 0
-7 -4 -4 -10z"/>
<path d="M2952 5358 c-10 -29 -3 -138 9 -138 5 0 10 24 10 53 3 76 3 81 12 95
5 8 3 12 -8 12 -8 0 -19 -10 -23 -22z"/>
<path d="M3202 5345 c0 -16 2 -22 5 -12 2 9 2 23 0 30 -3 6 -5 -1 -5 -18z"/>
<path d="M3907 5364 c-3 -4 1 -20 10 -35 14 -23 15 -31 5 -41 -16 -16 -15 -28
4 -28 12 0 14 10 12 52 -3 48 -15 68 -31 52z"/>
<path d="M3602 5348 c-16 -16 -16 -80 0 -96 31 -31 88 1 88 50 0 45 -58 76
-88 46z m66 -50 c3 -36 2 -38 -26 -38 -23 0 -31 5 -36 24 -9 38 3 58 33 54 22
-3 26 -8 29 -40z"/>
<path d="M3740 5349 c0 -5 4 -8 9 -5 12 8 41 -3 41 -15 0 -5 -7 -9 -15 -9 -8
0 -15 -4 -15 -10 0 -5 7 -10 15 -10 8 0 14 -8 12 -17 -1 -10 3 -20 8 -23 15
-7 18 69 4 86 -13 16 -59 19 -59 3z"/>
<path d="M3846 5335 c-7 -29 2 -75 15 -75 12 0 11 17 -1 25 -15 9 -12 36 7 57
14 16 14 18 1 18 -9 0 -19 -11 -22 -25z"/>
<path d="M2270 5311 c0 -23 7 -32 30 -43 35 -15 45 -35 29 -54 -9 -11 -8 -14
4 -14 21 0 32 37 16 57 -7 8 -24 19 -37 24 -19 7 -23 15 -20 34 4 17 1 25 -8
25 -9 0 -14 -11 -14 -29z"/>
<path d="M3087 5322 c-22 -24 -21 -65 1 -85 20 -18 72 -23 72 -7 0 6 -13 10
-29 10 -24 0 -41 14 -41 36 0 2 18 4 40 4 30 0 40 4 40 16 0 41 -55 58 -83 26z
m63 -11 c0 -13 -27 -21 -45 -15 -25 10 -17 24 15 24 17 0 30 -4 30 -9z"/>
<path d="M3262 5320 c-6 -11 -12 -28 -12 -38 0 -22 30 -52 51 -52 8 0 5 6 -9
16 -22 15 -32 74 -12 74 6 0 10 5 10 10 0 16 -14 11 -28 -10z"/>
<path d="M4971 5314 c0 -11 3 -14 6 -6 3 7 2 16 -1 19 -3 4 -6 -2 -5 -13z"/>
<path d="M2430 5311 c0 -5 9 -11 20 -14 26 -7 29 -71 4 -81 -25 -10 -46 14
-42 48 2 17 -1 33 -7 36 -6 3 -11 -25 -13 -72 -2 -49 1 -78 8 -78 5 0 10 11
10 25 0 21 5 25 28 25 15 0 33 5 40 12 18 18 15 79 -5 94 -21 15 -43 18 -43 5z"/>
<path d="M2548 5313 c-14 -4 -18 -15 -18 -59 0 -30 5 -54 10 -54 6 0 10 20 10
44 0 34 5 47 23 59 22 16 12 20 -25 10z"/>
<path d="M2670 5270 c0 -27 5 -50 10 -50 6 0 10 15 10 34 0 19 5 38 10 41 13
8 3 25 -16 25 -10 0 -14 -13 -14 -50z"/>
<path d="M2738 5309 c6 -7 12 -28 12 -45 0 -18 5 -36 11 -39 7 -5 9 9 7 41 -2
40 -7 49 -23 52 -16 3 -18 1 -7 -9z"/>
<path d="M2814 5306 c-8 -21 0 -79 11 -83 6 -2 10 18 10 47 0 48 -10 65 -21
36z"/>
<path d="M2878 5307 c6 -6 10 -38 10 -70 -1 -56 -1 -57 -29 -57 -16 0 -29 -4
-29 -10 0 -14 42 -12 63 4 13 10 17 28 17 80 0 61 -2 66 -21 66 -16 0 -19 -3
-11 -13z"/>
<path d="M2611 5288 c1 -13 5 -34 9 -48 7 -20 8 -16 9 23 1 26 -3 47 -9 47 -5
0 -10 -10 -9 -22z"/>
<path d="M3212 5270 c0 -19 2 -27 5 -17 2 9 2 25 0 35 -3 9 -5 1 -5 -18z"/>
<path d="M3716 5288 c-5 -11 -2 -23 7 -33 17 -17 47 -20 47 -5 0 6 -9 10 -19
10 -12 0 -21 8 -24 23 -3 19 -5 20 -11 5z"/>
<path d="M3032 5250 c0 -14 2 -19 5 -12 2 6 2 18 0 25 -3 6 -5 1 -5 -13z"/>
<path d="M1973 5162 c-29 -4 -29 -10 0 -46 25 -31 47 -29 47 5 0 10 5 19 10
19 6 0 10 6 10 13 0 12 -27 16 -67 9z"/>
<path d="M6270 5136 c-80 -6 -151 -15 -157 -19 -7 -5 -13 -26 -13 -48 l0 -39
-73 0 c-110 0 -106 10 -93 -223 9 -156 14 -200 26 -207 8 -5 40 -10 71 -10
l57 0 7 -102 c4 -57 11 -111 16 -120 9 -16 28 -18 174 -18 185 0 188 1 199 73
5 33 13 47 30 55 22 10 23 14 19 114 -2 56 -6 140 -9 185 l-6 82 -24 -16 -25
-16 7 -144 c7 -136 6 -145 -13 -163 -12 -10 -23 -38 -27 -64 l-7 -46 -139 0
-138 0 -7 103 c-4 56 -11 110 -16 120 -8 13 -23 17 -73 17 l-63 0 -7 156 c-4
86 -6 157 -4 159 2 2 38 5 81 6 87 2 97 10 97 72 l0 34 83 7 c148 11 217 18
217 23 0 14 -23 43 -33 42 -7 -1 -77 -7 -157 -13z"/>
<path d="M3345 5120 c-13 -6 -15 -9 -5 -9 8 0 22 4 30 9 18 12 2 12 -25 0z"/>
<path d="M3370 5100 c0 -5 5 -10 11 -10 5 0 7 5 4 10 -3 6 -8 10 -11 10 -2 0
-4 -4 -4 -10z"/>
<path d="M1951 5081 c-8 -5 -11 -16 -8 -25 8 -21 43 -21 51 0 11 30 -13 44
-43 25z"/>
<path d="M3520 5083 c0 -16 -59 -28 -73 -14 -17 17 -24 13 -31 -15 -6 -22 -11
-25 -36 -22 -17 3 -30 1 -30 -4 0 -4 4 -8 9 -8 5 0 11 -10 15 -22 4 -15 9 -19
13 -12 12 19 73 11 89 -11 12 -16 14 -16 14 -3 0 9 -6 19 -12 21 -10 4 -10 6
0 6 23 2 12 20 -15 23 -14 2 -28 9 -31 16 -3 11 8 13 52 10 33 -2 56 1 56 7 0
15 -20 42 -20 28z m-80 -73 c0 -5 -4 -10 -10 -10 -5 0 -10 5 -10 10 0 6 5 10
10 10 6 0 10 -4 10 -10z"/>
<path d="M3270 5056 c0 -23 2 -23 38 -15 20 5 41 9 46 9 5 0 6 3 2 7 -4 4 -23
6 -43 4 -23 -2 -33 1 -29 8 4 6 2 11 -3 11 -6 0 -11 -11 -11 -24z"/>
<path d="M1883 5033 c9 -9 20 -13 24 -9 4 4 1 11 -7 16 -25 16 -35 11 -17 -7z"/>
<path d="M6388 4963 c36 -7 27 -33 -12 -33 -19 0 -37 -3 -39 -7 -3 -5 29 -6
71 -3 69 4 77 7 77 25 0 18 -7 20 -60 21 -33 1 -50 0 -37 -3z"/>
<path d="M3471 4934 c0 -11 3 -14 6 -6 3 7 2 16 -1 19 -3 4 -6 -2 -5 -13z"/>
<path d="M5292 4811 c3 -127 9 -164 23 -149 9 9 -8 288 -17 288 -6 0 -8 -59
-6 -139z"/>
<path d="M6137 4913 c-4 -3 -7 -37 -7 -75 0 -56 3 -70 18 -75 9 -3 27 -15 40
-26 19 -18 22 -18 22 -4 0 19 16 23 22 6 3 -8 19 -5 51 9 44 20 47 23 47 60 0
29 -7 45 -28 65 -35 34 -45 34 -71 0 -11 -16 -21 -22 -21 -14 0 13 -48 61 -61
61 -3 0 -9 -3 -12 -7z"/>
<path d="M6337 4889 c7 -7 15 -10 18 -7 3 3 -2 9 -12 12 -14 6 -15 5 -6 -5z"/>
<path d="M6090 4810 c0 -88 -2 -86 81 -114 51 -18 89 -20 89 -6 0 6 -13 10
-29 10 -17 0 -33 5 -36 10 -3 6 -16 10 -28 10 -45 1 -57 22 -57 99 0 41 -4 71
-10 71 -6 0 -10 -33 -10 -80z"/>
<path d="M6403 4883 c15 -2 39 -2 55 0 15 2 2 4 -28 4 -30 0 -43 -2 -27 -4z"/>
<path d="M6350 4775 c0 -35 4 -54 10 -50 6 3 10 26 10 50 0 24 -4 47 -10 50
-6 4 -10 -15 -10 -50z"/>
<path d="M1735 4770 c-8 -13 3 -30 20 -30 11 0 25 20 25 36 0 9 -39 4 -45 -6z"/>
<path d="M6300 4710 c0 -5 5 -10 10 -10 6 0 10 5 10 10 0 6 -4 10 -10 10 -5 0
-10 -4 -10 -10z"/>
<path d="M1756 4685 c-6 -16 12 -65 24 -65 19 0 30 29 20 54 -10 29 -35 35
-44 11z"/>
<path d="M1780 4580 c0 -23 26 -38 41 -23 14 14 0 43 -22 43 -12 0 -19 -7 -19
-20z"/>
<path d="M5310 4236 c0 -128 6 -172 26 -180 7 -3 11 0 8 7 -4 12 -11 143 -13
240 -1 26 -5 47 -11 47 -6 0 -10 -45 -10 -114z"/>
<path d="M5815 4250 c-3 -5 -1 -10 4 -10 6 0 11 5 11 10 0 6 -2 10 -4 10 -3 0
-8 -4 -11 -10z"/>
<path d="M6122 4240 c0 -14 2 -19 5 -12 2 6 2 18 0 25 -3 6 -5 1 -5 -13z"/>
<path d="M6241 4224 c0 -11 3 -14 6 -6 3 7 2 16 -1 19 -3 4 -6 -2 -5 -13z"/>
<path d="M3416 4167 c-458 -33 -552 -37 -572 -26 -36 19 -78 2 -82 -35 -2 -15
3 -35 11 -44 11 -14 24 -226 63 -1041 29 -614 53 -1028 59 -1035 14 -17 1182
23 1193 41 5 8 -91 2162 -97 2169 -7 9 -103 5 -575 -29z m534 -44 c-1 -16 20
-484 46 -1041 26 -556 45 -1014 43 -1016 -6 -5 -1099 -40 -1103 -35 -2 2 -24
447 -50 989 -25 542 -48 1001 -49 1020 l-2 35 500 36 c275 20 526 37 558 38
56 1 57 0 57 -26z"/>
<path d="M3308 3583 c67 -2 177 -2 245 0 67 1 12 3 -123 3 -135 0 -190 -2
-122 -3z"/>
<path d="M3210 3553 c0 -5 7 -26 16 -48 8 -22 13 -29 11 -15 -3 14 -8 33 -12
43 -7 16 7 17 200 17 194 0 207 -1 199 -17 -4 -10 -9 -40 -10 -68 l-2 -50 7
52 c3 29 12 58 19 65 6 6 12 16 12 20 0 4 -99 8 -220 8 -121 0 -220 -3 -220
-7z"/>
<path d="M3243 3380 c0 -30 2 -43 4 -27 2 15 2 39 0 55 -2 15 -4 2 -4 -28z"/>
<path d="M3603 3360 c0 -25 2 -35 4 -22 2 12 2 32 0 45 -2 12 -4 2 -4 -23z"/>
<path d="M3251 3299 c0 -8 -8 -24 -17 -35 -14 -17 -15 -17 -10 -1 3 11 2 16
-4 12 -6 -3 -10 -19 -10 -36 0 -29 -14 -40 -23 -16 -3 7 -6 5 -6 -5 -1 -28 33
-21 52 11 20 35 56 41 236 41 l126 0 24 -35 c23 -35 44 -44 56 -25 3 6 -1 7
-9 4 -12 -5 -16 1 -16 22 0 19 -3 24 -8 16 -6 -9 -12 -5 -22 13 l-14 26 -172
-7 c-163 -6 -172 -6 -177 12 -3 13 -5 14 -6 3z"/>
<path d="M3388 3093 c18 -2 45 -2 60 0 15 2 0 4 -33 4 -33 0 -45 -2 -27 -4z"/>
<path d="M1874 4184 c3 -9 6 -18 6 -20 0 -2 9 -4 20 -4 13 0 20 7 20 20 0 15
-7 20 -26 20 -20 0 -25 -4 -20 -16z"/>
<path d="M6725 4190 c-3 -5 -1 -10 4 -10 6 0 11 5 11 10 0 6 -2 10 -4 10 -3 0
-8 -4 -11 -10z"/>
<path d="M1903 4113 c-15 -5 -17 -41 -4 -62 13 -21 41 -5 41 22 0 27 -18 47
-37 40z"/>
<path d="M5860 4040 c0 -5 5 -10 10 -10 6 0 10 5 10 10 0 6 -4 10 -10 10 -5 0
-10 -4 -10 -10z"/>
<path d="M6490 4030 c0 -5 5 -10 10 -10 6 0 10 5 10 10 0 6 -4 10 -10 10 -5 0
-10 -4 -10 -10z"/>
<path d="M1917 4014 c-4 -4 -7 -18 -7 -31 0 -17 6 -23 21 -23 16 0 20 5 17 27
-3 26 -18 39 -31 27z"/>
<path d="M6010 3990 c0 -5 5 -10 10 -10 6 0 10 5 10 10 0 6 -4 10 -10 10 -5 0
-10 -4 -10 -10z"/>
<path d="M6561 3984 c0 -11 3 -14 6 -6 3 7 2 16 -1 19 -3 4 -6 -2 -5 -13z"/>
<path d="M6395 3770 c-3 -5 -1 -10 4 -10 6 0 11 5 11 10 0 6 -2 10 -4 10 -3 0
-8 -4 -11 -10z"/>
<path d="M5336 3752 c-10 -16 -5 -252 6 -258 5 -3 7 -12 4 -19 -2 -7 2 -16 10
-19 13 -5 15 4 11 61 -3 38 -8 106 -10 151 -5 84 -10 102 -21 84z"/>
<path d="M5690 3696 c-113 -6 -211 -15 -217 -19 -8 -5 -13 -29 -13 -56 0 -36
-5 -52 -19 -62 -18 -13 -18 -25 -10 -224 4 -115 8 -256 8 -313 1 -101 2 -104
31 -134 24 -24 30 -38 30 -74 0 -43 -2 -45 -65 -91 -57 -41 -115 -113 -115
-143 0 -4 59 -65 130 -136 89 -88 140 -132 163 -137 46 -12 286 79 302 114 5
13 18 32 28 41 15 16 17 44 17 283 l0 265 39 0 c22 0 43 5 47 12 4 7 7 74 5
150 -2 131 -1 140 19 156 18 14 20 23 14 59 -4 29 -12 44 -25 48 -16 5 -19 16
-19 66 0 46 -4 63 -20 79 -11 11 -20 27 -20 35 0 10 -10 15 -30 15 -24 0 -30
4 -30 21 0 28 -18 59 -33 57 -7 0 -104 -6 -217 -12z m118 -59 c-28 -11 -28
-11 -28 -109 l0 -98 -24 6 c-32 8 -66 -26 -66 -65 0 -39 21 -54 63 -46 29 6
37 3 46 -14 8 -14 22 -21 39 -21 16 0 33 -5 40 -12 9 -9 15 -9 24 0 7 7 24 12
39 12 16 0 30 7 35 18 12 28 21 -30 23 -140 l1 -98 -31 0 c-52 0 -69 -15 -69
-64 l0 -43 -117 -11 c-285 -27 -281 -27 -287 -1 -3 13 -8 142 -11 286 -7 256
-6 262 14 282 16 16 21 34 21 71 l0 49 103 4 c211 6 215 6 185 -6z m76 -2 c11
-8 15 -15 9 -15 -7 0 -15 5 -18 10 -3 6 -11 10 -16 10 -6 0 -7 -4 -4 -10 3 -5
-3 -10 -15 -10 -17 0 -19 2 -8 15 16 18 28 18 52 0z m51 -25 c3 -5 14 -10 25
-10 13 0 17 -7 16 -25 0 -14 -1 -25 -2 -25 0 0 -15 16 -33 35 -17 19 -27 35
-22 35 5 0 13 -4 16 -10z m-97 -24 c-3 -15 0 -27 8 -30 8 -3 11 0 8 8 -8 22
26 27 51 8 25 -18 39 -50 51 -114 6 -34 4 -38 -15 -38 -17 0 -20 4 -15 24 3
13 0 43 -7 67 -7 27 -14 37 -16 27 -3 -10 -20 -25 -39 -34 -31 -15 -34 -20
-30 -50 2 -24 -1 -34 -10 -34 -8 0 -14 4 -14 9 0 5 -3 17 -7 27 -4 12 -3 15 5
10 7 -4 12 -1 12 8 0 8 -4 18 -10 21 -5 3 -10 28 -10 55 0 38 4 50 18 53 9 3
19 5 21 6 2 0 1 -10 -1 -23z m60 -106 c5 -13 3 -13 -12 -1 -15 13 -19 13 -27
0 -5 -8 -9 -9 -9 -3 0 28 39 31 48 4z m-11 -52 c-3 -7 -5 -2 -5 12 0 14 2 19
5 13 2 -7 2 -19 0 -25z m-107 -32 c0 -6 4 -4 10 4 14 22 22 6 11 -21 -5 -13
-10 -17 -11 -9 0 12 -4 10 -17 -5 -15 -19 -15 -19 -9 8 6 25 4 28 -16 25 -17
-2 -23 -9 -22 -25 0 -13 -3 -23 -8 -23 -15 0 -8 49 8 58 20 11 54 4 54 -12z
m270 4 c-8 -5 -7 -9 4 -13 17 -7 22 -32 8 -41 -5 -3 -20 1 -35 9 -15 8 -27 10
-27 5 0 -5 -7 -7 -16 -3 -10 4 -12 8 -4 13 6 3 8 15 4 24 -5 14 -3 17 12 14
10 -1 21 -12 24 -23 3 -11 14 -21 25 -23 19 -2 19 -2 1 12 -19 16 -15 53 5 40
8 -5 8 -9 -1 -14z m-199 -30 c5 0 9 9 9 21 0 27 25 19 26 -8 1 -17 -5 -20 -37
-20 -44 0 -44 0 -27 30 l13 22 3 -22 c2 -13 8 -23 13 -23z m72 33 c-7 -2 -13
-11 -13 -19 0 -8 6 -11 15 -8 8 4 15 1 15 -5 0 -6 -9 -11 -20 -11 -13 0 -20 7
-20 18 0 21 9 32 24 31 6 0 5 -3 -1 -6z m42 -14 c-6 -33 -15 -36 -15 -6 0 15
4 27 9 27 6 0 8 -10 6 -21z m-117 -543 c4 -45 -12 -71 -74 -122 l-47 -39 -15
23 c-8 12 -20 22 -26 22 -6 0 -26 13 -44 29 -27 25 -32 37 -32 75 0 34 4 46
15 46 11 0 15 -11 15 -42 0 -34 6 -49 32 -75 38 -39 48 -41 48 -10 0 16 -9 28
-25 35 -34 16 -32 46 5 72 27 20 31 20 54 5 38 -25 41 -47 11 -73 -16 -13 -25
-30 -23 -42 3 -19 6 -18 41 10 34 29 37 36 37 82 0 60 23 63 28 4z m52 -151
c0 -182 -1 -196 -20 -215 -11 -11 -20 -26 -20 -32 0 -7 -50 -32 -111 -55 -94
-36 -113 -41 -132 -30 -12 6 -70 59 -129 116 l-106 104 15 32 c8 17 37 47 65
65 92 63 98 72 98 140 0 47 3 60 15 60 11 0 15 -12 15 -45 0 -36 6 -51 32 -81
l33 -37 -53 5 -52 5 0 -73 c0 -90 18 -99 22 -12 l3 62 54 -3 c37 -2 60 -9 75
-23 l21 -19 -27 6 -28 7 0 -75 c0 -69 2 -77 29 -106 37 -39 65 -39 102 0 28
30 30 36 27 103 l-3 71 -42 -3 c-24 -2 -43 0 -42 5 0 4 27 30 60 58 58 49 59
51 59 101 0 53 5 64 27 64 10 0 13 -39 13 -195z m-164 -86 c10 -17 -13 -36
-27 -22 -12 12 -4 33 11 33 5 0 12 -5 16 -11z m60 0 c10 -17 -13 -36 -27 -22
-12 12 -4 33 11 33 5 0 12 -5 16 -11z m-8 -81 c-8 -22 -37 -34 -55 -22 -33 21
-26 34 17 34 28 0 40 -4 38 -12z"/>
<path d="M5694 2835 c-3 -8 -3 -19 1 -25 11 -18 25 -11 25 15 0 27 -17 34 -26
10z"/>
<path d="M5740 2827 c0 -27 13 -36 26 -16 3 6 -1 18 -10 27 -15 15 -16 14 -16
-11z"/>
<path d="M5590 2660 c0 -5 5 -10 10 -10 6 0 10 5 10 10 0 6 -4 10 -10 10 -5 0
-10 -4 -10 -10z"/>
<path d="M5600 2591 c0 -12 29 -23 41 -15 18 10 9 24 -16 24 -14 0 -25 -4 -25
-9z"/>
<path d="M5575 2550 c3 -5 8 -10 11 -10 2 0 4 5 4 10 0 6 -5 10 -11 10 -5 0
-7 -4 -4 -10z"/>
<path d="M5605 2530 c3 -5 13 -10 21 -10 8 0 14 5 14 10 0 6 -9 10 -21 10 -11
0 -17 -4 -14 -10z"/>
<path d="M1926 3601 c-10 -16 5 -42 23 -39 21 4 21 42 -1 46 -9 2 -19 -1 -22
-7z"/>
<path d="M5020 3548 c0 -17 3 -19 9 -9 5 7 15 17 22 22 10 6 8 9 -8 9 -17 0
-23 -6 -23 -22z"/>
<path d="M5160 3510 c0 -19 3 -21 12 -12 9 9 9 15 0 24 -9 9 -12 7 -12 -12z"/>
<path d="M1925 3501 c-9 -30 4 -63 23 -59 12 2 17 14 17 38 0 40 -29 55 -40
21z"/>
<path d="M5020 3462 c0 -29 2 -31 20 -20 12 8 15 15 8 19 -6 4 -14 13 -19 20
-6 10 -9 4 -9 -19z"/>
<path d="M1927 3405 c-9 -23 3 -45 25 -45 15 0 19 6 16 27 -3 31 -32 43 -41
18z"/>
<path d="M1940 3310 c20 -13 33 -13 25 0 -3 6 -14 10 -23 10 -15 0 -15 -2 -2
-10z"/>
<path d="M5356 3151 c-10 -15 -3 -245 8 -263 7 -12 6 -21 -4 -33 -10 -12 -10
-19 -2 -27 29 -29 34 8 27 166 -7 143 -14 182 -29 157z"/>
<path d="M1400 3088 c0 -17 3 -19 9 -9 5 7 15 17 22 22 10 6 8 9 -8 9 -17 0
-23 -6 -23 -22z"/>
<path d="M1540 3050 c0 -19 3 -21 12 -12 9 9 9 15 0 24 -9 9 -12 7 -12 -12z"/>
<path d="M1400 3002 c0 -29 2 -31 20 -20 12 8 15 15 8 19 -6 4 -14 13 -19 20
-6 10 -9 4 -9 -19z"/>
<path d="M1519 3003 c-13 -16 -12 -17 4 -4 9 7 17 15 17 17 0 8 -8 3 -21 -13z"/>
<path d="M1913 3004 c-28 -12 -11 -24 33 -24 32 0 44 4 42 13 -5 13 -54 20
-75 11z"/>
<path d="M1904 2881 c3 -41 6 -101 6 -135 0 -47 3 -57 12 -48 7 7 23 13 38 13
16 1 19 3 8 6 -22 5 -24 31 -4 39 23 9 28 35 10 55 -14 15 -14 21 -4 34 8 9
10 29 7 50 -3 19 -2 35 4 35 5 0 9 4 9 9 0 5 -21 11 -46 13 l-47 3 7 -74z"/>
<path d="M6370 2920 c0 -5 5 -10 10 -10 6 0 10 5 10 10 0 6 -4 10 -10 10 -5 0
-10 -4 -10 -10z"/>
<path d="M6260 2862 c0 -59 -18 -92 -48 -92 -7 0 -12 -4 -12 -10 0 -6 32 -10
75 -10 43 0 75 4 75 10 0 6 -8 10 -18 10 -34 0 -52 32 -52 93 0 31 -4 57 -10
57 -6 0 -10 -26 -10 -58z"/>
<path d="M2037 2799 c-15 -9 -16 -22 -12 -107 2 -53 7 -165 10 -248 5 -137 4
-151 -12 -151 -20 0 -53 27 -53 43 0 6 7 17 15 24 28 23 18 47 -21 52 l-35 4
5 -105 c10 -173 16 -213 33 -207 8 3 22 6 30 6 11 0 9 5 -7 18 l-23 18 26 27
c15 14 29 21 33 16 18 -30 32 -253 27 -442 -6 -204 -2 -257 18 -257 17 0 159
-144 159 -161 0 -8 -10 -25 -21 -38 l-21 -23 24 -26 c14 -15 35 -52 48 -82 23
-56 40 -84 47 -77 2 3 -1 15 -7 28 -9 19 -8 31 3 52 l14 27 52 -55 c54 -57 81
-72 60 -34 -8 16 -8 28 0 45 8 18 8 24 -2 24 -7 0 -45 33 -86 74 -68 68 -72
75 -60 95 23 36 68 21 70 -24 0 -19 1 -18 10 3 6 17 4 30 -7 47 -22 33 -3 69
31 61 14 -4 27 -1 31 6 5 8 2 9 -9 5 -9 -3 -19 -2 -22 3 -9 14 42 13 509 -7
l409 -17 -7 -112 c-6 -93 -4 -113 9 -124 21 -17 19 -46 -5 -70 -18 -18 -33
-20 -133 -20 -100 0 -116 2 -132 20 -12 13 -15 27 -11 45 l6 25 -167 0 c-130
0 -164 -3 -155 -12 17 -17 15 -54 -4 -72 -14 -15 -12 -16 22 -16 46 0 459 -18
537 -24 54 -4 58 -3 71 22 10 19 14 72 15 174 0 81 3 158 7 172 4 18 1 27 -13
34 -10 5 -210 17 -445 27 -396 17 -427 20 -431 37 -3 10 0 18 6 18 7 0 5 5 -4
10 -15 8 -17 74 -24 617 -4 341 -11 616 -16 626 -9 15 -28 17 -192 17 -105 0
-189 -5 -200 -11z m118 -9 c4 -6 -5 -10 -20 -10 -15 0 -24 4 -20 10 3 6 12 10
20 10 8 0 17 -4 20 -10z m-22 -51 c-14 -14 -5 -49 11 -43 7 3 11 -7 11 -27 0
-37 20 -50 30 -20 9 28 27 27 24 -1 -2 -13 0 -29 4 -35 10 -15 37 -17 37 -3 0
6 -6 10 -14 10 -9 0 -16 17 -21 50 -6 43 -10 50 -25 45 -12 -4 -19 1 -23 15
-5 18 0 20 53 20 55 0 58 -1 52 -22 -4 -16 -2 -20 10 -16 13 6 13 -1 1 -53
-12 -53 -12 -62 3 -84 15 -23 43 -37 29 -15 -3 5 0 7 7 5 8 -3 22 1 33 9 17
12 18 17 5 57 -7 24 -16 61 -20 82 -7 34 -5 37 16 37 20 0 23 -6 28 -52 8 -84
18 -1081 11 -1100 -10 -25 -45 -23 -45 1 0 33 -15 32 -59 -1 -38 -30 -54 -58
-31 -58 5 0 7 7 4 15 -4 8 -2 15 4 15 5 0 12 -7 16 -15 3 -8 13 -15 22 -15 13
0 11 4 -7 20 -20 16 -21 19 -7 20 9 0 20 -5 23 -10 4 -6 13 -9 20 -8 8 2 14
-1 13 -6 0 -5 5 -12 11 -16 7 -4 2 -11 -14 -18 -15 -7 -24 -8 -21 -4 3 5 -16
8 -42 8 -45 -1 -59 -11 -61 -42 -1 -17 73 -12 80 5 4 11 7 9 11 -7 5 -18 2
-22 -19 -22 -13 0 -21 -4 -18 -10 3 -5 15 -10 26 -10 10 0 19 -3 19 -6 0 -14
-56 -94 -65 -94 -6 0 -40 29 -75 65 l-64 65 -4 108 c-2 94 -1 105 12 89 10
-13 15 -15 18 -5 4 10 10 9 30 -4 26 -17 26 -17 32 17 7 36 37 61 62 51 9 -3
14 1 14 13 0 10 9 26 20 36 21 19 27 45 9 45 -14 0 -100 -59 -116 -79 -9 -12
-12 -12 -13 -3 0 7 -4 11 -8 8 -5 -3 -28 4 -51 16 -28 14 -38 23 -30 29 12 7
14 121 4 389 -3 63 -8 217 -11 343 l-7 227 33 0 c25 0 31 -3 23 -11z m272
-1270 c4 -5 -3 -9 -14 -9 -26 0 -35 15 -11 17 11 1 22 -2 25 -8z m-139 -230
c19 -22 19 -22 -3 -10 -13 6 -23 16 -23 21 0 15 5 12 26 -11z"/>
<path d="M2227 2693 c-2 -5 -1 -19 4 -33 7 -23 7 -23 8 8 1 31 -3 40 -12 25z"/>
<path d="M2254 2665 c-10 -26 1 -35 13 -10 6 14 7 25 2 25 -5 0 -12 -7 -15
-15z"/>
<path d="M2162 2260 c0 -14 2 -19 5 -12 2 6 2 18 0 25 -3 6 -5 1 -5 -13z"/>
<path d="M2330 2235 c0 -28 4 -44 10 -40 6 3 10 21 10 40 0 19 -4 37 -10 40
-6 4 -10 -12 -10 -40z"/>
<path d="M2170 2204 c0 -9 5 -14 12 -12 18 6 21 28 4 28 -9 0 -16 -7 -16 -16z"/>
<path d="M2173 2000 c0 -41 2 -58 4 -37 2 20 2 54 0 75 -2 20 -4 3 -4 -38z"/>
<path d="M2350 2000 c0 -40 4 -70 10 -70 6 0 10 30 10 70 0 40 -4 70 -10 70
-6 0 -10 -30 -10 -70z"/>
<path d="M2290 1982 c0 -33 4 -51 10 -47 13 8 13 65 0 85 -7 11 -10 0 -10 -38z"/>
<path d="M2223 1823 c9 -2 23 -2 30 0 6 3 -1 5 -18 5 -16 0 -22 -2 -12 -5z"/>
<path d="M4464 2587 c-82 -31 -138 -93 -160 -176 -22 -85 -5 -135 131 -401 45
-87 82 -173 85 -195 5 -36 8 -40 37 -43 24 -2 34 2 43 18 l11 21 17 -21 c23
-28 56 -17 49 17 -3 15 2 27 12 33 11 7 -4 9 -51 10 -38 0 -68 3 -68 7 0 3 38
79 84 167 100 193 127 264 128 332 2 161 -170 286 -318 231z m171 -25 c95 -46
147 -151 124 -250 -11 -49 -108 -252 -120 -252 -4 0 8 35 28 77 38 83 73 178
73 200 0 8 -12 13 -33 13 -29 0 -35 -5 -50 -39 -23 -51 -60 -75 -117 -75 -57
0 -94 24 -117 75 -15 34 -21 39 -50 39 -21 0 -33 -5 -33 -13 0 -24 47 -151 79
-214 17 -35 28 -63 23 -63 -13 0 -110 200 -121 252 -40 178 151 330 314 250z"/>
<path d="M4471 2429 c-81 -80 10 -213 112 -164 68 32 81 115 26 166 -44 41
-96 40 -138 -2z m126 -11 c42 -45 31 -112 -22 -134 -60 -25 -114 10 -115 75 0
73 89 111 137 59z"/>
<path d="M1686 2331 c-4 -5 -2 -12 3 -15 5 -4 12 -2 15 3 4 5 2 12 -3 15 -5 4
-12 2 -15 -3z"/>
<path d="M1757 2283 c-11 -10 -8 -73 3 -73 6 0 10 18 10 40 0 41 -2 45 -13 33z"/>
<path d="M1891 2243 c1 -43 2 -45 9 -18 11 44 11 65 0 65 -5 0 -9 -21 -9 -47z"/>
<path d="M1837 2248 c8 -44 13 -48 13 -10 0 17 -4 34 -10 37 -6 4 -7 -6 -3
-27z"/>
<path d="M2550 2244 c0 -8 5 -12 10 -9 6 4 8 11 5 16 -9 14 -15 11 -15 -7z"/>
<path d="M1690 2200 c0 -5 5 -10 11 -10 5 0 7 5 4 10 -3 6 -8 10 -11 10 -2 0
-4 -4 -4 -10z"/>
<path d="M5780 2188 c0 -17 3 -19 9 -9 5 7 15 17 22 22 10 6 8 9 -8 9 -17 0
-23 -6 -23 -22z"/>
<path d="M5920 2150 c0 -19 3 -21 12 -12 9 9 9 15 0 24 -9 9 -12 7 -12 -12z"/>
<path d="M5780 2093 c0 -26 3 -33 9 -24 5 7 13 16 18 20 5 3 1 14 -9 24 -17
16 -18 15 -18 -20z"/>
<path d="M5045 1862 c-5 -4 -11 -26 -12 -49 -1 -37 2 -43 20 -43 16 0 18 3 9
12 -17 17 -15 48 5 70 13 14 13 18 2 18 -8 0 -18 -4 -24 -8z"/>
<path d="M1963 1805 c3 -16 9 -94 13 -172 6 -136 7 -141 25 -130 12 7 17 18
13 29 -3 10 2 25 10 34 20 20 20 29 0 49 -13 12 -14 19 -5 28 19 19 14 68 -9
74 -26 7 -25 21 1 49 23 24 18 44 -10 44 -9 0 -23 6 -30 13 -11 10 -12 6 -8
-18z"/>
<path d="M4732 1800 c0 -14 2 -19 5 -12 2 6 2 18 0 25 -3 6 -5 1 -5 -13z"/>
<path d="M4480 1790 c0 -5 5 -10 10 -10 6 0 10 5 10 10 0 6 -4 10 -10 10 -5 0
-10 -4 -10 -10z"/>
<path d="M4510 1722 c0 -15 5 -18 25 -14 30 5 28 26 -3 30 -16 3 -22 -2 -22
-16z"/>
<path d="M3695 1690 c-10 -16 4 -30 22 -23 11 4 14 3 9 -5 -4 -7 -1 -12 8 -12
24 0 28 18 6 25 -11 3 -20 11 -20 16 0 12 -17 12 -25 -1z"/>
<path d="M3745 1640 c-3 -5 1 -10 9 -10 9 0 16 5 16 10 0 6 -4 10 -9 10 -6 0
-13 -4 -16 -10z"/>
<path d="M3777 1624 c-3 -4 21 -38 53 -77 33 -39 60 -74 60 -79 0 -4 -8 -12
-19 -17 -33 -18 -34 -42 -2 -75 16 -17 34 -49 40 -71 6 -22 15 -45 19 -52 13
-21 83 -45 111 -38 34 8 121 67 121 82 0 14 -80 28 -111 20 -17 -5 -16 -1 8
20 32 31 18 41 -24 19 -27 -13 -30 -13 -41 4 -9 14 -8 19 3 24 25 9 17 32 -22
58 -21 13 -37 30 -35 36 1 7 -4 12 -12 12 -8 0 -43 32 -78 70 -36 39 -67 67
-71 64z m154 -204 c10 -18 24 -37 31 -42 9 -5 9 -8 1 -8 -6 0 -18 7 -27 15
-21 22 -29 19 -24 -9 5 -24 4 -24 -18 -8 -33 24 -39 50 -18 73 22 25 33 21 55
-21z"/>
<path d="M3570 1468 c0 -19 2 -20 10 -8 13 19 13 30 0 30 -5 0 -10 -10 -10
-22z"/>
<path d="M3590 1464 c0 -17 17 -36 24 -26 3 5 -1 15 -9 22 -8 7 -15 9 -15 4z"/>
<path d="M4548 1398 c9 -9 15 -9 24 0 9 9 7 12 -12 12 -19 0 -21 -3 -12 -12z"/>
<path d="M4550 1320 c0 -24 29 -38 40 -20 12 19 1 40 -21 40 -12 0 -19 -7 -19
-20z"/>
<path d="M3583 1286 c-13 -6 -23 -14 -23 -18 0 -3 -15 -4 -32 -2 -41 7 -45 7
-88 -1 -69 -13 -80 -59 -12 -51 22 3 39 0 44 -7 6 -9 10 -9 17 2 7 11 9 11 13
0 3 -8 -4 -19 -16 -26 -18 -10 -16 -12 28 -18 26 -4 82 -4 125 0 42 4 84 7 94
7 10 -1 15 4 11 10 -4 7 -2 8 4 4 16 -9 52 25 52 49 0 16 -2 17 -10 5 -8 -12
-10 -12 -16 3 -3 9 -17 17 -29 17 -13 0 -36 5 -51 10 -21 8 -29 8 -36 -2 -6
-11 -8 -11 -8 0 0 7 -5 10 -11 7 -6 -4 -16 -1 -22 7 -9 11 -17 12 -34 4z m5
-113 c-16 -2 -40 -2 -55 0 -16 2 -3 4 27 4 30 0 43 -2 28 -4z"/>
<path d="M2341 1274 c0 -11 3 -14 6 -6 3 7 2 16 -1 19 -3 4 -6 -2 -5 -13z"/>
<path d="M4561 1257 c-8 -11 -9 -22 -1 -42 14 -36 35 -27 35 15 0 37 -15 49
-34 27z"/>
<path d="M4520 1176 c0 -8 -3 -22 -6 -31 -6 -14 0 -16 42 -13 36 2 49 7 49 18
0 9 -9 15 -24 15 -14 0 -26 6 -29 13 -5 17 -32 15 -32 -2z"/>
<path d="M4200 1140 c-10 -18 -8 -20 21 -20 31 0 32 0 14 20 -10 11 -19 20
-21 20 -2 0 -8 -9 -14 -20z"/>
<path d="M2314 1139 c-9 -16 21 -43 41 -36 13 5 14 11 5 27 -12 22 -35 26 -46
9z"/>
<path d="M4113 1143 c-22 -8 -14 -23 12 -23 14 0 25 4 25 9 0 11 -21 19 -37
14z"/>
<path d="M4023 1123 c9 -2 25 -2 35 0 9 3 1 5 -18 5 -19 0 -27 -2 -17 -5z"/>
<path d="M4240 1014 c0 -14 3 -15 18 -3 9 7 19 15 21 16 2 2 -5 3 -17 3 -14 0
-22 -6 -22 -16z"/>
<path d="M4350 1026 c0 -2 8 -10 18 -17 15 -13 16 -12 3 4 -13 16 -21 21 -21
13z"/>
<path d="M2680 994 c0 -12 3 -14 13 -6 7 6 33 12 57 15 42 3 41 4 -12 5 -48 2
-58 -1 -58 -14z"/>
<path d="M4380 970 c0 -19 3 -21 12 -12 9 9 9 15 0 24 -9 9 -12 7 -12 -12z"/>
<path d="M2820 950 c0 -19 3 -21 12 -12 9 9 9 15 0 24 -9 9 -12 7 -12 -12z"/>
<path d="M4240 914 c0 -22 2 -25 15 -14 12 10 13 16 4 26 -16 20 -19 18 -19
-12z"/>
<path d="M2680 894 c0 -22 2 -25 15 -14 12 10 13 16 4 26 -16 20 -19 18 -19
-12z"/>
<path d="M3840 362 c0 -59 -18 -92 -48 -92 -7 0 -12 -4 -12 -10 0 -5 24 -10
54 -10 30 0 61 -3 70 -6 11 -4 16 -1 16 10 0 9 -6 16 -13 16 -29 0 -47 36 -47
93 0 31 -4 57 -10 57 -6 0 -10 -26 -10 -58z"/>
<path d="M5860 321 c0 -56 -2 -61 -30 -78 -16 -9 -30 -21 -30 -25 0 -4 32 -8
70 -8 39 0 70 4 70 8 0 4 -13 16 -30 25 -28 17 -30 22 -30 78 0 33 -4 59 -10
59 -6 0 -10 -26 -10 -59z"/>
</g>
</svg>
