<?xml version="1.0" standalone="no"?>
<!DOCTYPE svg PUBLIC "-//W3C//DTD SVG 20010904//EN"
 "http://www.w3.org/TR/2001/REC-SVG-20010904/DTD/svg10.dtd">
<svg version="1.0" xmlns="http://www.w3.org/2000/svg"
 width="360.000000pt" height="360.000000pt" viewBox="0 0 360.000000 360.000000"
 preserveAspectRatio="xMidYMid meet">

<g transform="translate(0.000000,360.000000) scale(0.100000,-0.100000)"
fill="#000000" stroke="none">
<path d="M2432 3390 c0 -14 2 -19 5 -12 2 6 2 18 0 25 -3 6 -5 1 -5 -13z"/>
<path d="M2860 3099 c0 -17 5 -29 11 -27 6 2 10 7 10 11 -1 4 -1 16 -1 27 0
11 -4 20 -10 20 -5 0 -10 -14 -10 -31z"/>
<path d="M2081 3084 c0 -11 3 -14 6 -6 3 7 2 16 -1 19 -3 4 -6 -2 -5 -13z"/>
<path d="M2891 3061 c-11 -7 -10 -11 7 -20 17 -9 19 -8 15 9 -3 11 -6 20 -7
20 0 0 -7 -4 -15 -9z"/>
<path d="M2256 2995 c4 -15 2 -25 -5 -25 -6 0 -11 -9 -11 -20 0 -13 7 -20 20
-20 17 0 20 7 20 45 0 34 -4 45 -15 45 -11 0 -14 -7 -9 -25z"/>
<path d="M2052 2972 c-11 -25 -11 -25 4 -10 9 9 15 21 13 27 -2 6 -10 -2 -17
-17z"/>
<path d="M2968 2983 c6 -2 12 -18 12 -34 0 -16 5 -29 10 -29 6 0 10 -9 10 -20
0 -11 3 -20 8 -20 4 0 16 -16 26 -35 11 -19 23 -35 28 -35 4 0 8 -7 8 -15 0
-16 34 -55 49 -55 5 0 14 -7 21 -15 14 -17 23 -13 26 13 2 9 8 18 13 20 6 2
11 19 11 38 0 31 -8 39 -33 35 -13 -2 -37 26 -37 43 0 21 -38 59 -53 53 -14
-4 -48 28 -39 37 3 3 -2 6 -11 6 -9 0 -17 5 -17 10 0 6 -10 10 -22 9 -13 0
-17 -3 -10 -6z"/>
<path d="M859 2885 c-2 -16 -5 -30 -9 -42 -2 -5 -4 -39 -4 -76 -1 -48 -5 -70
-16 -77 -13 -9 -13 -11 0 -21 11 -8 12 -12 3 -16 -16 -6 -18 -199 -3 -208 6
-3 10 1 10 9 0 10 9 16 25 16 14 0 25 5 25 10 0 6 12 10 26 10 19 0 25 4 20
15 -3 8 -9 22 -12 30 -3 8 -2 15 4 15 6 0 12 -5 14 -12 5 -14 38 -3 38 12 0 6
-5 8 -11 5 -14 -9 12 37 30 51 12 9 11 12 -3 17 -13 5 -16 22 -16 89 -1 53 -5
89 -14 101 -16 20 -32 22 -40 5 -3 -7 -3 -3 0 9 3 16 -1 23 -16 28 -11 3 -20
15 -20 26 0 22 -29 26 -31 4z m51 -142 c0 -36 -3 -63 -7 -59 -12 11 -14 126
-3 126 6 0 10 -30 10 -67z"/>
<path d="M1033 2826 c5 -14 3 -17 -8 -12 -11 4 -15 -1 -15 -19 0 -14 5 -25 10
-25 6 0 10 -9 10 -20 0 -11 5 -20 10 -20 14 0 13 97 -2 106 -8 5 -9 2 -5 -10z"/>
<path d="M2217 2833 c-9 -15 1 -104 14 -119 6 -8 5 -17 -3 -26 -22 -23 -19
-38 8 -38 14 0 23 4 19 10 -3 6 0 10 8 10 8 0 19 -10 25 -22 6 -13 11 -17 11
-10 1 6 7 12 15 12 17 0 16 32 -1 43 -7 4 -13 17 -13 27 0 11 -4 20 -10 20 -5
0 -10 9 -10 20 0 11 -4 20 -10 20 -5 0 -10 7 -10 15 0 8 -6 15 -14 15 -8 0
-16 8 -18 18 -2 12 -6 13 -11 5z"/>
<path d="M3210 2819 c0 -5 5 -7 10 -4 6 4 10 -33 10 -105 0 -72 -4 -109 -10
-105 -5 3 -10 19 -10 36 0 16 -4 29 -10 29 -5 0 -10 -4 -10 -10 0 -12 -26 -14
-33 -2 -2 4 -2 0 1 -8 3 -8 4 -26 3 -39 0 -13 7 -30 16 -37 10 -7 14 -14 8
-14 -5 0 1 -6 15 -13 14 -7 26 -23 28 -35 4 -23 -24 -60 -36 -47 -4 4 -1 10 6
12 14 5 17 63 2 63 -5 0 -10 -7 -10 -15 0 -8 -7 -15 -16 -15 -8 0 -12 -4 -9
-10 3 -5 -1 -10 -9 -10 -9 0 -16 -8 -16 -19 0 -11 -4 -23 -10 -26 -5 -3 -10
-15 -10 -26 0 -11 -7 -22 -15 -25 -9 -4 -15 -19 -15 -35 0 -16 -4 -29 -10 -29
-5 0 -10 -18 -10 -39 0 -22 -6 -42 -12 -45 -10 -5 -10 -7 0 -12 6 -3 12 -12
12 -20 0 -9 5 -12 10 -9 6 3 10 -1 10 -9 0 -9 -5 -16 -11 -16 -8 0 -8 -4 0
-14 9 -11 8 -15 -4 -20 -19 -7 -39 10 -49 42 -4 12 -15 22 -24 22 -18 1 -56
66 -47 81 4 5 -3 9 -15 9 -12 0 -18 5 -15 10 3 6 1 10 -4 10 -6 0 -11 9 -11
20 0 20 -19 48 -52 79 -10 9 -30 28 -45 44 -14 15 -35 27 -45 27 -10 0 -18 4
-18 8 0 15 -37 52 -44 45 -3 -3 -6 1 -6 11 0 19 -23 46 -39 46 -6 0 -11 6 -11
13 0 7 -9 19 -20 27 -12 9 -20 26 -20 43 0 29 -19 57 -39 57 -6 0 -11 11 -11
25 0 28 -12 32 -33 11 -8 -9 -13 -29 -11 -50 2 -26 -2 -36 -12 -36 -9 0 -13
-4 -9 -9 3 -5 -2 -16 -10 -24 -8 -9 -15 -31 -15 -50 0 -42 -22 -62 -64 -60
-17 2 -25 0 -18 -3 16 -8 15 -40 -3 -67 -10 -16 -14 -47 -12 -110 2 -65 -1
-87 -10 -87 -7 0 -13 7 -13 16 0 8 -4 12 -10 9 -5 -3 -10 2 -10 12 -1 25 -26
56 -39 48 -14 -8 -14 -55 -1 -55 6 0 10 -31 10 -73 0 -63 3 -76 25 -99 14 -15
25 -32 25 -38 0 -5 9 -10 21 -10 22 0 49 -22 49 -39 0 -6 5 -11 11 -11 12 0
39 -25 39 -37 0 -5 9 -15 20 -23 11 -8 20 -24 20 -35 1 -19 32 -65 44 -65 3 0
6 16 6 35 0 19 5 35 10 35 6 0 10 -7 10 -15 0 -8 7 -15 15 -15 8 0 15 -8 15
-18 0 -10 9 -24 20 -32 11 -8 20 -18 20 -23 0 -14 28 -37 45 -37 20 0 75 -55
75 -75 0 -22 -28 -18 -42 5 -17 27 -42 25 -56 -2 -6 -13 -11 -17 -11 -10 -1 6
-8 12 -16 12 -8 0 -15 7 -15 15 0 8 -4 15 -10 15 -5 0 -10 11 -10 25 0 14 -9
34 -20 45 -21 21 -46 28 -35 10 9 -15 -4 -12 -21 5 -9 8 -16 24 -17 35 -1 11
-8 20 -17 20 -17 0 -60 43 -60 60 0 6 -4 10 -10 10 -5 0 -10 -10 -10 -23 0
-26 21 -77 33 -77 4 0 7 -4 7 -10 0 -5 -9 -10 -21 -10 -11 0 -18 4 -15 9 3 5
-1 14 -9 21 -8 7 -15 23 -15 36 0 13 -5 24 -11 24 -20 0 -39 -29 -39 -59 0
-17 -4 -31 -10 -31 -6 0 -10 28 -10 64 0 36 -4 68 -10 71 -5 3 -10 1 -10 -4 0
-18 -22 -12 -42 11 l-20 23 -20 -28 c-11 -15 -24 -25 -29 -21 -5 3 -9 -2 -9
-10 0 -9 -7 -16 -15 -16 -8 0 -14 -3 -14 -7 1 -5 0 -15 -1 -23 -3 -22 -18 30
-19 68 -1 25 -5 32 -20 32 -11 0 -23 9 -26 20 -3 11 -10 20 -14 20 -4 0 -18 8
-29 19 -16 13 -22 30 -22 60 0 22 5 41 10 41 6 0 10 -8 10 -19 0 -18 33 -35
44 -23 10 9 7 130 -3 137 -5 3 -12 1 -16 -5 -14 -22 -25 -8 -25 31 0 37 -17
69 -37 69 -5 0 -10 14 -11 30 -1 17 -15 43 -30 60 l-28 29 -19 -22 c-13 -15
-18 -34 -16 -63 2 -35 -3 -46 -29 -73 -17 -17 -38 -31 -46 -31 -8 0 -14 -7
-14 -16 0 -8 -7 -22 -15 -30 -8 -9 -15 -25 -15 -36 0 -17 -12 -8 -61 41 -33
35 -64 60 -67 56 -4 -3 -1 -10 6 -14 15 -9 10 -103 -7 -109 -6 -2 -11 -19 -11
-38 0 -19 -4 -34 -10 -34 -5 0 -10 -25 -10 -56 0 -34 -4 -53 -10 -49 -9 6 -14
-8 -11 -27 0 -5 -6 -8 -14 -8 -9 0 -15 -9 -15 -25 0 -14 -4 -25 -10 -25 -5 0
-10 -7 -10 -16 0 -8 -5 -12 -10 -9 -5 3 -10 26 -10 51 0 24 -4 44 -10 44 -5 0
-10 -16 -10 -35 0 -24 -5 -35 -15 -35 -9 0 -15 -9 -15 -25 0 -14 5 -25 10 -25
6 0 10 5 10 10 0 6 7 10 15 10 8 0 15 -4 15 -10 0 -5 -4 -10 -9 -10 -5 0 -12
-16 -15 -35 -4 -19 -11 -35 -16 -35 -6 0 -10 -18 -10 -41 0 -24 -4 -38 -10
-34 -5 3 -10 -3 -10 -14 0 -13 -7 -21 -16 -21 -10 0 -14 5 -10 16 3 9 2 12 -5
9 -6 -4 -8 -13 -5 -21 3 -8 0 -14 -7 -14 -7 0 -3 -8 8 -16 14 -11 16 -18 8
-21 -7 -3 -13 -11 -13 -19 0 -8 -8 -14 -17 -15 -16 0 -16 -1 1 -8 14 -5 27 0
48 20 15 16 28 33 28 39 0 6 11 21 25 34 14 13 25 30 25 39 0 9 9 19 20 22 11
3 20 11 20 16 0 5 5 9 11 9 6 0 17 6 25 14 16 16 19 40 4 31 -6 -4 -10 7 -10
25 0 18 -4 29 -10 25 -5 -3 -10 -1 -10 4 0 6 5 11 10 11 6 0 10 12 10 26 0 18
4 24 13 21 10 -4 13 2 9 19 -2 13 3 30 12 39 9 9 16 26 16 37 0 11 8 28 18 37
10 9 23 24 28 34 9 16 11 16 31 -2 11 -11 24 -17 27 -14 3 4 6 -19 6 -49 0
-36 -5 -58 -12 -61 -10 -4 -10 -6 0 -6 15 -1 16 -31 1 -31 -15 0 -39 -26 -32
-34 4 -3 -2 -6 -11 -6 -12 0 -16 -5 -12 -15 3 -9 0 -15 -9 -15 -8 0 -15 5 -15
11 0 8 -5 8 -15 -1 -8 -7 -15 -16 -15 -21 0 -5 7 -9 15 -9 8 0 15 -7 15 -15 0
-27 14 -16 34 25 11 22 23 40 28 40 5 0 7 4 3 9 -3 5 10 9 30 8 19 -1 35 -5
35 -9 0 -5 -4 -8 -10 -8 -5 0 -10 -23 -10 -51 0 -31 -4 -48 -10 -44 -5 3 -10
1 -10 -5 0 -17 -26 -40 -45 -40 -8 0 -20 -12 -25 -26 -6 -14 -14 -23 -19 -20
-5 4 -15 -7 -23 -24 -7 -16 -16 -30 -20 -30 -5 0 -8 -4 -8 -10 0 -5 5 -10 10
-10 16 0 60 47 60 64 0 8 10 18 23 22 12 4 25 12 29 18 6 8 8 7 8 -1 0 -7 9
-13 20 -13 12 0 20 7 20 16 0 10 -6 14 -15 10 -9 -3 -15 0 -15 9 0 20 39 19
46 0 4 -8 10 -15 15 -15 14 0 11 28 -3 33 -7 2 -9 8 -5 13 5 5 15 1 23 -10 12
-17 14 -18 14 -3 0 9 7 17 15 17 8 0 15 -7 15 -15 0 -8 6 -15 13 -15 6 -1 3
-6 -9 -13 -12 -7 -19 -17 -17 -24 2 -6 -1 -14 -6 -18 -6 -3 -11 -15 -11 -25 0
-12 -8 -20 -22 -22 -20 -3 -23 -8 -20 -45 3 -34 0 -43 -12 -43 -10 0 -16 -9
-16 -24 0 -27 15 -42 25 -26 3 5 14 10 24 10 10 0 27 11 37 25 18 25 54 34 54
15 0 -5 -4 -10 -10 -10 -5 0 -10 -7 -10 -16 0 -11 6 -13 19 -9 11 3 23 0 27
-7 4 -6 2 -14 -4 -16 -7 -2 -12 -17 -12 -32 0 -16 -7 -33 -16 -38 -9 -5 -15
-12 -15 -15 4 -28 -1 -34 -23 -30 -18 4 -32 -2 -49 -21 -13 -14 -30 -26 -36
-26 -7 0 -9 -5 -6 -11 4 -6 13 -8 21 -5 17 6 17 1 4 -24 -7 -13 -6 -19 5 -24
10 -4 15 -20 15 -50 0 -34 -3 -44 -13 -40 -10 4 -12 -3 -9 -26 3 -23 0 -30
-12 -30 -12 0 -15 7 -12 25 3 17 0 25 -9 25 -9 0 -13 -11 -10 -35 3 -30 -4
-42 -19 -32 -2 1 -14 -10 -26 -26 -12 -15 -27 -27 -35 -27 -7 0 -15 -7 -19
-15 -3 -8 -13 -15 -21 -15 -10 0 -13 -5 -9 -12 5 -7 2 -9 -9 -5 -9 3 -18 0
-21 -9 -3 -9 -10 -12 -16 -9 -5 3 -10 0 -10 -8 0 -8 -11 -18 -25 -21 -20 -5
-25 -13 -25 -36 0 -21 -5 -30 -16 -30 -8 0 -12 -4 -9 -10 3 -5 -1 -10 -9 -10
-23 0 -31 4 -28 12 1 5 -9 8 -23 8 -14 0 -25 5 -25 10 0 6 -7 10 -15 10 -8 0
-15 7 -15 15 0 10 -10 15 -31 15 -17 0 -28 4 -24 10 4 6 -7 10 -26 10 -18 0
-29 3 -26 7 8 7 -34 39 -45 35 -5 -1 -8 5 -8 13 0 12 -13 15 -55 15 -30 0 -55
5 -55 10 0 6 -6 10 -13 10 -8 0 -20 11 -27 25 -13 25 -60 36 -60 15 0 -20 -19
-9 -22 13 -2 18 -8 21 -34 19 -27 -3 -33 1 -39 25 -4 15 -10 22 -12 16 -6 -15
-33 -17 -33 -3 0 6 -14 10 -31 10 -16 0 -28 4 -25 8 3 5 -4 15 -16 23 -11 8
-26 20 -34 27 -7 6 -17 12 -23 12 -6 0 -10 3 -10 8 4 26 -3 42 -20 42 -13 0
-21 8 -23 23 -2 15 -9 21 -21 19 -32 -6 -77 21 -77 45 0 27 -15 30 -25 6 -6
-14 -11 -9 -26 25 -14 33 -23 42 -44 42 -14 0 -25 5 -25 10 0 6 -7 10 -16 10
-16 0 -64 47 -64 63 0 4 -11 7 -25 7 -14 0 -25 5 -25 10 0 6 -16 10 -35 10
-24 0 -35 5 -35 15 0 8 -7 15 -16 15 -8 0 -12 4 -9 10 3 5 -1 10 -10 10 -9 0
-14 4 -11 8 2 4 -8 16 -24 27 -15 10 -34 34 -41 52 -7 18 -16 33 -21 33 -4 0
-8 9 -8 20 0 16 -7 20 -31 20 -19 0 -28 4 -24 11 4 6 -3 5 -16 -3 -32 -18 -49
-35 -49 -47 0 -6 -6 -10 -12 -9 -10 2 -13 -29 -15 -127 -1 -71 1 -124 3 -117
11 26 24 10 24 -29 0 -28 -6 -47 -17 -56 -17 -14 -17 -14 -1 -9 23 7 25 -26 3
-44 -13 -11 -15 -101 -15 -696 l0 -684 900 0 c593 0 900 3 900 10 0 6 5 10 11
10 5 0 7 -4 4 -10 -3 -5 3 -10 14 -10 10 0 22 6 24 13 4 9 6 9 6 0 1 -17 78
-17 84 0 4 9 6 9 6 0 1 -18 147 -18 155 0 5 9 7 9 12 0 3 -7 21 -13 39 -13 18
0 36 6 39 13 5 9 7 9 12 0 7 -15 214 -19 214 -4 0 9 -81 26 -115 24 -11 -1
-15 1 -8 3 7 3 10 11 7 18 -3 8 2 16 10 19 9 4 16 13 16 22 0 8 6 15 13 15 6
0 28 15 47 33 39 37 100 57 100 32 0 -8 5 -15 10 -15 6 0 10 7 10 15 0 8 -4
15 -10 15 -5 0 -10 9 -10 20 0 21 15 27 25 10 9 -15 48 -12 42 3 -2 6 -11 11
-21 9 -9 -2 -16 0 -16 4 0 13 43 44 60 44 19 0 30 18 31 53 0 21 1 21 9 2 7
-17 9 -17 9 -2 1 11 9 17 26 17 14 0 25 5 25 10 0 6 9 10 20 10 11 0 20 5 20
10 0 6 -4 10 -10 10 -21 0 -9 20 15 26 14 3 25 10 25 15 0 5 9 9 20 9 11 0 20
5 20 10 0 6 11 10 25 10 15 0 25 6 25 14 0 8 6 16 13 19 9 3 9 9 0 28 -6 13
-14 32 -17 42 -7 23 -26 13 -26 -14 0 -11 -4 -18 -9 -14 -6 3 -11 -11 -13 -32
-3 -34 -6 -37 -33 -38 -20 0 -29 4 -27 14 1 7 -3 20 -10 29 -10 12 -10 14 0 8
6 -4 12 -3 12 3 0 5 -6 14 -13 18 -10 5 -12 21 -9 47 3 26 7 34 13 25 7 -11 9
-11 9 2 0 18 -19 39 -37 39 -8 0 -16 -13 -19 -30 -7 -30 -19 -40 -26 -19 -2 6
-3 -16 -1 -50 l2 -61 -47 0 c-34 0 -43 3 -32 10 8 5 10 10 5 10 -6 0 -18 18
-28 40 -22 51 -37 43 -38 -18 -1 -44 -2 -46 -12 -19 -6 15 -14 27 -19 27 -4 0
-8 9 -8 20 0 28 -30 26 -31 -2 -1 -17 -4 -13 -11 12 -5 19 -14 37 -19 40 -5 4
-12 20 -15 38 -5 25 -3 32 10 32 9 0 16 5 16 10 0 6 6 10 13 10 21 0 77 30 77
41 0 6 10 10 23 9 40 -4 58 0 52 10 -4 6 5 10 20 10 15 0 24 4 20 10 -3 6 1
10 9 10 9 0 16 7 16 16 0 11 6 14 20 9 14 -5 20 -2 20 9 0 13 14 16 75 16 43
0 75 4 75 10 0 6 12 10 26 10 14 0 23 4 19 10 -6 10 -5 11 34 15 14 1 33 12
42 24 11 13 29 21 51 22 27 0 30 2 13 9 -19 8 -19 9 2 9 12 1 28 8 37 16 8 8
19 15 25 15 6 0 11 5 11 10 0 6 7 10 16 10 8 0 22 7 31 15 8 8 19 13 24 10 5
-4 9 -2 9 4 0 6 11 13 25 17 14 3 25 10 25 15 0 5 12 9 26 9 17 0 24 4 21 13
-4 10 3 12 24 9 25 -4 31 0 42 27 7 17 16 28 20 24 4 -3 7 -1 7 5 0 7 7 12 15
12 8 0 15 5 15 10 0 6 5 10 11 10 5 0 7 -4 4 -10 -9 -14 14 -12 30 3 35 31 45
37 60 37 9 0 13 5 10 10 -3 6 3 10 15 10 23 0 50 22 50 40 0 6 5 8 10 5 6 -4
10 7 10 24 0 17 -4 31 -10 31 -5 0 -10 7 -10 15 0 14 -46 67 -63 72 -36 13
-47 30 -47 77 0 44 -4 53 -40 88 -41 38 -60 47 -60 28 0 -5 -4 -10 -10 -10 -5
0 -10 11 -10 25 0 22 -4 25 -35 25 -25 0 -35 4 -35 16 0 9 -10 24 -21 33 -12
9 -23 28 -24 42 -1 13 -3 31 -4 39 -1 13 -2 13 -11 0 -8 -12 -10 -11 -10 8 0
12 -4 22 -10 22 -5 0 -10 7 -10 15 0 8 -5 15 -11 15 -5 0 -7 5 -4 10 3 6 -3
10 -14 10 -14 0 -21 6 -21 19 0 11 -4 23 -10 26 -5 3 -10 24 -10 46 0 35 3 40
19 34 12 -3 21 0 24 9 4 11 1 13 -10 9 -10 -4 -14 -2 -10 4 4 6 0 16 -8 23 -8
7 -15 19 -15 26 0 8 -4 14 -10 14 -5 0 -10 6 -10 14 0 7 -7 19 -15 26 -17 14
-20 30 -5 30 6 0 10 -5 10 -11 0 -6 6 -17 13 -24 27 -31 37 -44 37 -51 0 -4 8
-14 19 -23 22 -19 37 -61 22 -61 -6 0 -11 -5 -11 -11 0 -8 4 -8 15 1 12 10 24
2 72 -46 31 -33 61 -58 65 -57 4 2 8 -6 8 -16 0 -10 6 -21 13 -24 10 -4 13 2
9 19 -4 24 11 33 23 14 4 -6 13 -5 26 3 16 10 21 9 29 -3 5 -8 10 -25 10 -36
0 -12 7 -24 15 -28 8 -3 15 -13 15 -21 0 -20 24 -45 43 -45 7 0 22 -16 33 -35
10 -19 22 -35 26 -35 5 0 8 -7 8 -16 0 -8 5 -12 10 -9 6 3 10 33 10 66 0 33
-4 59 -10 59 -5 0 -10 9 -10 20 0 11 -4 20 -10 20 -5 0 -10 11 -10 25 0 14 -4
25 -10 25 -5 0 -10 9 -10 20 0 22 16 27 22 8 3 -9 9 -8 21 4 24 24 25 291 2
315 -12 12 -19 13 -30 3 -8 -7 -15 -11 -16 -9 0 2 -3 18 -5 34 -3 17 -9 32
-15 33 -5 2 -9 10 -9 18 0 8 -4 14 -10 14 -5 0 -10 20 -10 45 0 45 0 45 -35
45 -25 0 -35 5 -35 15 0 8 -5 25 -12 38 -6 12 -14 29 -18 37 -4 8 -17 20 -29
25 -24 11 -41 57 -23 63 7 2 12 10 12 18 0 26 19 14 31 -21 7 -19 19 -35 26
-35 7 0 13 -9 13 -21 0 -24 26 -53 40 -44 5 3 10 19 10 36 0 16 5 29 10 29 6
0 10 -4 10 -10 0 -5 8 -10 18 -10 9 0 31 -16 47 -35 17 -19 33 -35 38 -35 4 0
7 16 7 36 0 21 -4 33 -10 29 -5 -3 -10 -1 -10 5 0 6 -7 18 -15 26 -13 14 -17
14 -32 -2 -14 -13 -18 -14 -22 -3 -2 8 -19 28 -38 46 -18 18 -33 39 -33 48 0
8 -9 15 -20 15 -18 0 -25 16 -21 43 0 4 -6 7 -14 7 -9 0 -15 9 -15 25 0 18 -5
25 -19 25 -15 0 -21 8 -23 33 -2 24 -8 33 -25 35 -15 2 -23 10 -23 23 0 15 -7
19 -35 19 -19 0 -35 -5 -35 -11z m-791 -476 c0 -10 -4 -27 -9 -38 -6 -15 -7
-11 -7 18 1 20 5 37 9 37 4 0 8 -8 7 -17z m758 -45 c-3 -8 -6 -5 -6 6 -1 11 2
17 5 13 3 -3 4 -12 1 -19z m212 -35 c-1 -37 -1 -37 -8 -8 -7 28 -5 45 5 45 2
0 3 -17 3 -37z m-1002 -25 c-3 -7 -5 -2 -5 12 0 14 2 19 5 13 2 -7 2 -19 0
-25z m-497 -23 c0 -19 -4 -35 -8 -35 -5 0 -14 -10 -21 -22 -12 -25 -12 -25 6
65 8 39 23 34 23 -8z m1525 -15 c3 -5 1 -10 -4 -10 -6 0 -11 5 -11 10 0 6 2
10 4 10 3 0 8 -4 11 -10z m-1507 -93 c0 -20 -4 -37 -9 -37 -5 0 -9 15 -9 34 0
19 -5 36 -12 38 -6 2 -8 10 -4 16 13 21 34 -11 34 -51z m-138 13 c0 -5 -4 -10
-10 -10 -5 0 -10 5 -10 10 0 6 5 10 10 10 6 0 10 -4 10 -10z m135 -150 c3 -5
1 -10 -4 -10 -6 0 -11 5 -11 10 0 6 2 10 4 10 3 0 8 -4 11 -10z m1622 -32 c-3
-7 -5 -2 -5 12 0 14 2 19 5 13 2 -7 2 -19 0 -25z m20 -30 c-3 -7 -5 -2 -5 12
0 14 2 19 5 13 2 -7 2 -19 0 -25z m-1687 -88 c0 -5 -4 -10 -10 -10 -5 0 -10 5
-10 10 0 6 5 10 10 10 6 0 10 -4 10 -10z m507 -92 c-3 -7 -5 -2 -5 12 0 14 2
19 5 13 2 -7 2 -19 0 -25z m444 -25 c1 -10 1 -21 0 -25 0 -5 10 -8 24 -8 22 0
25 -4 25 -35 0 -25 4 -35 16 -35 8 0 13 -4 10 -9 -3 -5 1 -11 9 -15 8 -3 15
-13 15 -22 0 -16 47 -64 63 -64 4 0 7 -7 7 -15 0 -8 -4 -15 -9 -15 -21 0 -41
13 -41 27 0 8 -4 12 -8 9 -5 -3 -15 4 -22 15 -8 10 -20 19 -27 19 -8 0 -13 12
-13 31 0 17 -4 28 -10 24 -5 -3 -10 3 -10 15 0 12 -11 36 -25 54 -14 18 -22
36 -18 39 3 4 -1 7 -11 7 -9 0 -14 5 -11 10 10 16 35 11 36 -7z m-415 -8 c-4
-24 -16 -30 -16 -7 0 12 4 22 9 22 5 0 8 -7 7 -15z m-386 -124 c0 -38 -14 -46
-40 -24 -24 21 -26 33 -5 33 8 0 15 5 15 10 0 6 7 10 15 10 10 0 15 -10 15
-29z m-1963 -28 c-3 -10 -5 -4 -5 12 0 17 2 24 5 18 2 -7 2 -21 0 -30z m2348
27 c3 -5 1 -10 -4 -10 -6 0 -11 5 -11 10 0 6 2 10 4 10 3 0 8 -4 11 -10z m25
-44 c0 -3 -4 -8 -10 -11 -5 -3 -10 -1 -10 4 0 6 5 11 10 11 6 0 10 -2 10 -4z
m-440 -31 c0 -9 -6 -12 -15 -9 -8 4 -15 10 -15 15 0 5 7 9 15 9 8 0 15 -7 15
-15z m460 5 c0 -5 -4 -10 -10 -10 -5 0 -10 5 -10 10 0 6 5 10 10 10 6 0 10 -4
10 -10z m30 -24 c0 -3 -4 -8 -10 -11 -5 -3 -10 -1 -10 4 0 6 5 11 10 11 6 0
10 -2 10 -4z m569 -66 c9 -8 23 -16 31 -18 8 -2 17 -8 18 -13 2 -5 10 -9 18
-9 8 0 14 -4 14 -10 0 -5 -4 -10 -9 -10 -5 0 -12 -11 -15 -25 -7 -27 -26 -34
-26 -10 0 8 -4 15 -10 15 -5 0 -10 9 -10 20 0 11 -7 20 -15 20 -8 0 -15 7 -15
16 0 8 -4 12 -10 9 -6 -3 -10 4 -10 18 0 27 13 45 19 25 2 -7 11 -20 20 -28z
m-549 -5 c0 -8 5 -15 10 -15 6 0 10 -4 10 -10 0 -5 -9 -10 -20 -10 -15 0 -20
7 -20 25 0 14 5 25 10 25 6 0 10 -7 10 -15z m-2233 -17 c-3 -8 -6 -5 -6 6 -1
11 2 17 5 13 3 -3 4 -12 1 -19z m-24 -18 c-3 -11 -9 -20 -13 -20 -5 0 -6 9 -3
20 3 11 9 20 13 20 5 0 6 -9 3 -20z m-31 -38 c-7 -2 -12 -25 -12 -58 0 -30 -4
-54 -10 -54 -5 0 -10 -7 -10 -15 0 -8 -4 -15 -10 -15 -5 0 -10 25 -10 55 0 30
5 55 10 55 6 0 10 6 10 13 0 19 21 37 34 30 6 -4 6 -8 -2 -11z m2964 -6 c18
-19 18 -21 -5 -23 -13 -1 -18 3 -15 12 3 7 -3 15 -13 18 -17 5 -17 5 0 6 10 0
25 -5 33 -13z m-38 -38 c15 -15 15 -28 1 -28 -5 0 -7 5 -4 10 3 6 -1 10 -9 10
-9 0 -16 5 -16 10 0 14 13 13 28 -2z m92 2 c0 -5 -7 -10 -15 -10 -8 0 -15 5
-15 10 0 6 7 10 15 10 8 0 15 -4 15 -10z m-2982 -67 c-24 -49 -32 -63 -40 -63
-4 0 -8 -8 -8 -17 -1 -17 -2 -16 -11 1 -14 22 8 69 28 62 7 -3 13 1 13 9 0 8
5 15 11 15 6 0 9 -3 7 -7z m2939 -55 c-3 -8 -6 -5 -6 6 -1 11 2 17 5 13 3 -3
4 -12 1 -19z m-2917 -30 c0 -23 -3 -38 -7 -34 -11 10 -13 76 -3 76 6 0 10 -19
10 -42z m3077 20 c-3 -8 -6 -5 -6 6 -1 11 2 17 5 13 3 -3 4 -12 1 -19z m-62
-18 c3 -5 -1 -10 -9 -10 -9 0 -16 5 -16 10 0 6 4 10 9 10 6 0 13 -4 16 -10z
m-275 -10 c0 -5 -2 -10 -4 -10 -3 0 -8 5 -11 10 -3 6 -1 10 4 10 6 0 11 -4 11
-10z m307 -12 c-3 -8 -6 -5 -6 6 -1 11 2 17 5 13 3 -3 4 -12 1 -19z m-1450
-20 c-3 -7 -5 -2 -5 12 0 14 2 19 5 13 2 -7 2 -19 0 -25z m471 -2 c-7 -8 -15
-12 -17 -11 -5 6 10 25 20 25 5 0 4 -6 -3 -14z m-445 -36 c3 -11 1 -18 -4 -14
-5 3 -9 12 -9 20 0 20 7 17 13 -6z m25 -5 c-3 -3 -9 2 -12 12 -6 14 -5 15 5 6
7 -7 10 -15 7 -18z m-1558 -21 c0 -19 -4 -33 -8 -30 -8 5 -4 66 4 66 2 0 4
-16 4 -36z m2340 18 c0 -5 -7 -9 -15 -9 -8 0 -12 4 -9 9 3 4 9 8 15 8 5 0 9
-4 9 -8z m257 -34 c-3 -8 -6 -5 -6 6 -1 11 2 17 5 13 3 -3 4 -12 1 -19z m-980
-50 c-3 -8 -6 -5 -6 6 -1 11 2 17 5 13 3 -3 4 -12 1 -19z m216 15 c-7 -2 -19
-2 -25 0 -7 3 -2 5 12 5 14 0 19 -2 13 -5z m347 3 c0 -2 -7 -6 -15 -10 -8 -3
-15 -1 -15 4 0 6 7 10 15 10 8 0 15 -2 15 -4z m-930 -46 c0 -5 -5 -10 -11 -10
-5 0 -7 5 -4 10 3 6 8 10 11 10 2 0 4 -4 4 -10z m47 -32 c-3 -8 -6 -5 -6 6 -1
11 2 17 5 13 3 -3 4 -12 1 -19z m70 -23 c0 -8 -4 -12 -9 -9 -5 3 -6 10 -3 15
9 13 12 11 12 -6z m436 8 c-7 -2 -19 -2 -25 0 -7 3 -2 5 12 5 14 0 19 -2 13
-5z m-448 -43 c3 -5 1 -10 -4 -10 -6 0 -11 5 -11 10 0 6 2 10 4 10 3 0 8 -4
11 -10z m-58 -22 c-3 -8 -6 -5 -6 6 -1 11 2 17 5 13 3 -3 4 -12 1 -19z m404
-51 c-10 -9 -11 -8 -5 6 3 10 9 15 12 12 3 -3 0 -11 -7 -18z m-1211 -67 c0 -5
-10 -10 -22 -9 -22 0 -22 1 -3 9 11 5 21 9 23 9 1 1 2 -3 2 -9z m1457 -72 c-3
-8 -6 -5 -6 6 -1 11 2 17 5 13 3 -3 4 -12 1 -19z m57 6 c3 -8 2 -12 -4 -9 -6
3 -10 10 -10 16 0 14 7 11 14 -7z m-169 -4 c3 -5 1 -10 -4 -10 -6 0 -11 5 -11
10 0 6 2 10 4 10 3 0 8 -4 11 -10z m25 -30 c0 -5 -2 -10 -4 -10 -3 0 -8 5 -11
10 -3 6 -1 10 4 10 6 0 11 -4 11 -10z m-1580 -36 c0 -14 -4 -23 -9 -20 -5 3
-7 15 -4 26 7 28 13 25 13 -6z m-494 -129 c-3 -20 -13 -28 -26 -20 -8 5 -5 11
7 21 23 17 22 17 19 -1z m46 -17 c-9 -9 -12 -7 -12 12 0 19 3 21 12 12 9 -9 9
-15 0 -24z m2395 0 c-3 -7 -5 -2 -5 12 0 14 2 19 5 13 2 -7 2 -19 0 -25z
m-2414 -7 c6 -25 -48 -59 -57 -36 -4 11 0 15 12 13 10 -2 21 6 27 20 12 27 11
27 18 3z m2417 -61 c0 -5 -5 -10 -11 -10 -5 0 -7 5 -4 10 3 6 8 10 11 10 2 0
4 -4 4 -10z m-140 -50 c0 -5 -2 -10 -4 -10 -3 0 -8 5 -11 10 -3 6 -1 10 4 10
6 0 11 -4 11 -10z m-20 -20 c0 -5 -4 -10 -10 -10 -5 0 -10 5 -10 10 0 6 5 10
10 10 6 0 10 -4 10 -10z m-90 -134 c0 -3 -4 -8 -10 -11 -5 -3 -10 -1 -10 4 0
6 5 11 10 11 6 0 10 -2 10 -4z m-120 -76 c0 -5 -2 -10 -4 -10 -3 0 -8 5 -11
10 -3 6 -1 10 4 10 6 0 11 -4 11 -10z m-235 -20 c3 -5 1 -10 -4 -10 -6 0 -11
5 -11 10 0 6 2 10 4 10 3 0 8 -4 11 -10z"/>
<path d="M1062 2670 c0 -14 2 -19 5 -12 2 6 2 18 0 25 -3 6 -5 1 -5 -13z"/>
<path d="M3070 2615 c0 -19 -4 -35 -10 -35 -5 0 -10 -18 -10 -40 0 -22 5 -40
10 -40 6 0 10 -7 10 -16 0 -8 5 -12 10 -9 6 3 10 1 10 -4 0 -6 7 -11 15 -11 9
0 15 9 15 25 0 14 5 25 10 25 6 0 10 7 10 16 0 8 -4 12 -10 9 -6 -4 -10 5 -10
19 0 14 4 25 9 24 13 -4 13 3 -1 40 -9 23 -19 32 -35 32 -20 0 -23 -5 -23 -35z"/>
<path d="M3135 2560 c-3 -5 1 -10 9 -10 9 0 16 5 16 10 0 6 -4 10 -9 10 -6 0
-13 -4 -16 -10z"/>
<path d="M565 2554 c-6 -3 -9 -49 -7 -119 2 -76 0 -115 -7 -115 -6 0 -11 -17
-11 -37 0 -28 -3 -34 -10 -23 -8 13 -10 13 -10 -2 0 -10 -5 -15 -13 -12 -8 3
-13 -3 -13 -16 0 -14 7 -20 23 -20 13 0 23 5 23 10 0 6 9 10 19 10 20 0 31 18
31 51 0 10 5 19 10 19 6 0 10 45 10 116 0 74 -4 113 -10 109 -5 -3 -10 1 -10
9 0 17 -10 25 -25 20z"/>
<path d="M2890 2542 c0 -4 9 -14 20 -22 11 -8 20 -19 20 -25 0 -6 -9 -16 -20
-23 -25 -16 -26 -40 0 -62 11 -9 21 -26 23 -37 5 -33 36 -73 57 -73 10 0 25
-9 33 -21 11 -15 17 -17 22 -8 5 7 1 17 -8 24 -10 7 -17 17 -17 24 0 6 -4 11
-10 11 -5 0 -10 9 -10 20 0 11 -4 20 -10 20 -5 0 -10 -4 -10 -9 0 -5 -7 -12
-16 -15 -13 -5 -15 -1 -11 19 2 16 -2 32 -11 41 -11 11 -12 18 -3 27 8 8 11 7
11 -6 0 -9 7 -17 15 -17 19 0 20 45 3 65 -57 66 -78 84 -78 67z"/>
<path d="M2870 2505 c-7 -9 -8 -15 -2 -15 5 0 12 7 16 15 3 8 4 15 2 15 -2 0
-9 -7 -16 -15z"/>
<path d="M1519 2423 c-1 -32 -1 -64 0 -70 1 -7 -3 -13 -10 -13 -6 0 -8 -7 -5
-17 4 -9 1 -20 -5 -24 -16 -9 -4 -39 16 -39 27 0 65 46 65 78 0 18 6 32 16 36
14 5 14 7 0 22 -9 8 -16 20 -16 25 0 10 -45 59 -55 59 -3 0 -6 -26 -6 -57z"/>
<path d="M780 2458 c0 -10 25 -38 33 -38 2 0 2 11 0 23 -4 22 -33 35 -33 15z"/>
<path d="M2120 2420 c0 -11 5 -20 10 -20 6 0 10 9 10 20 0 11 -4 20 -10 20 -5
0 -10 -9 -10 -20z"/>
<path d="M1290 2374 c0 -21 4 -33 10 -29 12 7 10 65 -2 65 -4 0 -8 -16 -8 -36z"/>
<path d="M1358 2404 c-5 -4 -8 -41 -8 -81 0 -70 -1 -74 -20 -68 -18 6 -20 2
-21 -52 -1 -32 -1 -62 0 -67 1 -4 -10 -19 -24 -32 -20 -18 -25 -33 -25 -71 0
-36 -3 -44 -12 -35 -19 19 -29 14 -24 -13 3 -18 0 -25 -10 -25 -36 0 -57 -66
-29 -90 22 -18 36 -2 38 44 1 20 5 36 9 36 4 0 18 11 32 25 14 14 35 25 46 25
20 0 51 22 50 35 0 7 3 7 23 0 18 -8 25 -65 7 -65 -5 0 -10 -4 -10 -10 0 -20
32 -9 62 20 16 17 25 30 19 30 -6 0 -11 5 -11 10 0 6 -11 21 -25 34 -25 23
-36 86 -15 86 6 0 10 -7 10 -16 0 -9 5 -14 12 -12 19 7 20 24 3 42 -9 8 -15
21 -13 28 1 7 -4 24 -11 36 -7 13 -9 27 -5 30 4 4 9 1 11 -5 3 -7 13 -13 23
-13 22 0 39 22 22 28 -7 2 -12 10 -12 18 0 16 -10 30 -51 72 -15 15 -28 35
-30 45 -2 11 -7 15 -11 11z m36 -350 c3 -8 2 -12 -4 -9 -6 3 -10 10 -10 16 0
14 7 11 14 -7z m-184 -134 c0 -5 -5 -10 -11 -10 -5 0 -7 5 -4 10 3 6 8 10 11
10 2 0 4 -4 4 -10z"/>
<path d="M2145 2380 c3 -5 8 -10 11 -10 2 0 4 5 4 10 0 6 -5 10 -11 10 -5 0
-7 -4 -4 -10z"/>
<path d="M2164 2274 c-7 -26 19 -94 36 -94 3 0 16 -9 28 -20 12 -12 22 -17 22
-12 0 6 10 12 23 16 l22 6 -27 23 c-15 13 -25 26 -23 29 9 8 -40 73 -57 76
-12 2 -20 -6 -24 -24z"/>
<path d="M409 2245 c0 -6 -2 -18 -4 -27 -2 -10 0 -18 5 -18 13 0 21 33 10 44
-6 6 -10 6 -11 1z"/>
<path d="M420 2180 c0 -5 5 -10 11 -10 5 0 7 5 4 10 -3 6 -8 10 -11 10 -2 0
-4 -4 -4 -10z"/>
<path d="M1035 2157 c-4 -11 -2 -28 6 -43 10 -20 10 -29 1 -44 -15 -24 -16
-70 -2 -70 6 0 10 7 10 16 0 8 5 12 10 9 6 -3 10 1 10 9 0 9 6 16 13 16 8 0 7
4 -3 10 -10 6 -11 10 -2 10 6 0 12 9 12 20 0 11 -4 20 -10 20 -5 0 -10 7 -10
15 0 8 -4 15 -9 15 -5 0 -11 8 -14 18 -4 16 -4 16 -12 -1z"/>
<path d="M405 2150 c-3 -5 -1 -10 4 -10 6 0 11 5 11 10 0 6 -2 10 -4 10 -3 0
-8 -4 -11 -10z"/>
<path d="M1222 2140 c0 -14 2 -19 5 -12 2 6 2 18 0 25 -3 6 -5 1 -5 -13z"/>
<path d="M1535 2109 c-11 -4 -14 -8 -7 -8 7 -1 12 -14 12 -31 0 -35 3 -37 30
-10 11 11 15 20 10 20 -6 0 -14 8 -18 19 -5 13 -12 16 -27 10z"/>
<path d="M1684 2030 c-1 -17 3 -30 7 -30 5 0 9 14 9 30 0 39 -15 39 -16 0z"/>
<path d="M896 2015 c4 -8 8 -15 10 -15 2 0 4 7 4 15 0 8 -4 15 -10 15 -5 0 -7
-7 -4 -15z"/>
<path d="M873 1956 c0 -18 3 -24 9 -18 7 7 7 16 0 28 -8 14 -9 13 -9 -10z"/>
<path d="M1238 1843 c3 -38 1 -53 -8 -53 -7 0 -10 -8 -7 -19 2 -11 -4 -32 -14
-48 -10 -15 -19 -38 -19 -50 0 -13 -4 -23 -10 -23 -5 0 -10 -11 -10 -25 0 -14
5 -25 10 -25 6 0 10 7 10 15 0 8 5 15 10 15 6 0 10 7 10 15 0 9 7 18 15 21 8
4 12 10 9 15 -3 5 2 9 10 9 9 0 16 6 16 14 0 8 4 16 9 18 5 2 11 25 14 53 2
27 9 51 16 53 6 2 11 10 11 17 0 7 6 15 12 17 25 9 -19 38 -54 36 l-34 -1 4
-54z"/>
<path d="M1150 1870 c0 -5 5 -10 10 -10 6 0 10 5 10 10 0 6 -4 10 -10 10 -5 0
-10 -4 -10 -10z"/>
<path d="M1030 1840 c0 -19 3 -21 12 -12 9 9 9 15 0 24 -9 9 -12 7 -12 -12z"/>
<path d="M1165 1850 c-3 -5 1 -10 9 -10 9 0 16 5 16 10 0 6 -4 10 -9 10 -6 0
-13 -4 -16 -10z"/>
<path d="M1470 1845 c0 -9 6 -12 15 -9 8 4 12 10 9 15 -8 14 -24 10 -24 -6z"/>
<path d="M3260 1844 c0 -8 5 -12 10 -9 6 3 10 10 10 16 0 5 -4 9 -10 9 -5 0
-10 -7 -10 -16z"/>
<path d="M781 1824 c0 -11 3 -14 6 -6 3 7 2 16 -1 19 -3 4 -6 -2 -5 -13z"/>
<path d="M3210 1830 c0 -5 5 -10 11 -10 5 0 7 5 4 10 -3 6 -8 10 -11 10 -2 0
-4 -4 -4 -10z"/>
<path d="M1430 1820 c0 -5 5 -10 10 -10 6 0 10 5 10 10 0 6 -4 10 -10 10 -5 0
-10 -4 -10 -10z"/>
<path d="M1175 1800 c-3 -5 -1 -10 4 -10 6 0 11 5 11 10 0 6 -2 10 -4 10 -3 0
-8 -4 -11 -10z"/>
<path d="M1361 1794 c0 -11 3 -14 6 -6 3 7 2 16 -1 19 -3 4 -6 -2 -5 -13z"/>
<path d="M660 1780 c0 -5 5 -10 11 -10 5 0 7 5 4 10 -3 6 -8 10 -11 10 -2 0
-4 -4 -4 -10z"/>
<path d="M1660 1771 c0 -25 6 -27 13 -6 4 8 2 17 -3 20 -6 4 -10 -3 -10 -14z"/>
<path d="M3400 1749 c0 -5 5 -7 10 -4 6 3 10 8 10 11 0 2 -4 4 -10 4 -5 0 -10
-5 -10 -11z"/>
<path d="M667 1733 c-4 -3 -7 -11 -7 -17 0 -6 5 -5 12 2 6 6 9 14 7 17 -3 3
-9 2 -12 -2z"/>
<path d="M3305 1730 c-3 -5 1 -10 9 -10 9 0 16 5 16 10 0 6 -4 10 -9 10 -6 0
-13 -4 -16 -10z"/>
<path d="M1727 1708 c6 -11 43 -10 43 1 0 5 -11 8 -24 7 -13 0 -22 -4 -19 -8z"/>
<path d="M800 1694 c0 -9 -5 -12 -12 -8 -10 6 -10 4 0 -7 6 -7 12 -21 12 -31
0 -12 7 -18 21 -18 18 0 19 2 9 15 -9 10 -9 15 -1 15 6 0 11 7 11 15 0 8 -7
15 -16 15 -8 0 -12 5 -9 10 3 6 1 10 -4 10 -6 0 -11 -7 -11 -16z"/>
<path d="M1334 1689 c-3 -6 -1 -16 5 -22 8 -8 11 -5 11 11 0 24 -5 28 -16 11z"/>
<path d="M1569 1678 c-1 -7 -1 -16 -1 -19 1 -4 -10 -17 -23 -29 -14 -13 -25
-29 -25 -37 0 -7 -4 -13 -9 -13 -14 0 -23 -32 -12 -43 6 -6 20 0 38 17 15 14
36 26 46 26 10 0 16 4 13 8 -3 5 4 15 15 22 20 15 26 40 9 40 -5 0 -10 9 -10
20 0 22 -39 29 -41 8z"/>
<path d="M1033 1650 c1 -11 5 -20 9 -20 4 0 8 9 8 20 0 11 -4 20 -9 20 -6 0
-9 -9 -8 -20z"/>
<path d="M1745 1648 c1 -13 5 -22 8 -20 4 1 11 2 15 2 4 0 8 9 8 20 0 12 -7
20 -16 20 -11 0 -16 -8 -15 -22z"/>
<path d="M1310 1640 c0 -19 3 -21 12 -12 9 9 9 15 0 24 -9 9 -12 7 -12 -12z"/>
<path d="M604 1615 c-18 -14 -18 -14 4 -8 12 3 22 9 22 14 0 12 -3 11 -26 -6z"/>
<path d="M1015 1610 c3 -5 8 -10 11 -10 2 0 4 5 4 10 0 6 -5 10 -11 10 -5 0
-7 -4 -4 -10z"/>
<path d="M1286 1596 c-3 -13 -4 -30 -3 -38 2 -7 2 -10 0 -5 -10 16 -23 5 -23
-19 l0 -26 34 29 c40 33 43 44 17 67 -18 16 -19 16 -25 -8z"/>
<path d="M1660 1600 c0 -11 4 -20 9 -20 6 0 9 9 8 20 -1 11 -5 20 -9 20 -4 0
-8 -9 -8 -20z"/>
<path d="M1730 1599 c0 -11 4 -18 10 -14 5 3 7 12 3 20 -7 21 -13 19 -13 -6z"/>
<path d="M1150 1589 c0 -14 -26 -39 -40 -39 -6 0 -8 -4 -5 -10 11 -17 32 -11
38 11 3 12 10 18 15 15 6 -3 8 2 5 14 -6 22 -13 27 -13 9z"/>
<path d="M1705 1580 c2 -31 15 -37 15 -7 0 15 -4 27 -8 27 -5 0 -8 -9 -7 -20z"/>
<path d="M1199 1548 c-6 -21 -5 -38 2 -38 5 0 9 9 9 20 0 16 -7 28 -11 18z"/>
<path d="M1610 1531 c0 -12 5 -21 10 -21 6 0 10 6 10 14 0 8 -4 18 -10 21 -5
3 -10 -3 -10 -14z"/>
<path d="M1680 1540 c0 -5 5 -10 11 -10 5 0 7 5 4 10 -3 6 -8 10 -11 10 -2 0
-4 -4 -4 -10z"/>
<path d="M1763 1533 c-20 -8 -15 -23 7 -23 11 0 20 7 20 15 0 15 -6 17 -27 8z"/>
<path d="M1010 1520 c0 -5 5 -10 10 -10 6 0 10 5 10 10 0 6 -4 10 -10 10 -5 0
-10 -4 -10 -10z"/>
<path d="M1080 1515 c0 -8 2 -15 4 -15 2 0 6 7 10 15 3 8 1 15 -4 15 -6 0 -10
-7 -10 -15z"/>
<path d="M1890 1520 c0 -5 5 -10 10 -10 6 0 10 5 10 10 0 6 -4 10 -10 10 -5 0
-10 -4 -10 -10z"/>
<path d="M3503 1516 c-24 -11 -31 -26 -12 -26 7 0 18 -8 25 -17 9 -14 16 -15
24 -6 9 8 7 13 -9 18 -24 7 -26 16 -9 33 14 14 11 14 -19 -2z"/>
<path d="M1050 1475 c-11 -13 -10 -14 4 -9 9 3 16 10 16 15 0 13 -6 11 -20 -6z"/>
<path d="M1656 1455 c-31 -29 -20 -34 15 -6 13 10 31 21 39 24 10 4 9 6 -6 6
-12 1 -33 -10 -48 -24z"/>
<path d="M1845 1470 c3 -5 8 -10 11 -10 2 0 4 5 4 10 0 6 -5 10 -11 10 -5 0
-7 -4 -4 -10z"/>
<path d="M1820 1450 c0 -5 5 -10 10 -10 6 0 10 5 10 10 0 6 -4 10 -10 10 -5 0
-10 -4 -10 -10z"/>
<path d="M3557 1440 c3 -11 9 -20 14 -20 5 0 9 -9 9 -20 0 -11 5 -20 10 -20
15 0 12 49 -4 66 -21 20 -35 17 -29 -6z"/>
<path d="M1800 1430 c0 -5 5 -10 11 -10 5 0 7 5 4 10 -3 6 -8 10 -11 10 -2 0
-4 -4 -4 -10z"/>
<path d="M1743 1403 c9 -2 25 -2 35 0 9 3 1 5 -18 5 -19 0 -27 -2 -17 -5z"/>
<path d="M1770 1341 c0 -6 5 -13 11 -17 8 -4 8 -9 0 -17 -6 -6 -11 -17 -11
-25 0 -8 -10 -22 -22 -33 -20 -16 -20 -18 -6 -19 21 0 59 30 52 42 -3 4 -1 8
4 8 6 0 6 13 -1 35 -9 32 -27 48 -27 26z"/>
<path d="M1740 1315 c-9 -10 -9 -15 -1 -15 6 0 11 5 11 11 0 5 5 7 12 3 7 -4
8 -3 4 4 -9 15 -11 15 -26 -3z"/>
<path d="M1710 1279 c0 -5 5 -7 10 -4 6 3 10 8 10 11 0 2 -4 4 -10 4 -5 0 -10
-5 -10 -11z"/>
<path d="M1590 1194 c0 -8 5 -12 10 -9 6 4 8 11 5 16 -9 14 -15 11 -15 -7z"/>
<path d="M1730 1195 c0 -8 2 -15 4 -15 2 0 6 7 10 15 3 8 1 15 -4 15 -6 0 -10
-7 -10 -15z"/>
<path d="M1610 1080 c0 -5 5 -10 10 -10 6 0 10 5 10 10 0 6 -4 10 -10 10 -5 0
-10 -4 -10 -10z"/>
<path d="M3444 973 c-3 -13 -10 -20 -15 -17 -5 3 -9 -11 -9 -30 0 -25 -4 -36
-15 -36 -8 0 -15 -6 -15 -13 0 -7 -9 -19 -20 -27 -21 -15 -27 -40 -10 -40 6 0
10 -5 10 -11 0 -5 -8 -9 -17 -8 -43 4 -53 -1 -53 -26 0 -20 5 -25 25 -25 20 0
25 -5 25 -24 0 -19 4 -24 20 -21 15 3 20 -2 20 -16 0 -22 -27 -55 -37 -45 -4
3 2 13 13 21 14 11 15 14 4 14 -22 0 -53 -26 -45 -38 3 -6 0 -11 -7 -12 -23
-1 26 -18 55 -18 15 -1 27 -5 27 -11 0 -5 11 -10 25 -10 28 0 34 17 8 27 -15
6 -15 7 3 13 10 4 26 5 36 2 15 -4 16 -6 2 -27 -12 -18 -12 -24 -2 -28 7 -3 3
-6 -9 -6 -14 -1 -23 -7 -23 -17 0 -8 -4 -12 -10 -9 -5 3 -10 2 -10 -4 0 -5 5
-13 10 -16 6 -3 10 -1 10 4 0 6 9 11 21 11 23 0 55 -27 44 -38 -4 -4 -10 -1
-12 6 -5 14 -33 16 -33 2 0 -15 -26 -12 -40 4 -12 15 -36 11 -57 -10 -16 -15
-17 -34 -3 -34 6 0 10 -4 10 -10 0 -5 -8 -10 -18 -10 -16 0 -63 -38 -51 -41 2
0 33 -3 69 -5 73 -5 78 -8 60 -29 -10 -13 -9 -15 8 -15 11 0 22 -7 26 -15 3
-9 12 -12 21 -9 9 4 14 13 11 20 -3 8 -1 14 4 14 6 0 10 -4 10 -9 0 -5 10 -12
23 -14 18 -4 17 -4 -6 -6 -16 0 -26 -5 -22 -11 3 -5 1 -10 -4 -10 -6 0 -11 -6
-11 -13 0 -15 -61 -22 -69 -8 -4 5 -30 11 -58 12 -32 2 -54 8 -57 16 -9 23
-39 14 -73 -23 -31 -35 -33 -35 -50 -18 -17 17 -17 18 0 11 20 -8 47 13 47 35
-1 9 -5 7 -14 -4 -19 -26 -60 -22 -82 7 -10 14 -27 25 -36 25 -21 0 -59 -30
-52 -42 9 -13 24 -9 24 7 0 8 5 15 10 15 15 0 12 -20 -7 -38 -12 -12 -18 -13
-21 -4 -2 6 -13 12 -23 12 -11 0 -17 -4 -14 -10 3 -5 -1 -10 -10 -10 -9 0 -13
-4 -10 -10 3 -5 1 -10 -4 -10 -6 0 -11 -7 -11 -15 0 -18 12 -19 28 -3 9 9 12
9 12 1 0 -7 20 -13 47 -15 29 -2 48 -8 51 -17 3 -8 0 -11 -7 -7 -6 4 -11 3
-11 -2 0 -5 9 -12 20 -15 11 -3 20 -1 20 4 0 12 37 11 45 -1 3 -5 22 -10 41
-10 19 0 34 -4 34 -10 0 -5 -6 -7 -14 -4 -7 3 -20 -2 -29 -10 -9 -9 -29 -16
-45 -16 -17 0 -32 -5 -34 -10 -2 -6 -17 -12 -33 -13 -24 -2 -31 2 -33 21 -4
23 -16 29 -27 12 -3 -5 -15 -10 -26 -10 -10 0 -19 -7 -19 -15 0 -9 -8 -14 -22
-12 -17 1 -24 -4 -26 -21 -2 -12 -8 -20 -13 -17 -5 4 -9 1 -9 -5 0 -6 -4 -8
-10 -5 -5 3 -10 1 -10 -4 0 -6 -7 -11 -15 -11 -10 0 -14 -8 -12 -22 4 -22 27
-39 27 -19 0 6 16 11 35 11 19 0 35 -4 35 -10 0 -6 37 -10 90 -10 50 0 90 3
90 8 -1 25 -30 43 -66 40 -23 -1 -39 2 -42 10 -2 7 -15 12 -29 12 -19 0 -24 4
-21 22 2 17 10 22 32 22 16 0 31 -5 34 -12 2 -7 -1 -12 -8 -12 -6 0 -8 -4 -5
-10 8 -13 135 -13 135 0 0 6 16 10 35 10 35 0 47 16 20 26 -24 9 -17 24 10 24
14 0 25 5 25 10 0 6 20 10 45 10 35 0 45 4 45 16 0 11 -6 15 -19 11 -30 -7
-41 5 -25 27 8 11 14 14 14 8 0 -8 18 -12 51 -12 27 0 48 -3 45 -8 -2 -4 13
-6 35 -4 25 3 39 9 39 18 0 8 4 14 8 14 4 0 16 15 27 33 10 17 27 39 37 48 15
14 18 32 18 118 0 101 -6 122 -38 129 -6 1 -12 -2 -12 -8 0 -5 -10 -10 -22
-10 -21 1 -21 2 -5 11 25 15 21 29 -9 29 -16 0 -24 5 -21 13 2 7 15 11 30 9
15 -2 27 1 27 7 0 6 11 11 25 11 25 0 25 1 25 84 0 58 -4 86 -12 89 -9 4 -10
8 -2 14 6 4 11 25 12 46 1 31 -2 37 -18 37 -11 0 -20 -7 -20 -16 0 -8 -4 -12
-10 -9 -5 3 -10 -1 -10 -9 0 -9 -6 -16 -14 -16 -18 0 -27 35 -13 49 8 8 6 11
-7 11 -16 0 -18 6 -13 42 4 27 2 37 -3 28 -8 -13 -12 -12 -24 5 -16 20 -16 20
-22 -2z m-29 -123 c3 -5 1 -10 -4 -10 -6 0 -11 5 -11 10 0 6 2 10 4 10 3 0 8
-4 11 -10z m-25 -26 c0 -8 -5 -12 -10 -9 -6 4 -8 11 -5 16 9 14 15 11 15 -7z
m185 6 c3 -5 1 -10 -4 -10 -6 0 -11 5 -11 10 0 6 2 10 4 10 3 0 8 -4 11 -10z
m-45 -100 c0 -5 -2 -10 -4 -10 -3 0 -8 5 -11 10 -3 6 -1 10 4 10 6 0 11 -4 11
-10z m-74 -47 c-11 -11 -17 4 -9 23 7 18 8 18 11 1 2 -10 1 -21 -2 -24z m94
19 c-8 -3 -26 -16 -39 -29 -25 -22 -41 -29 -41 -17 0 9 28 34 38 34 5 0 15 7
22 15 7 8 17 12 23 8 7 -4 6 -8 -3 -11z m-110 -42 c0 -5 -4 -10 -10 -10 -5 0
-10 5 -10 10 0 6 5 10 10 10 6 0 10 -4 10 -10z m140 -140 c0 -5 -4 -10 -10
-10 -5 0 -10 5 -10 10 0 6 5 10 10 10 6 0 10 -4 10 -10z m-25 -20 c3 -5 1 -10
-4 -10 -6 0 -11 5 -11 10 0 6 2 10 4 10 3 0 8 -4 11 -10z m-165 -26 c0 -8 -4
-12 -10 -9 -5 3 -10 10 -10 16 0 5 5 9 10 9 6 0 10 -7 10 -16z m79 -51 c-7
-10 -14 -19 -15 -21 -1 -1 -4 6 -7 18 -4 15 0 20 15 20 18 0 19 -2 7 -17z
m-49 -152 c0 -5 9 -11 20 -14 22 -6 28 -27 8 -27 -7 1 -26 12 -43 25 -28 24
-29 25 -7 25 12 0 22 -4 22 -9z m114 0 c8 -13 -3 -19 -24 -14 -11 3 -17 9 -14
14 7 11 31 12 38 0z m-148 -24 c4 -4 0 -7 -9 -7 -9 0 -18 4 -21 9 -7 10 20 9
30 -2z m-351 -207 c3 -5 1 -10 -4 -10 -6 0 -11 5 -11 10 0 6 2 10 4 10 3 0 8
-4 11 -10z m-28 -6 c-3 -3 -12 -4 -19 -1 -8 3 -5 6 6 6 11 1 17 -2 13 -5z"/>
<path d="M3209 792 c-1 -4 -2 -11 -4 -17 -1 -5 -3 -18 -3 -27 -1 -9 -11 -20
-22 -23 -11 -3 -20 -13 -20 -20 0 -9 -6 -12 -17 -8 -11 4 -14 3 -9 -5 7 -12
-3 -16 -41 -12 -15 1 -23 -4 -23 -14 0 -9 -8 -16 -18 -16 -10 0 -22 -3 -26 -7
-3 -4 -16 -8 -28 -10 -27 -4 -48 -21 -48 -39 0 -8 -10 -14 -23 -14 -18 0 -23
-5 -23 -22 1 -14 -4 -22 -12 -20 -8 1 -12 -3 -10 -10 8 -23 39 -20 63 6 12 13
26 22 29 19 3 -4 6 1 6 11 0 9 4 15 9 12 5 -3 20 5 35 19 15 14 44 27 71 30
25 4 45 11 45 16 0 5 7 9 16 9 8 0 12 5 9 10 -4 6 5 10 19 10 14 0 26 5 26 10
0 6 9 10 20 10 10 0 23 7 28 16 6 11 11 13 16 5 10 -16 26 -14 26 4 0 8 -8 31
-17 50 l-17 36 -12 -33 c-12 -31 -13 -32 -13 -7 -1 23 -29 51 -32 31z"/>
<path d="M3236 621 c-4 -5 -2 -12 3 -15 5 -4 12 -2 15 3 4 5 2 12 -3 15 -5 4
-12 2 -15 -3z"/>
<path d="M3145 593 c-14 -13 -18 -14 -25 -2 -5 7 -13 10 -17 5 -4 -5 -2 -11 5
-13 6 -3 12 -9 12 -14 0 -14 -28 -11 -33 4 -2 6 -8 8 -13 4 -15 -14 12 -42 45
-45 18 -2 48 4 66 12 18 9 47 16 64 16 44 0 38 20 -6 21 -21 1 -41 1 -45 0 -5
0 -8 6 -8 14 0 20 -24 19 -45 -2z"/>
<path d="M3368 563 c-10 -2 -18 -11 -18 -19 0 -20 13 -17 28 6 7 11 11 19 10
19 -2 -1 -11 -3 -20 -6z"/>
<path d="M2980 511 c0 -25 3 -28 31 -27 23 1 34 8 40 23 9 24 -11 39 -29 21
-6 -6 -12 -6 -16 1 -13 20 -26 11 -26 -18z"/>
<path d="M3210 500 c0 -5 5 -10 10 -10 6 0 10 5 10 10 0 6 -4 10 -10 10 -5 0
-10 -4 -10 -10z"/>
<path d="M3140 470 c0 -5 5 -10 10 -10 6 0 10 5 10 10 0 6 -4 10 -10 10 -5 0
-10 -4 -10 -10z"/>
<path d="M2956 455 c4 -8 10 -15 15 -15 5 0 9 7 9 15 0 8 -7 15 -15 15 -9 0
-12 -6 -9 -15z"/>
<path d="M3116 463 c-11 -11 -6 -23 9 -23 8 0 15 4 15 9 0 13 -16 22 -24 14z"/>
<path d="M3184 446 c5 -20 1 -25 -27 -31 -28 -6 -30 -8 -12 -15 27 -12 65 -12
65 -1 0 5 6 9 13 8 41 -1 57 4 57 21 0 28 -21 42 -63 42 -36 0 -39 -2 -33 -24z"/>
<path d="M2820 430 c0 -5 5 -10 10 -10 6 0 10 5 10 10 0 6 -4 10 -10 10 -5 0
-10 -4 -10 -10z"/>
<path d="M3018 431 c-1 -6 -22 -11 -45 -12 -44 -3 -57 -14 -25 -22 9 -3 41 -6
70 -6 49 -1 52 0 52 24 0 20 -5 25 -24 25 -13 0 -26 -4 -28 -9z"/>
<path d="M3260 380 c0 -5 -7 -10 -15 -10 -8 0 -15 -4 -15 -10 0 -5 11 -10 25
-10 18 0 25 5 25 20 0 11 -4 20 -10 20 -5 0 -10 -4 -10 -10z"/>
<path d="M2903 373 c-26 -5 -31 -23 -8 -23 8 0 15 -4 15 -10 0 -5 -7 -10 -15
-10 -8 0 -15 -7 -15 -15 0 -8 -9 -15 -20 -15 -11 0 -20 7 -20 15 0 8 7 15 16
15 8 0 13 4 10 9 -4 5 -17 4 -31 -2 -18 -9 -25 -19 -23 -35 3 -21 9 -23 76
-27 54 -3 76 0 87 11 8 9 15 12 15 7 0 -4 4 -2 9 6 7 11 0 24 -24 48 -18 18
-37 32 -41 32 -5 -1 -19 -4 -31 -6z"/>
<path d="M2705 303 c-7 -23 -25 -32 -25 -13 0 17 -13 11 -49 -19 -24 -21 -30
-31 -20 -37 7 -4 14 -3 17 4 6 19 22 14 22 -8 0 -15 7 -20 25 -20 14 0 25 5
25 10 0 6 11 10 25 10 16 0 25 6 25 15 0 8 3 14 8 14 18 -3 32 2 32 12 0 5 -4
8 -9 4 -5 -3 -16 2 -24 10 -9 8 -20 15 -25 15 -6 0 -13 6 -15 13 -4 7 -8 3
-12 -10z m-35 -33 c0 -5 -5 -10 -11 -10 -5 0 -7 5 -4 10 3 6 8 10 11 10 2 0 4
-4 4 -10z"/>
<path d="M2893 216 c-13 -15 -5 -30 20 -34 10 -2 17 3 17 13 0 8 5 15 10 15 6
0 10 5 10 10 0 15 -43 12 -57 -4z"/>
<path d="M2545 180 c-18 -7 -18 -8 8 -15 30 -8 43 -2 32 14 -7 13 -12 13 -40
1z"/>
<path d="M2688 165 c-16 -15 -39 -25 -57 -25 -16 0 -32 -6 -34 -12 -4 -10 -6
-10 -6 0 -1 6 -7 12 -15 12 -8 0 -17 -6 -20 -12 -5 -10 -7 -10 -12 0 -8 17
-74 16 -74 -2 0 -8 7 -17 16 -20 24 -9 31 -7 14 4 -18 12 -3 12 25 0 18 -7 19
-8 3 -15 -34 -14 -17 -25 38 -25 30 0 53 4 50 8 -2 4 8 9 24 10 16 1 31 -2 35
-8 4 -6 -5 -10 -20 -10 -15 0 -24 -4 -20 -10 3 -6 -1 -13 -9 -16 -9 -3 -16
-15 -16 -25 0 -17 8 -19 81 -19 54 0 78 3 74 11 -4 6 -13 8 -21 5 -9 -4 -14 2
-14 15 0 11 4 17 10 14 6 -4 33 -4 61 0 41 6 48 9 38 21 -6 8 -15 12 -19 9
-18 -11 -18 12 1 25 10 8 19 20 19 27 0 7 7 13 15 13 16 0 19 9 9 34 -8 22
-43 20 -64 -4 -17 -19 -17 -19 -38 0 -28 26 -42 25 -74 -5z m32 -15 c0 -5 -2
-10 -4 -10 -3 0 -8 5 -11 10 -3 6 -1 10 4 10 6 0 11 -4 11 -10z m-25 -20 c3
-5 1 -10 -4 -10 -6 0 -11 5 -11 10 0 6 2 10 4 10 3 0 8 -4 11 -10z"/>
<path d="M3490 150 c0 -5 5 -10 10 -10 6 0 10 5 10 10 0 6 -4 10 -10 10 -5 0
-10 -4 -10 -10z"/>
<path d="M3343 113 c-24 -9 -13 -23 16 -23 34 0 49 15 25 24 -18 7 -23 7 -41
-1z"/>
<path d="M3506 105 c-3 -8 -16 -15 -30 -15 -14 0 -28 -4 -31 -10 -3 -5 -18
-10 -31 -10 -32 0 -27 -22 7 -31 24 -7 21 -10 -17 -14 -12 -1 -26 -5 -33 -9
-7 -5 -9 -1 -5 8 5 12 0 16 -17 15 -13 0 -18 -3 -11 -6 6 -2 12 -11 12 -19 0
-22 106 -20 114 3 4 11 1 22 -8 29 -24 17 -19 24 19 24 19 0 35 5 35 10 0 6
20 10 45 10 33 0 45 4 45 15 0 11 -12 15 -44 15 -30 0 -46 -5 -50 -15z"/>
<path d="M2440 10 c0 -5 11 -10 25 -10 14 0 25 5 25 10 0 6 -11 10 -25 10 -14
0 -25 -4 -25 -10z"/>
<path d="M2540 9 c0 -5 5 -7 10 -4 6 3 10 8 10 11 0 2 -4 4 -10 4 -5 0 -10 -5
-10 -11z"/>
<path d="M3190 10 c0 -5 20 -10 45 -10 25 0 45 5 45 10 0 6 -20 10 -45 10 -25
0 -45 -4 -45 -10z"/>
</g>
</svg>
